<?xml version="1.0" standalone="no"?>
<!DOCTYPE svg PUBLIC "-//W3C//DTD SVG 1.1//EN" "http://www.w3.org/Graphics/SVG/1.1/DTD/svg11.dtd">
<svg width="100%" height="100%" viewBox="0 0 490 490" version="1.1" xmlns="http://www.w3.org/2000/svg" xmlns:xlink="http://www.w3.org/1999/xlink" xml:space="preserve" style="fill-rule:evenodd;clip-rule:evenodd;stroke-linejoin:round;stroke-miterlimit:1.41421;">
    <g transform="matrix(2.56533e-16,0.905591,-0.905591,2.56533e-16,462.837,23.8855)">
        <path d="M-0.182,170.268L-0.179,169.719L-0.175,169.17L-0.169,168.621L-0.161,168.073L-0.151,167.526L-0.14,166.978L-0.126,166.432L-0.111,165.885L-0.095,165.339L-0.076,164.793L-0.056,164.247L-0.034,163.703L-0.011,163.158L0.015,162.614L0.042,162.07L0.07,161.526L0.101,160.983L0.133,160.441L0.167,159.898L0.203,159.357L0.24,158.815L0.279,158.274L0.32,157.734L0.363,157.194L0.407,156.654L0.453,156.115L0.501,155.576L0.55,155.038L0.601,154.5L0.654,153.962L0.708,153.425L0.764,152.889L0.822,152.352L0.881,151.817L0.942,151.282L1.005,150.747L1.069,150.213L1.136,149.679L1.203,149.146L1.273,148.613L1.344,148.081L1.417,147.549L1.491,147.017L1.567,146.487L1.645,145.956L1.724,145.426L1.805,144.897L1.888,144.368L1.972,143.84L2.058,143.312L2.145,142.785L2.235,142.258L2.325,141.732L2.418,141.206L2.512,140.681L2.607,140.156L2.705,139.632L2.804,139.108L2.904,138.585L3.006,138.063L3.11,137.541L3.215,137.019L3.322,136.499L3.431,135.978L3.541,135.458L3.652,134.939L3.766,134.421L3.881,133.902L3.997,133.385L4.115,132.868L4.235,132.352L4.356,131.836L4.478,131.321L4.603,130.806L4.729,130.292L4.856,129.779L4.985,129.266L5.116,128.754L5.248,128.242L5.381,127.731L5.517,127.22L5.653,126.711L5.792,126.202L5.931,125.693L6.073,125.185L6.216,124.678L6.36,124.171L6.506,123.665L6.654,123.159L6.803,122.654L6.953,122.15L7.105,121.647L7.259,121.144L7.414,120.642L7.57,120.14L7.728,119.639L7.888,119.139L8.049,118.639L8.212,118.14L8.376,117.642L8.541,117.144L8.708,116.647L8.877,116.151L9.047,115.655L9.218,115.16L9.391,114.666L9.566,114.172L9.742,113.679L9.919,113.187L10.098,112.695L10.278,112.205L10.46,111.714L10.643,111.225L10.828,110.736L11.014,110.248L11.202,109.761L11.391,109.274L11.581,108.788L11.773,108.303L11.967,107.818L12.162,107.334L12.358,106.852L12.555,106.369L12.755,105.887L12.955,105.407L13.157,104.927L13.36,104.447L13.565,103.969L13.771,103.49L13.979,103.013L14.188,102.537L14.398,102.061L14.61,101.586L14.823,101.112L15.038,100.639L15.254,100.166L15.471,99.694L15.69,99.223L15.91,98.753L16.132,98.283L16.355,97.814L16.579,97.346L16.805,96.879L17.032,96.413L17.26,95.947L17.49,95.482L17.721,95.018L17.954,94.555L18.188,94.092L18.423,93.63L18.659,93.17L18.897,92.71L19.136,92.25L19.377,91.792L19.619,91.334L19.862,90.877L20.107,90.421L20.353,89.966L20.6,89.512L20.849,89.058L21.099,88.605L21.35,88.154L21.602,87.702L21.856,87.252L22.111,86.803L22.368,86.354L22.626,85.906L22.885,85.46L23.145,85.014L23.407,84.568L23.67,84.124L23.934,83.681L24.2,83.238L24.467,82.797L24.735,82.356L25.004,81.916L25.275,81.476L25.547,81.038L25.82,80.601L26.095,80.164L26.371,79.729L26.648,79.294L26.926,78.86L27.206,78.427L27.487,77.995L27.769,77.564L28.052,77.134L28.336,76.704L28.622,76.276L28.91,75.848L29.198,75.421L29.487,74.996L29.778,74.571L30.071,74.147L30.364,73.724L30.658,73.302L30.954,72.88L31.251,72.46L31.549,72.041L31.849,71.622L32.149,71.205L32.451,70.789L32.754,70.373L33.058,69.958L33.364,69.544L33.671,69.131L33.978,68.72L34.287,68.309L34.598,67.899L34.909,67.49L35.222,67.082L35.536,66.675L35.85,66.269L36.167,65.863L36.484,65.459L36.802,65.056L37.122,64.654L37.443,64.252L37.765,63.852L38.088,63.453L38.413,63.055L38.738,62.657L39.065,62.261L39.393,61.866L39.722,61.471L40.052,61.078L40.383,60.686L40.716,60.294L41.049,59.904L41.384,59.514L41.72,59.126L42.057,58.739L42.395,58.352L42.734,57.967L43.075,57.583L43.416,57.199L43.759,56.817L44.102,56.436L44.447,56.056L44.793,55.676L45.14,55.298L45.488,54.921L45.838,54.545L46.188,54.17L46.539,53.796L46.892,53.423L47.246,53.051L47.601,52.68L47.957,52.311L48.313,51.942L48.671,51.575L49.031,51.208L49.391,50.842L49.752,50.478L50.114,50.114L50.478,49.752L50.842,49.391L51.208,49.031L51.574,48.672L51.942,48.313L52.311,47.956L52.681,47.601L53.051,47.246L53.423,46.892L53.796,46.539L54.17,46.188L54.545,45.838L54.921,45.488L55.299,45.14L55.676,44.793L56.056,44.447L56.436,44.102L56.817,43.759L57.199,43.416L57.583,43.075L57.967,42.734L58.353,42.395L58.739,42.057L59.126,41.72L59.515,41.384L59.904,41.049L60.294,40.716L60.685,40.384L61.078,40.052L61.472,39.722L61.865,39.393L62.261,39.065L62.658,38.738L63.055,38.413L63.453,38.088L63.852,37.765L64.253,37.443L64.654,37.122L65.056,36.803L65.46,36.484L65.864,36.166L66.268,35.851L66.675,35.536L67.082,35.222L67.49,34.909L67.899,34.598L68.309,34.287L68.72,33.978L69.131,33.67L69.544,33.364L69.958,33.058L70.373,32.754L70.788,32.451L71.205,32.149L71.623,31.848L72.041,31.549L72.46,31.251L72.88,30.954L73.302,30.658L73.724,30.364L74.147,30.07L74.571,29.778L74.996,29.487L75.421,29.198L75.848,28.909L76.276,28.622L76.704,28.337L77.133,28.052L77.564,27.769L77.995,27.487L78.427,27.206L78.86,26.926L79.294,26.648L79.728,26.371L80.164,26.095L80.601,25.82L81.039,25.547L81.477,25.275L81.915,25.004L82.356,24.735L82.797,24.467L83.238,24.2L83.681,23.934L84.124,23.67L84.568,23.407L85.014,23.145L85.46,22.885L85.906,22.626L86.355,22.368L86.803,22.111L87.252,21.856L87.702,21.602L88.154,21.35L88.605,21.099L89.058,20.849L89.512,20.6L89.966,20.353L90.421,20.107L90.878,19.862L91.334,19.619L91.792,19.377L92.25,19.136L92.71,18.897L93.17,18.659L93.63,18.423L94.092,18.187L94.555,17.953L95.018,17.721L95.482,17.49L95.947,17.26L96.413,17.032L96.879,16.805L97.346,16.579L97.814,16.355L98.283,16.132L98.753,15.91L99.223,15.69L99.694,15.471L100.166,15.254L100.639,15.038L101.112,14.823L101.586,14.61L102.061,14.398L102.537,14.188L103.014,13.979L103.491,13.771L103.968,13.565L104.447,13.36L104.927,13.157L105.407,12.955L105.888,12.755L106.369,12.555L106.851,12.358L107.334,12.162L107.819,11.967L108.303,11.773L108.788,11.582L109.274,11.391L109.761,11.202L110.248,11.014L110.736,10.828L111.225,10.643L111.715,10.46L112.204,10.278L112.695,10.098L113.187,9.919L113.679,9.742L114.173,9.566L114.665,9.392L115.16,9.218L115.655,9.047L116.151,8.877L116.647,8.708L117.144,8.541L117.641,8.376L118.14,8.212L118.639,8.049L119.139,7.888L119.639,7.728L120.14,7.57L120.642,7.414L121.144,7.259L121.647,7.105L122.15,6.953L122.655,6.803L123.16,6.654L123.664,6.506L124.171,6.36L124.678,6.216L125.185,6.073L125.693,5.931L126.202,5.792L126.711,5.653L127.22,5.517L127.731,5.381L128.242,5.248L128.754,5.116L129.266,4.985L129.779,4.856L130.292,4.729L130.806,4.603L131.321,4.479L131.836,4.356L132.352,4.235L132.868,4.115L133.385,3.997L133.902,3.881L134.421,3.766L134.939,3.652L135.458,3.541L135.978,3.431L136.498,3.322L137.019,3.215L137.541,3.11L138.062,3.006L138.585,2.904L139.108,2.804L139.632,2.705L140.156,2.607L140.68,2.512L141.206,2.418L141.732,2.325L142.258,2.235L142.785,2.145L143.312,2.058L143.839,1.972L144.369,1.888L144.897,1.805L145.426,1.724L145.956,1.645L146.487,1.567L147.017,1.491L147.549,1.417L148.081,1.344L148.613,1.273L149.146,1.203L149.679,1.136L150.213,1.069L150.748,1.005L151.282,0.942L151.817,0.881L152.352,0.822L152.889,0.764L153.425,0.708L153.962,0.653L154.5,0.601L155.038,0.55L155.576,0.5L156.115,0.453L156.654,0.407L157.194,0.363L157.734,0.32L158.274,0.279L158.815,0.24L159.356,0.203L159.898,0.167L160.441,0.133L160.984,0.101L161.526,0.07L162.07,0.042L162.613,0.015L163.158,-0.011L163.703,-0.034L164.247,-0.056L164.793,-0.076L165.339,-0.095L165.885,-0.111L166.431,-0.126L166.979,-0.14L167.526,-0.151L168.074,-0.161L168.622,-0.169L169.17,-0.175L169.719,-0.179L170.268,-0.182L170.817,-0.183L171.367,-0.182L171.916,-0.179L172.465,-0.175L173.013,-0.169L173.561,-0.161L174.109,-0.151L174.656,-0.14L175.203,-0.126L175.75,-0.111L176.296,-0.095L176.841,-0.076L177.387,-0.056L177.932,-0.034L178.477,-0.011L179.022,0.015L179.565,0.042L180.108,0.07L180.651,0.101L181.194,0.133L181.736,0.167L182.278,0.203L182.819,0.24L183.36,0.279L183.901,0.32L184.441,0.363L184.981,0.407L185.52,0.453L186.058,0.5L186.597,0.55L187.135,0.601L187.672,0.653L188.21,0.708L188.746,0.764L189.282,0.822L189.818,0.881L190.353,0.942L190.887,1.005L191.422,1.069L191.956,1.136L192.489,1.203L193.022,1.273L193.554,1.344L194.086,1.417L194.617,1.491L195.148,1.567L195.679,1.645L196.208,1.724L196.737,1.805L197.266,1.888L197.795,1.972L198.323,2.058L198.85,2.145L199.377,2.235L199.902,2.325L200.428,2.418L200.954,2.512L201.478,2.607L202.002,2.705L202.526,2.804L203.05,2.904L203.572,3.006L204.094,3.11L204.615,3.215L205.136,3.322L205.656,3.431L206.176,3.541L206.695,3.652L207.214,3.766L207.733,3.881L208.25,3.997L208.766,4.115L209.283,4.235L209.799,4.356L210.314,4.478L210.828,4.603L211.343,4.729L211.856,4.856L212.369,4.985L212.881,5.116L213.392,5.248L213.903,5.381L214.414,5.517L214.924,5.653L215.433,5.792L215.942,5.931L216.45,6.073L216.957,6.216L217.463,6.36L217.97,6.506L218.475,6.654L218.98,6.803L219.484,6.953L219.988,7.105L220.491,7.259L220.993,7.414L221.495,7.57L221.996,7.728L222.496,7.888L222.995,8.049L223.495,8.212L223.993,8.376L224.49,8.541L224.987,8.708L225.484,8.877L225.979,9.047L226.475,9.218L226.969,9.392L227.462,9.566L227.955,9.742L228.447,9.919L228.939,10.098L229.43,10.278L229.92,10.46L230.41,10.643L230.899,10.828L231.387,11.014L231.874,11.202L232.36,11.391L232.847,11.582L233.332,11.773L233.816,11.967L234.3,12.162L234.783,12.358L235.265,12.555L235.747,12.755L236.228,12.955L236.708,13.157L237.188,13.36L237.667,13.565L238.144,13.771L238.621,13.979L239.097,14.188L239.573,14.398L240.048,14.61L240.522,14.823L240.996,15.038L241.469,15.254L241.94,15.471L242.412,15.69L242.882,15.91L243.351,16.132L243.82,16.355L244.288,16.579L244.755,16.805L245.222,17.032L245.688,17.26L246.153,17.49L246.616,17.721L247.079,17.953L247.542,18.187L248.004,18.423L248.465,18.659L248.925,18.897L249.384,19.136L249.843,19.377L250.3,19.619L250.757,19.862L251.213,20.107L251.668,20.353L252.123,20.6L252.577,20.849L253.029,21.099L253.481,21.35L253.932,21.602L254.383,21.856L254.831,22.111L255.28,22.368L255.728,22.626L256.175,22.885L256.621,23.145L257.066,23.407L257.51,23.67L257.954,23.934L258.397,24.2L258.838,24.467L259.279,24.735L259.719,25.004L260.158,25.275L260.596,25.547L261.034,25.82L261.47,26.095L261.906,26.371L262.341,26.648L262.774,26.926L263.208,27.206L263.64,27.486L264.071,27.769L264.501,28.052L264.931,28.337L265.359,28.622L265.786,28.909L266.213,29.198L266.639,29.488L267.064,29.778L267.488,30.07L267.911,30.364L268.333,30.658L268.754,30.954L269.175,31.251L269.594,31.549L270.012,31.848L270.429,32.149L270.846,32.451L271.262,32.754L271.676,33.058L272.09,33.364L272.503,33.67L272.915,33.978L273.326,34.288L273.736,34.598L274.144,34.909L274.553,35.222L274.96,35.536L275.366,35.851L275.771,36.167L276.175,36.484L276.579,36.803L276.981,37.122L277.382,37.443L277.782,37.765L278.181,38.088L278.58,38.413L278.977,38.738L279.374,39.065L279.769,39.393L280.163,39.721L280.556,40.052L280.95,40.384L281.34,40.716L281.731,41.049L282.12,41.384L282.508,41.72L282.896,42.057L283.282,42.395L283.668,42.734L284.052,43.075L284.435,43.416L284.817,43.759L285.198,44.102L285.579,44.447L285.958,44.793L286.336,45.14L286.713,45.488L287.09,45.838L287.464,46.188L287.838,46.539L288.211,46.892L288.583,47.246L288.954,47.6L289.324,47.956L289.693,48.313L290.06,48.671L290.427,49.031L290.792,49.391L291.157,49.752L291.52,50.114L291.883,50.478L292.243,50.842L292.604,51.208L292.963,51.575L293.321,51.942L293.678,52.311L294.034,52.681L294.389,53.051L294.742,53.423L295.095,53.796L295.446,54.17L295.797,54.546L296.146,54.921L296.494,55.298L296.841,55.677L297.188,56.056L297.532,56.436L297.876,56.817L298.219,57.2L298.56,57.583L298.9,57.967L299.24,58.352L299.578,58.739L299.915,59.126L300.25,59.514L300.585,59.904L300.919,60.294L301.251,60.686L301.582,61.078L301.913,61.471L302.242,61.866L302.569,62.261L302.896,62.658L303.222,63.055L303.546,63.453L303.87,63.853L304.191,64.252L304.512,64.654L304.832,65.056L305.151,65.46L305.468,65.863L305.784,66.268L306.099,66.675L306.413,67.082L306.726,67.49L307.037,67.899L307.347,68.309L307.657,68.72L307.964,69.131L308.271,69.544L308.576,69.958L308.881,70.373L309.184,70.789L309.485,71.205L309.786,71.622L310.086,72.041L310.384,72.46L310.68,72.88L310.976,73.302L311.271,73.724L311.564,74.147L311.856,74.571L312.147,74.996L312.437,75.421L312.725,75.848L313.012,76.276L313.298,76.705L313.583,77.134L313.866,77.564L314.148,77.995L314.429,78.427L314.709,78.86L314.987,79.294L315.264,79.728L315.54,80.164L315.814,80.601L316.088,81.038L316.36,81.476L316.631,81.916L316.9,82.356L317.168,82.796L317.435,83.239L317.7,83.681L317.965,84.124L318.228,84.569L318.489,85.013L318.75,85.46L319.009,85.907L319.266,86.354L319.523,86.803L319.779,87.253L320.032,87.703L320.285,88.153L320.536,88.605L320.786,89.058L321.035,89.512L321.282,89.966L321.528,90.421L321.772,90.877L322.016,91.334L322.258,91.792L322.498,92.25L322.737,92.709L322.975,93.17L323.212,93.631L323.447,94.092L323.681,94.555L323.913,95.018L324.145,95.482L324.374,95.947L324.603,96.413L324.83,96.879L325.056,97.347L325.28,97.815L325.503,98.283L325.724,98.752L325.945,99.223L326.163,99.694L326.381,100.166L326.597,100.639L326.811,101.112L327.024,101.586L327.236,102.061L327.447,102.537L327.655,103.013L327.863,103.49L328.069,103.969L328.274,104.447L328.478,104.927L328.68,105.407L328.88,105.887L329.079,106.369L329.277,106.852L329.473,107.334L329.668,107.818L329.861,108.303L330.053,108.788L330.244,109.274L330.433,109.76L330.62,110.248L330.807,110.736L330.991,111.225L331.174,111.715L331.356,112.204L331.536,112.695L331.715,113.187L331.893,113.679L332.069,114.172L332.243,114.666L332.416,115.16L332.588,115.655L332.758,116.151L332.926,116.647L333.093,117.144L333.259,117.642L333.423,118.14L333.585,118.639L333.747,119.139L333.906,119.64L334.064,120.14L334.221,120.642L334.376,121.144L334.529,121.646L334.681,122.15L334.832,122.655L334.981,123.159L335.129,123.665L335.274,124.171L335.419,124.678L335.562,125.185L335.703,125.693L335.843,126.201L335.981,126.711L336.118,127.221L336.253,127.731L336.387,128.242L336.519,128.754L336.65,129.266L336.779,129.779L336.906,130.292L337.032,130.806L337.156,131.321L337.279,131.836L337.4,132.352L337.52,132.868L337.638,133.385L337.754,133.902L337.869,134.42L337.982,134.939L338.094,135.459L338.204,135.978L338.312,136.498L338.419,137.019L338.525,137.54L338.628,138.063L338.73,138.585L338.831,139.108L338.93,139.632L339.027,140.156L339.123,140.681L339.217,141.206L339.309,141.731L339.4,142.258L339.489,142.785L339.577,143.312L339.663,143.84L339.747,144.369L339.829,144.897L339.91,145.426L339.99,145.957L340.068,146.487L340.144,147.017L340.218,147.548L340.291,148.081L340.362,148.613L340.431,149.146L340.499,149.679L340.565,150.213L340.63,150.747L340.692,151.281L340.753,151.817L340.813,152.353L340.871,152.888L340.927,153.425L340.981,153.962L341.034,154.5L341.085,155.037L341.134,155.576L341.182,156.115L341.228,156.654L341.272,157.193L341.314,157.734L341.355,158.274L341.394,158.815L341.432,159.357L341.467,159.899L341.501,160.44L341.534,160.983L341.564,161.526L341.593,162.07L341.62,162.614L341.645,163.157L341.669,163.703L341.691,164.248L341.711,164.793L341.729,165.339L341.746,165.885L341.761,166.431L341.774,166.979L341.786,167.526L341.795,168.073L341.803,168.622L341.809,169.17L341.814,169.718L341.816,170.268L341.817,170.817L341.817,171.342L341.814,171.867L341.81,172.392L341.804,172.916L341.797,173.439L341.788,173.964L341.778,174.487L341.766,175.011L341.752,175.534L341.737,176.058L341.72,176.581L341.702,177.103L341.682,177.626L341.66,178.148L341.637,178.671L341.612,179.193L341.586,179.715L341.558,180.236L341.528,180.757L341.497,181.278L341.464,181.8L341.43,182.321L341.394,182.84L341.356,183.361L341.317,183.881L341.277,184.401L341.235,184.92L341.191,185.44L341.145,185.959L341.098,186.477L341.05,186.996L341,187.514L340.948,188.032L340.895,188.549L340.84,189.067L340.784,189.584L340.726,190.101L340.667,190.617L340.606,191.134L340.543,191.65L340.479,192.165L340.413,192.681L340.346,193.196L340.277,193.711L340.207,194.225L340.135,194.74L340.061,195.253L339.987,195.766L339.91,196.28L339.832,196.793L339.752,197.306L339.671,197.817L339.588,198.33L339.504,198.841L339.418,199.352L339.331,199.863L339.242,200.374L339.152,200.884L339.06,201.394L338.966,201.903L338.872,202.412L338.775,202.921L338.677,203.43L338.577,203.937L338.476,204.445L338.374,204.952L338.27,205.459L338.164,205.966L338.057,206.472L337.948,206.978L337.838,207.483L337.726,207.987L337.613,208.492L337.498,208.996L337.382,209.5L337.264,210.003L337.145,210.506L337.024,211.008L336.902,211.51L336.778,212.012L336.653,212.514L336.526,213.014L336.398,213.514L336.268,214.014L336.137,214.514L336.004,215.013L335.87,215.511L335.734,216.009L335.597,216.507L335.459,217.004L335.318,217.5L335.177,217.997L335.033,218.493L334.889,218.988L334.743,219.482L334.595,219.977L334.446,220.471L334.295,220.965L334.143,221.457L333.99,221.949L333.835,222.442L333.678,222.933L333.52,223.423L333.361,223.914L333.2,224.404L333.038,224.894L332.874,225.383L332.709,225.871L332.542,226.358L332.374,226.846L332.204,227.333L332.033,227.818L331.86,228.304L331.686,228.79L331.511,229.274L331.334,229.758L331.155,230.242L330.976,230.725L330.794,231.207L330.612,231.689L330.427,232.17L330.242,232.651L330.055,233.132L329.866,233.611L329.676,234.09L329.485,234.568L329.292,235.047L329.098,235.524L328.902,236L328.705,236.477L328.506,236.952L328.306,237.427L328.105,237.902L327.902,238.375L327.698,238.848L327.492,239.321L327.285,239.792L327.076,240.264L326.866,240.735L326.655,241.204L326.442,241.674L326.227,242.143L326.012,242.611L325.795,243.078L325.576,243.545L325.356,244.011L325.135,244.477L324.912,244.942L324.688,245.406L324.462,245.87L324.235,246.333L324.007,246.795L323.777,247.257L323.546,247.718L323.313,248.178L323.08,248.637L322.844,249.096L322.607,249.555L322.369,250.012L322.13,250.469L321.888,250.926L321.646,251.381L321.403,251.836L321.157,252.29L320.911,252.743L320.663,253.196L320.413,253.648L320.163,254.098L319.911,254.549L319.657,255L319.403,255.448L319.146,255.897L318.889,256.344L318.63,256.791L318.369,257.237L318.108,257.682L317.845,258.127L317.58,258.571L317.314,259.014L317.047,259.457L316.779,259.899L316.509,260.339L316.238,260.779L315.965,261.219L315.691,261.657L315.416,262.095L315.139,262.532L314.861,262.968L314.581,263.404L314.3,263.838L314.019,264.272L313.735,264.705L313.45,265.138L313.164,265.569L312.877,265.999L312.588,266.429L312.297,266.858L312.006,267.287L311.713,267.714L311.419,268.14L311.123,268.566L310.826,268.991L310.528,269.415L310.228,269.838L309.927,270.261L309.625,270.683L309.322,271.103L309.017,271.523L308.71,271.942L308.403,272.36L308.094,272.777L307.784,273.194L307.472,273.609L307.159,274.024L306.845,274.438L306.53,274.851L306.213,275.263L305.895,275.674L305.575,276.084L305.255,276.493L304.932,276.902L304.609,277.31L304.284,277.717L303.958,278.122L303.631,278.527L303.302,278.931L302.973,279.334L302.89,279.434L344.093,320.637L345.899,318.831L349.613,316.586L353.755,315.295L358.087,315.033L362.355,315.815L366.312,317.596L369.728,320.272L492.456,443L441,494.456L441,494.456L318.272,371.728L315.596,368.312L313.815,364.355L313.033,360.087L313.295,355.755L314.586,351.613L316.831,347.899L318.637,346.093L277.222,304.678L276.902,304.932L276.493,305.255L276.084,305.575L275.674,305.895L275.263,306.213L274.851,306.529L274.438,306.845L274.024,307.159L273.609,307.472L273.194,307.784L272.777,308.094L272.36,308.403L271.942,308.71L271.523,309.017L271.103,309.322L270.683,309.625L270.261,309.927L269.838,310.228L269.415,310.528L268.991,310.826L268.566,311.123L268.14,311.419L267.714,311.713L267.286,312.006L266.858,312.297L266.429,312.587L265.999,312.876L265.569,313.164L265.137,313.45L264.705,313.735L264.272,314.018L263.838,314.301L263.404,314.581L262.968,314.861L262.532,315.139L262.095,315.416L261.657,315.691L261.219,315.965L260.779,316.238L260.339,316.509L259.898,316.779L259.457,317.047L259.014,317.315L258.571,317.58L258.127,317.845L257.683,318.108L257.237,318.369L256.791,318.63L256.344,318.889L255.897,319.146L255.448,319.403L254.999,319.657L254.549,319.911L254.099,320.163L253.648,320.414L253.196,320.663L252.743,320.911L252.29,321.157L251.836,321.403L251.381,321.646L250.925,321.889L250.469,322.13L250.013,322.369L249.555,322.607L249.097,322.844L248.638,323.079L248.178,323.314L247.718,323.546L247.257,323.777L246.795,324.007L246.333,324.235L245.87,324.462L245.406,324.688L244.942,324.912L244.477,325.135L244.012,325.356L243.545,325.576L243.078,325.795L242.611,326.012L242.143,326.227L241.674,326.442L241.204,326.655L240.735,326.866L240.264,327.076L239.792,327.285L239.321,327.492L238.848,327.697L238.375,327.902L237.901,328.105L237.427,328.306L236.952,328.506L236.476,328.705L236.001,328.902L235.524,329.097L235.046,329.292L234.569,329.485L234.09,329.676L233.611,329.866L233.132,330.055L232.651,330.242L232.171,330.427L231.689,330.612L231.208,330.794L230.725,330.976L230.242,331.156L229.758,331.334L229.274,331.511L228.79,331.686L228.304,331.86L227.819,332.033L227.333,332.204L226.846,332.374L226.358,332.542L225.871,332.709L225.382,332.874L224.893,333.038L224.404,333.2L223.914,333.361L223.424,333.52L222.933,333.678L222.442,333.835L221.949,333.99L221.457,334.143L220.964,334.295L220.471,334.446L219.977,334.595L219.483,334.743L218.988,334.889L218.492,335.033L217.997,335.177L217.501,335.318L217.004,335.458L216.507,335.597L216.009,335.734L215.511,335.87L215.013,336.004L214.514,336.137L214.014,336.268L213.514,336.398L213.014,336.526L212.513,336.653L212.012,336.778L211.51,336.902L211.008,337.024L210.506,337.145L210.003,337.264L209.5,337.382L208.996,337.498L208.492,337.613L207.987,337.726L207.483,337.838L206.978,337.948L206.472,338.057L205.966,338.164L205.459,338.27L204.952,338.374L204.445,338.476L203.937,338.577L203.429,338.677L202.921,338.775L202.412,338.871L201.903,338.966L201.394,339.06L200.884,339.152L200.374,339.242L199.863,339.331L199.352,339.418L198.841,339.504L198.33,339.588L197.818,339.671L197.305,339.752L196.793,339.832L196.28,339.91L195.767,339.986L195.253,340.061L194.739,340.135L194.225,340.207L193.711,340.277L193.196,340.346L192.681,340.413L192.165,340.479L191.65,340.543L191.134,340.606L190.617,340.667L190.101,340.726L189.584,340.784L189.067,340.84L188.549,340.895L188.032,340.948L187.514,341L186.996,341.05L186.477,341.098L185.959,341.145L185.44,341.191L184.92,341.235L184.401,341.277L183.881,341.317L183.361,341.356L182.84,341.394L182.32,341.43L181.8,341.464L181.279,341.497L180.758,341.528L180.236,341.558L179.715,341.586L179.193,341.612L178.671,341.637L178.148,341.66L177.626,341.682L177.103,341.702L176.581,341.72L176.058,341.737L175.534,341.752L175.011,341.766L174.487,341.778L173.964,341.788L173.439,341.797L172.915,341.804L172.391,341.81L171.867,341.814L171.342,341.816L170.817,341.817L170.268,341.816L169.719,341.814L169.17,341.809L168.622,341.803L168.073,341.795L167.526,341.786L166.979,341.774L166.431,341.761L165.885,341.746L165.339,341.729L164.793,341.711L164.247,341.691L163.702,341.669L163.158,341.645L162.614,341.62L162.07,341.593L161.526,341.564L160.983,341.534L160.441,341.501L159.898,341.467L159.357,341.432L158.815,341.394L158.274,341.355L157.734,341.314L157.194,341.272L156.654,341.228L156.115,341.182L155.576,341.134L155.037,341.085L154.5,341.034L153.962,340.981L153.425,340.927L152.889,340.871L152.352,340.813L151.817,340.753L151.282,340.692L150.747,340.63L150.213,340.565L149.679,340.499L149.146,340.431L148.613,340.362L148.081,340.291L147.549,340.218L147.017,340.144L146.487,340.068L145.956,339.99L145.427,339.91L144.897,339.829L144.368,339.747L143.84,339.663L143.312,339.577L142.785,339.489L142.258,339.4L141.732,339.309L141.206,339.217L140.681,339.123L140.156,339.027L139.632,338.93L139.108,338.831L138.585,338.73L138.063,338.628L137.541,338.525L137.019,338.419L136.498,338.312L135.978,338.204L135.459,338.094L134.939,337.982L134.42,337.869L133.902,337.754L133.385,337.638L132.868,337.52L132.352,337.4L131.836,337.279L131.321,337.156L130.806,337.032L130.292,336.906L129.779,336.778L129.266,336.649L128.754,336.519L128.242,336.387L127.731,336.253L127.22,336.118L126.711,335.981L126.202,335.843L125.693,335.703L125.185,335.562L124.678,335.419L124.171,335.274L123.665,335.128L123.16,334.981L122.655,334.832L122.15,334.681L121.647,334.529L121.144,334.376L120.642,334.221L120.14,334.064L119.639,333.906L119.139,333.747L118.639,333.585L118.14,333.423L117.642,333.259L117.144,333.093L116.647,332.926L116.151,332.758L115.655,332.588L115.16,332.416L114.666,332.243L114.172,332.069L113.679,331.893L113.187,331.715L112.695,331.536L112.205,331.356L111.714,331.174L111.225,330.991L110.736,330.806L110.248,330.62L109.761,330.433L109.274,330.244L108.788,330.053L108.303,329.861L107.818,329.668L107.334,329.473L106.851,329.277L106.369,329.079L105.888,328.88L105.407,328.68L104.927,328.478L104.447,328.274L103.968,328.069L103.491,327.863L103.013,327.656L102.537,327.447L102.061,327.236L101.586,327.024L101.112,326.811L100.639,326.597L100.166,326.381L99.694,326.163L99.223,325.944L98.753,325.724L98.283,325.503L97.814,325.28L97.346,325.055L96.879,324.83L96.413,324.603L95.947,324.374L95.482,324.145L95.018,323.914L94.555,323.681L94.092,323.447L93.631,323.212L93.17,322.975L92.709,322.737L92.25,322.498L91.792,322.258L91.334,322.016L90.878,321.772L90.421,321.528L89.966,321.282L89.512,321.035L89.058,320.786L88.605,320.536L88.154,320.285L87.702,320.032L87.252,319.778L86.803,319.523L86.354,319.267L85.907,319.009L85.46,318.75L85.014,318.489L84.569,318.228L84.124,317.965L83.681,317.7L83.238,317.435L82.796,317.168L82.356,316.9L81.916,316.63L81.476,316.36L81.038,316.088L80.601,315.814L80.164,315.54L79.729,315.264L79.294,314.987L78.86,314.709L78.427,314.429L77.995,314.148L77.564,313.866L77.133,313.583L76.704,313.298L76.276,313.012L75.848,312.725L75.421,312.437L74.996,312.147L74.571,311.856L74.147,311.564L73.724,311.271L73.302,310.976L72.881,310.681L72.46,310.384L72.041,310.085L71.623,309.786L71.205,309.485L70.788,309.184L70.373,308.881L69.958,308.576L69.544,308.271L69.131,307.964L68.72,307.656L68.309,307.347L67.899,307.037L67.49,306.726L67.082,306.413L66.675,306.099L66.269,305.784L65.863,305.468L65.459,305.151L65.056,304.832L64.654,304.512L64.253,304.191L63.852,303.869L63.453,303.546L63.055,303.222L62.658,302.896L62.261,302.57L61.866,302.242L61.471,301.913L61.078,301.583L60.685,301.251L60.294,300.919L59.904,300.585L59.514,300.25L59.126,299.915L58.739,299.578L58.353,299.24L57.967,298.901L57.583,298.56L57.199,298.218L56.817,297.876L56.436,297.532L56.056,297.187L55.677,296.841L55.298,296.494L54.921,296.146L54.545,295.797L54.17,295.446L53.796,295.095L53.423,294.742L53.051,294.389L52.681,294.034L52.311,293.678L51.942,293.321L51.574,292.963L51.208,292.604L50.842,292.244L50.478,291.883L50.114,291.52L49.752,291.157L49.391,290.792L49.031,290.427L48.671,290.06L48.313,289.692L47.957,289.324L47.601,288.954L47.246,288.583L46.892,288.211L46.54,287.838L46.188,287.464L45.838,287.089L45.488,286.713L45.14,286.336L44.793,285.958L44.447,285.579L44.102,285.199L43.759,284.817L43.416,284.435L43.075,284.052L42.734,283.667L42.395,283.282L42.057,282.896L41.72,282.508L41.384,282.12L41.049,281.731L40.716,281.34L40.383,280.949L40.052,280.557L39.722,280.163L39.393,279.769L39.065,279.374L38.738,278.977L38.413,278.58L38.088,278.182L37.765,277.782L37.443,277.382L37.122,276.981L36.803,276.578L36.484,276.175L36.167,275.771L35.85,275.366L35.536,274.96L35.222,274.553L34.909,274.145L34.598,273.736L34.287,273.326L33.978,272.915L33.67,272.503L33.364,272.09L33.058,271.677L32.754,271.262L32.451,270.846L32.149,270.43L31.849,270.012L31.549,269.594L31.251,269.174L30.954,268.754L30.658,268.333L30.364,267.911L30.07,267.488L29.778,267.064L29.487,266.639L29.198,266.213L28.91,265.787L28.622,265.359L28.337,264.93L28.052,264.501L27.769,264.071L27.487,263.64L27.206,263.207L26.926,262.775L26.648,262.341L26.37,261.906L26.095,261.47L25.82,261.034L25.547,260.596L25.275,260.158L25.004,259.719L24.735,259.279L24.467,258.838L24.2,258.396L23.934,257.954L23.67,257.51L23.407,257.066L23.145,256.621L22.885,256.175L22.626,255.728L22.368,255.28L22.111,254.832L21.856,254.382L21.602,253.932L21.35,253.481L21.099,253.029L20.849,252.576L20.6,252.123L20.353,251.668L20.107,251.213L19.862,250.757L19.619,250.3L19.377,249.843L19.136,249.384L18.897,248.925L18.659,248.465L18.423,248.004L18.187,247.542L17.954,247.08L17.721,246.616L17.49,246.152L17.26,245.688L17.032,245.222L16.805,244.755L16.579,244.288L16.355,243.82L16.132,243.351L15.91,242.882L15.69,242.411L15.471,241.94L15.254,241.468L15.038,240.996L14.823,240.523L14.61,240.048L14.398,239.573L14.188,239.098L13.979,238.621L13.771,238.144L13.565,237.666L13.36,237.187L13.157,236.708L12.955,236.228L12.755,235.747L12.555,235.265L12.358,234.783L12.162,234.3L11.967,233.816L11.773,233.332L11.581,232.847L11.391,232.36L11.202,231.874L11.014,231.387L10.828,230.899L10.643,230.41L10.46,229.92L10.278,229.43L10.098,228.939L9.919,228.448L9.742,227.955L9.566,227.462L9.391,226.969L9.218,226.475L9.047,225.979L8.877,225.484L8.708,224.987L8.541,224.491L8.376,223.993L8.212,223.494L8.049,222.995L7.888,222.496L7.728,221.996L7.57,221.495L7.414,220.993L7.259,220.491L7.105,219.988L6.953,219.484L6.803,218.98L6.654,218.475L6.506,217.97L6.36,217.464L6.216,216.957L6.073,216.45L5.931,215.942L5.792,215.433L5.653,214.924L5.517,214.414L5.381,213.904L5.248,213.393L5.116,212.881L4.985,212.369L4.856,211.856L4.729,211.342L4.603,210.828L4.478,210.314L4.356,209.799L4.235,209.283L4.115,208.767L3.997,208.25L3.881,207.732L3.766,207.214L3.652,206.695L3.541,206.176L3.431,205.656L3.322,205.136L3.215,204.615L3.11,204.094L3.006,203.572L2.904,203.049L2.804,202.526L2.705,202.003L2.607,201.478L2.512,200.954L2.418,200.429L2.325,199.903L2.235,199.377L2.145,198.85L2.058,198.322L1.972,197.795L1.888,197.266L1.805,196.738L1.724,196.208L1.645,195.678L1.567,195.148L1.491,194.617L1.417,194.086L1.344,193.554L1.273,193.022L1.203,192.489L1.136,191.955L1.069,191.422L1.005,190.888L0.942,190.353L0.881,189.818L0.822,189.282L0.764,188.746L0.708,188.209L0.654,187.672L0.601,187.135L0.55,186.597L0.501,186.059L0.453,185.52L0.407,184.981L0.363,184.441L0.32,183.901L0.279,183.36L0.24,182.819L0.203,182.278L0.167,181.736L0.133,181.194L0.101,180.651L0.07,180.108L0.042,179.565L0.015,179.021L-0.011,178.477L-0.034,177.932L-0.056,177.387L-0.076,176.842L-0.095,176.296L-0.111,175.75L-0.126,175.203L-0.14,174.656L-0.151,174.109L-0.161,173.561L-0.169,173.013L-0.175,172.465L-0.179,171.916L-0.182,171.367L-0.183,170.817L-0.182,170.268ZM35.818,171.251L35.82,171.685L35.824,172.118L35.828,172.55L35.835,172.983L35.842,173.415L35.851,173.847L35.862,174.278L35.874,174.709L35.887,175.14L35.901,175.57L35.917,176L35.934,176.43L35.953,176.859L35.973,177.288L35.994,177.717L36.017,178.145L36.041,178.573L36.066,179.001L36.093,179.428L36.121,179.855L36.151,180.281L36.182,180.707L36.214,181.133L36.247,181.558L36.282,181.983L36.318,182.408L36.356,182.832L36.395,183.256L36.435,183.679L36.476,184.103L36.519,184.525L36.563,184.948L36.609,185.37L36.655,185.791L36.703,186.212L36.753,186.633L36.804,187.054L36.856,187.474L36.909,187.893L36.964,188.313L37.019,188.731L37.077,189.15L37.135,189.568L37.195,189.986L37.256,190.403L37.319,190.82L37.382,191.236L37.447,191.652L37.514,192.068L37.581,192.483L37.65,192.898L37.72,193.312L37.792,193.727L37.864,194.14L37.938,194.553L38.014,194.966L38.09,195.378L38.168,195.79L38.247,196.201L38.327,196.612L38.409,197.023L38.492,197.433L38.576,197.843L38.661,198.252L38.748,198.661L38.836,199.07L38.925,199.478L39.015,199.885L39.107,200.292L39.199,200.699L39.293,201.105L39.389,201.511L39.485,201.916L39.583,202.321L39.682,202.725L39.782,203.129L39.884,203.532L39.987,203.936L40.091,204.338L40.196,204.74L40.302,205.142L40.41,205.543L40.519,205.944L40.629,206.344L40.74,206.744L40.852,207.143L40.966,207.542L41.081,207.94L41.197,208.338L41.314,208.735L41.433,209.132L41.552,209.528L41.673,209.924L41.795,210.32L41.918,210.714L42.043,211.109L42.169,211.503L42.295,211.896L42.423,212.289L42.553,212.681L42.683,213.073L42.815,213.465L42.947,213.856L43.081,214.246L43.216,214.636L43.352,215.025L43.49,215.414L43.628,215.802L43.768,216.19L43.909,216.577L44.051,216.964L44.194,217.35L44.339,217.736L44.484,218.121L44.631,218.505L44.779,218.89L44.928,219.273L45.078,219.656L45.229,220.039L45.382,220.42L45.535,220.802L45.69,221.183L45.846,221.563L46.003,221.943L46.161,222.322L46.32,222.7L46.48,223.078L46.642,223.456L46.805,223.833L46.968,224.209L47.133,224.585L47.299,224.96L47.466,225.335L47.634,225.709L47.804,226.082L47.974,226.455L48.146,226.827L48.318,227.199L48.492,227.57L48.667,227.941L48.843,228.311L49.02,228.68L49.198,229.049L49.377,229.417L49.557,229.785L49.739,230.152L49.921,230.518L50.105,230.884L50.29,231.249L50.475,231.614L50.662,231.978L50.85,232.341L51.039,232.704L51.229,233.066L51.42,233.428L51.612,233.789L51.806,234.149L52,234.509L52.195,234.868L52.392,235.226L52.589,235.584L52.788,235.941L52.987,236.297L53.188,236.653L53.39,237.008L53.592,237.363L53.796,237.717L54.001,238.07L54.207,238.423L54.414,238.775L54.622,239.126L54.831,239.477L55.041,239.827L55.252,240.176L55.464,240.525L55.677,240.873L55.891,241.22L56.106,241.567L56.322,241.913L56.54,242.258L56.758,242.603L56.977,242.947L57.197,243.29L57.419,243.633L57.641,243.974L57.864,244.316L58.088,244.656L58.314,244.996L58.54,245.335L58.767,245.673L58.995,246.011L59.225,246.348L59.455,246.685L59.686,247.02L59.918,247.355L60.151,247.689L60.386,248.023L60.621,248.356L60.857,248.687L61.094,249.019L61.332,249.35L61.571,249.679L61.811,250.009L62.052,250.337L62.294,250.665L62.537,250.992L62.781,251.318L63.025,251.643L63.271,251.968L63.518,252.292L63.766,252.615L64.014,252.938L64.264,253.259L64.514,253.581L64.766,253.901L65.018,254.22L65.271,254.539L65.526,254.857L65.781,255.174L66.037,255.491L66.294,255.806L66.552,256.121L66.811,256.435L67.071,256.749L67.332,257.061L67.593,257.373L67.856,257.684L68.119,257.994L68.383,258.303L68.649,258.612L68.915,258.92L69.182,259.227L69.45,259.533L69.719,259.839L69.989,260.143L70.26,260.447L70.531,260.75L70.804,261.052L71.077,261.354L71.351,261.654L71.627,261.954L71.903,262.253L72.18,262.551L72.457,262.849L72.736,263.145L73.016,263.441L73.296,263.736L73.577,264.03L73.859,264.323L74.142,264.615L74.426,264.907L74.711,265.197L74.997,265.487L75.283,265.776L75.57,266.064L75.858,266.352L76.147,266.638L76.437,266.924L76.728,267.208L77.019,267.492L77.312,267.775L77.605,268.057L77.899,268.339L78.194,268.619L78.489,268.899L78.786,269.177L79.083,269.455L79.381,269.732L79.68,270.008L79.98,270.283L80.281,270.557L80.582,270.831L80.884,271.103L81.188,271.375L81.491,271.646L81.796,271.915L82.101,272.184L82.408,272.452L82.715,272.719L83.023,272.986L83.331,273.251L83.64,273.515L83.951,273.779L84.262,274.041L84.573,274.303L84.886,274.564L85.199,274.824L85.513,275.082L85.828,275.341L86.144,275.598L86.46,275.854L86.778,276.109L87.096,276.363L87.414,276.617L87.734,276.869L88.054,277.12L88.375,277.371L88.697,277.62L89.019,277.869L89.342,278.117L89.667,278.364L89.991,278.609L90.317,278.854L90.643,279.098L90.97,279.341L91.298,279.583L91.626,279.823L91.955,280.064L92.285,280.303L92.616,280.541L92.947,280.778L93.279,281.014L93.612,281.249L93.945,281.483L94.28,281.716L94.614,281.949L94.95,282.18L95.286,282.41L95.623,282.639L95.961,282.868L96.299,283.095L96.639,283.321L96.979,283.546L97.319,283.771L97.66,283.994L98.002,284.216L98.345,284.437L98.688,284.658L99.032,284.877L99.376,285.095L99.722,285.312L100.068,285.528L100.415,285.743L100.762,285.958L101.11,286.171L101.459,286.383L101.808,286.594L102.158,286.804L102.509,287.013L102.86,287.221L103.212,287.428L103.564,287.634L103.918,287.838L104.272,288.042L104.626,288.245L104.981,288.447L105.337,288.647L105.694,288.847L106.051,289.045L106.408,289.243L106.767,289.439L107.126,289.635L107.486,289.829L107.846,290.022L108.207,290.215L108.568,290.406L108.93,290.596L109.293,290.785L109.656,290.972L110.021,291.159L110.385,291.345L110.75,291.53L111.116,291.713L111.483,291.896L111.85,292.077L112.217,292.257L112.585,292.437L112.954,292.615L113.324,292.792L113.694,292.968L114.064,293.143L114.435,293.316L114.807,293.489L115.18,293.661L115.552,293.831L115.926,294L116.3,294.168L116.674,294.335L117.05,294.502L117.426,294.666L117.802,294.83L118.179,294.993L118.556,295.154L118.934,295.314L119.313,295.474L119.692,295.632L120.072,295.789L120.452,295.945L120.833,296.099L121.214,296.253L121.596,296.405L121.979,296.557L122.361,296.707L122.745,296.856L123.129,297.004L123.513,297.15L123.899,297.296L124.284,297.44L124.67,297.583L125.058,297.726L125.445,297.866L125.832,298.006L126.221,298.145L126.609,298.282L126.999,298.418L127.388,298.553L127.779,298.687L128.17,298.82L128.561,298.952L128.953,299.082L129.346,299.211L129.738,299.339L130.132,299.466L130.526,299.592L130.92,299.716L131.315,299.839L131.71,299.961L132.106,300.082L132.503,300.202L132.899,300.32L133.297,300.438L133.695,300.554L134.093,300.669L134.492,300.782L134.891,300.895L135.291,301.006L135.691,301.116L136.092,301.225L136.493,301.333L136.894,301.439L137.296,301.544L137.699,301.648L138.102,301.751L138.505,301.852L138.909,301.952L139.313,302.051L139.719,302.149L140.124,302.246L140.529,302.341L140.936,302.435L141.342,302.528L141.75,302.62L142.157,302.71L142.565,302.799L142.973,302.887L143.382,302.974L143.792,303.059L144.201,303.143L144.612,303.226L145.022,303.307L145.433,303.388L145.845,303.467L146.256,303.544L146.669,303.621L147.082,303.696L147.495,303.77L147.908,303.843L148.322,303.914L148.736,303.984L149.151,304.053L149.567,304.121L149.982,304.187L150.398,304.252L150.815,304.316L151.232,304.378L151.649,304.439L152.067,304.499L152.485,304.558L152.903,304.615L153.322,304.671L153.741,304.726L154.161,304.779L154.581,304.831L155.001,304.882L155.422,304.931L155.843,304.979L156.265,305.026L156.687,305.072L157.109,305.116L157.532,305.158L157.955,305.2L158.379,305.24L158.803,305.279L159.227,305.316L159.651,305.353L160.076,305.387L160.502,305.421L160.928,305.453L161.354,305.484L161.78,305.513L162.207,305.541L162.634,305.568L163.062,305.594L163.489,305.618L163.918,305.64L164.346,305.662L164.775,305.682L165.205,305.7L165.634,305.717L166.064,305.733L166.495,305.748L166.925,305.761L167.357,305.773L167.788,305.783L168.219,305.792L168.652,305.8L169.084,305.806L169.517,305.811L169.95,305.814L170.384,305.817L170.818,305.817L171.232,305.817L171.646,305.815L172.06,305.812L172.474,305.807L172.888,305.801L173.301,305.794L173.715,305.786L174.128,305.777L174.541,305.766L174.954,305.754L175.367,305.741L175.78,305.726L176.192,305.71L176.605,305.693L177.017,305.675L177.429,305.655L177.841,305.634L178.252,305.612L178.664,305.589L179.075,305.564L179.486,305.539L179.897,305.511L180.309,305.483L180.719,305.453L181.129,305.423L181.539,305.391L181.95,305.357L182.359,305.323L182.769,305.287L183.179,305.25L183.588,305.212L183.997,305.172L184.406,305.131L184.814,305.089L185.223,305.046L185.631,305.002L186.039,304.956L186.447,304.909L186.854,304.861L187.261,304.811L187.668,304.761L188.075,304.709L188.482,304.656L188.888,304.602L189.294,304.546L189.7,304.489L190.106,304.431L190.511,304.372L190.916,304.312L191.321,304.25L191.726,304.187L192.13,304.123L192.534,304.058L192.938,303.991L193.341,303.924L193.745,303.855L194.148,303.785L194.551,303.713L194.953,303.641L195.355,303.567L195.757,303.492L196.159,303.416L196.56,303.338L196.961,303.26L197.362,303.18L197.762,303.099L198.163,303.017L198.562,302.933L198.961,302.849L199.361,302.763L199.76,302.676L200.159,302.588L200.557,302.499L200.955,302.408L201.352,302.316L201.749,302.223L202.147,302.129L202.543,302.034L202.94,301.937L203.336,301.84L203.731,301.741L204.127,301.641L204.522,301.539L204.916,301.437L205.311,301.333L205.705,301.228L206.098,301.122L206.492,301.015L206.884,300.907L207.277,300.797L207.669,300.687L208.061,300.575L208.453,300.462L208.844,300.348L209.234,300.232L209.625,300.116L210.015,299.998L210.404,299.879L210.793,299.759L211.182,299.638L211.57,299.515L211.959,299.392L212.346,299.267L212.733,299.141L213.12,299.014L213.507,298.886L213.893,298.757L214.278,298.626L214.664,298.494L215.048,298.362L215.433,298.228L215.817,298.093L216.2,297.956L216.583,297.819L216.966,297.68L217.348,297.54L217.73,297.4L218.111,297.258L218.492,297.114L218.873,296.97L219.253,296.825L219.633,296.678L220.012,296.53L220.391,296.381L220.769,296.231L221.147,296.08L221.524,295.928L221.901,295.775L222.277,295.62L222.653,295.464L223.029,295.307L223.404,295.15L223.779,294.99L224.153,294.83L224.526,294.669L224.899,294.507L225.272,294.343L225.644,294.178L226.016,294.012L226.387,293.845L226.758,293.677L227.128,293.508L227.498,293.338L227.867,293.166L228.235,292.994L228.603,292.82L228.971,292.645L229.338,292.469L229.705,292.293L230.071,292.114L230.436,291.935L230.802,291.755L231.166,291.573L231.53,291.391L231.894,291.207L232.256,291.022L232.619,290.837L232.981,290.649L233.342,290.462L233.703,290.272L234.063,290.082L234.422,289.891L234.782,289.698L235.14,289.505L235.498,289.31L235.856,289.114L236.212,288.917L236.569,288.719L236.924,288.52L237.279,288.32L237.634,288.119L237.988,287.917L238.342,287.713L238.694,287.509L239.046,287.304L239.398,287.097L239.749,286.889L240.1,286.68L240.45,286.471L240.798,286.26L241.148,286.048L241.496,285.834L241.843,285.62L242.19,285.405L242.536,285.189L242.882,284.971L243.227,284.753L243.571,284.533L243.915,284.313L244.258,284.091L244.6,283.868L244.942,283.644L245.283,283.42L245.624,283.194L245.964,282.967L246.303,282.739L246.642,282.51L246.98,282.28L247.317,282.048L247.654,281.816L247.99,281.583L248.325,281.349L248.66,281.113L248.995,280.876L249.328,280.639L249.66,280.4L249.993,280.161L250.324,279.92L250.655,279.678L250.985,279.435L251.314,279.192L251.643,278.947L251.971,278.701L252.298,278.454L252.625,278.206L252.951,277.957L253.276,277.707L253.601,277.456L253.924,277.204L254.248,276.95L254.57,276.696L254.892,276.441L255.213,276.185L255.533,275.927L255.853,275.669L256.172,275.41L256.49,275.149L256.807,274.888L257.124,274.625L257.44,274.362L257.755,274.097L258.07,273.832L258.383,273.565L258.696,273.298L259.008,273.029L259.32,272.76L259.631,272.489L259.941,272.217L260.25,271.945L260.558,271.671L260.866,271.396L261.174,271.12L261.48,270.844L261.785,270.566L262.09,270.287L262.394,270.008L262.697,269.727L262.999,269.445L263.301,269.162L263.602,268.878L263.902,268.594L264.201,268.308L264.5,268.021L264.797,267.734L265.094,267.445L267.023,265.557L267.136,265.41L267.445,265.094L267.733,264.797L268.021,264.5L268.308,264.201L268.594,263.902L268.879,263.602L269.162,263.301L269.445,263L269.727,262.697L270.008,262.394L270.287,262.09L270.566,261.785L270.844,261.48L271.121,261.173L271.396,260.866L271.671,260.559L271.944,260.25L272.217,259.941L272.489,259.631L272.759,259.32L273.029,259.009L273.298,258.696L273.565,258.383L273.832,258.069L274.097,257.755L274.362,257.44L274.626,257.124L274.888,256.807L275.149,256.49L275.41,256.172L275.669,255.853L275.927,255.533L276.185,255.213L276.441,254.892L276.696,254.57L276.95,254.248L277.203,253.925L277.456,253.601L277.707,253.276L277.957,252.951L278.206,252.625L278.454,252.298L278.701,251.971L278.947,251.643L279.192,251.314L279.436,250.985L279.678,250.655L279.92,250.324L280.161,249.993L280.4,249.66L280.639,249.328L280.876,248.994L281.113,248.66L281.348,248.325L281.583,247.99L281.816,247.654L282.049,247.317L282.28,246.98L282.51,246.642L282.739,246.304L282.967,245.964L283.194,245.624L283.42,245.283L283.645,244.942L283.868,244.6L284.091,244.258L284.313,243.915L284.534,243.571L284.753,243.227L284.971,242.882L285.189,242.536L285.405,242.19L285.62,241.843L285.835,241.495L286.048,241.147L286.26,240.799L286.471,240.449L286.68,240.1L286.889,239.749L287.097,239.399L287.304,239.046L287.509,238.694L287.713,238.342L287.917,237.988L288.119,237.634L288.32,237.279L288.52,236.924L288.719,236.569L288.918,236.212L289.114,235.856L289.31,235.498L289.505,235.14L289.698,234.782L289.891,234.422L290.082,234.063L290.272,233.703L290.461,233.342L290.65,232.98L290.836,232.619L291.022,232.257L291.207,231.893L291.391,231.53L291.573,231.166L291.755,230.802L291.935,230.437L292.114,230.071L292.293,229.705L292.469,229.338L292.645,228.971L292.82,228.604L292.994,228.235L293.166,227.867L293.338,227.498L293.508,227.128L293.677,226.757L293.845,226.387L294.012,226.016L294.178,225.644L294.343,225.272L294.506,224.899L294.669,224.526L294.83,224.152L294.991,223.778L295.149,223.404L295.308,223.029L295.464,222.653L295.62,222.278L295.775,221.901L295.928,221.524L296.08,221.147L296.231,220.769L296.382,220.39L296.53,220.012L296.678,219.633L296.825,219.253L296.97,218.873L297.114,218.492L297.258,218.111L297.4,217.73L297.54,217.349L297.68,216.966L297.819,216.583L297.956,216.2L298.092,215.817L298.228,215.433L298.362,215.048L298.494,214.663L298.626,214.278L298.757,213.892L298.886,213.507L299.014,213.12L299.141,212.734L299.267,212.346L299.392,211.958L299.515,211.57L299.638,211.182L299.759,210.793L299.879,210.404L299.998,210.015L300.116,209.625L300.232,209.235L300.348,208.844L300.462,208.452L300.575,208.061L300.687,207.67L300.797,207.277L300.907,206.884L301.015,206.491L301.122,206.098L301.228,205.705L301.333,205.31L301.437,204.916L301.539,204.522L301.641,204.127L301.741,203.731L301.84,203.336L301.937,202.94L302.034,202.543L302.129,202.147L302.223,201.75L302.316,201.352L302.408,200.955L302.499,200.557L302.588,200.159L302.676,199.76L302.763,199.361L302.849,198.962L302.934,198.562L303.017,198.162L303.099,197.762L303.18,197.362L303.26,196.961L303.338,196.56L303.416,196.158L303.492,195.757L303.567,195.355L303.641,194.953L303.713,194.55L303.785,194.147L303.855,193.745L303.924,193.342L303.991,192.938L304.058,192.534L304.123,192.13L304.187,191.725L304.25,191.321L304.312,190.916L304.372,190.512L304.431,190.106L304.489,189.7L304.546,189.294L304.602,188.888L304.656,188.481L304.709,188.075L304.761,187.669L304.811,187.261L304.861,186.854L304.909,186.447L304.956,186.039L305.002,185.631L305.046,185.223L305.089,184.815L305.131,184.406L305.172,183.996L305.212,183.588L305.25,183.179L305.287,182.769L305.323,182.359L305.357,181.95L305.391,181.539L305.423,181.129L305.453,180.719L305.483,180.309L305.511,179.897L305.539,179.486L305.564,179.076L305.589,178.664L305.612,178.252L305.634,177.841L305.655,177.428L305.675,177.017L305.693,176.605L305.71,176.192L305.726,175.78L305.741,175.367L305.754,174.954L305.766,174.541L305.777,174.128L305.786,173.715L305.794,173.301L305.801,172.888L305.807,172.473L305.812,172.059L305.815,171.646L305.817,171.232L305.817,170.818L305.817,170.384L305.814,169.95L305.811,169.516L305.806,169.084L305.8,168.652L305.792,168.219L305.783,167.788L305.773,167.357L305.761,166.925L305.748,166.495L305.733,166.065L305.717,165.634L305.7,165.204L305.682,164.776L305.662,164.346L305.64,163.917L305.618,163.489L305.594,163.062L305.568,162.634L305.541,162.206L305.513,161.78L305.484,161.354L305.453,160.928L305.421,160.502L305.387,160.077L305.353,159.652L305.316,159.226L305.279,158.802L305.24,158.379L305.2,157.955L305.158,157.532L305.116,157.109L305.071,156.687L305.026,156.265L304.979,155.843L304.931,155.423L304.882,155.001L304.831,154.581L304.779,154.161L304.726,153.741L304.671,153.321L304.615,152.903L304.558,152.485L304.499,152.067L304.439,151.649L304.378,151.231L304.316,150.815L304.252,150.399L304.187,149.982L304.121,149.566L304.053,149.151L303.984,148.736L303.914,148.322L303.843,147.908L303.77,147.495L303.696,147.081L303.621,146.669L303.545,146.257L303.467,145.845L303.388,145.433L303.307,145.022L303.226,144.612L303.143,144.201L303.059,143.792L302.974,143.383L302.887,142.973L302.799,142.565L302.71,142.157L302.62,141.75L302.528,141.342L302.435,140.936L302.341,140.53L302.246,140.124L302.149,139.719L302.051,139.314L301.952,138.909L301.852,138.505L301.751,138.102L301.648,137.699L301.544,137.297L301.439,136.895L301.332,136.492L301.225,136.092L301.116,135.691L301.006,135.29L300.895,134.89L300.782,134.492L300.669,134.093L300.554,133.694L300.438,133.297L300.32,132.899L300.202,132.503L300.082,132.107L299.961,131.71L299.839,131.315L299.716,130.92L299.591,130.525L299.466,130.131L299.339,129.739L299.211,129.346L299.082,128.953L298.952,128.562L298.82,128.17L298.687,127.779L298.553,127.389L298.418,126.999L298.282,126.61L298.145,126.221L298.006,125.832L297.866,125.445L297.725,125.057L297.583,124.671L297.44,124.284L297.296,123.899L297.15,123.513L297.003,123.129L296.856,122.745L296.707,122.362L296.556,121.978L296.405,121.596L296.253,121.214L296.099,120.833L295.945,120.452L295.789,120.072L295.632,119.692L295.474,119.312L295.314,118.934L295.154,118.556L294.993,118.179L294.83,117.802L294.666,117.426L294.501,117.049L294.335,116.674L294.169,116.3L294,115.926L293.831,115.552L293.66,115.179L293.489,114.807L293.316,114.435L293.143,114.064L292.968,113.694L292.792,113.323L292.615,112.954L292.437,112.586L292.257,112.217L292.077,111.849L291.896,111.483L291.713,111.116L291.53,110.75L291.345,110.385L291.159,110.021L290.972,109.656L290.785,109.293L290.595,108.93L290.405,108.568L290.214,108.207L290.022,107.846L289.829,107.486L289.635,107.126L289.439,106.767L289.243,106.409L289.045,106.051L288.847,105.694L288.647,105.337L288.446,104.981L288.245,104.626L288.042,104.272L287.838,103.918L287.633,103.564L287.428,103.212L287.221,102.86L287.013,102.509L286.804,102.158L286.594,101.807L286.383,101.459L286.171,101.11L285.957,100.762L285.743,100.415L285.528,100.068L285.312,99.722L285.095,99.377L284.877,99.032L284.657,98.688L284.437,98.344L284.216,98.002L283.994,97.661L283.771,97.319L283.546,96.979L283.321,96.638L283.095,96.299L282.868,95.961L282.639,95.623L282.41,95.286L282.18,94.95L281.949,94.614L281.716,94.279L281.483,93.945L281.249,93.612L281.014,93.279L280.777,92.946L280.541,92.616L280.303,92.285L280.063,91.955L279.824,91.626L279.583,91.298L279.341,90.97L279.098,90.643L278.854,90.316L278.609,89.991L278.364,89.667L278.117,89.342L277.869,89.019L277.62,88.697L277.371,88.375L277.121,88.054L276.869,87.734L276.616,87.414L276.363,87.096L276.109,86.778L275.854,86.46L275.598,86.144L275.34,85.828L275.082,85.513L274.824,85.2L274.564,84.886L274.303,84.574L274.042,84.262L273.779,83.951L273.515,83.64L273.251,83.331L272.986,83.023L272.719,82.714L272.452,82.408L272.184,82.101L271.915,81.796L271.646,81.491L271.375,81.187L271.103,80.884L270.831,80.582L270.557,80.28L270.283,79.98L270.008,79.681L269.732,79.381L269.455,79.083L269.177,78.786L268.899,78.489L268.619,78.194L268.339,77.899L268.057,77.605L267.775,77.312L267.492,77.019L267.208,76.728L266.924,76.437L266.638,76.148L266.352,75.858L266.064,75.57L265.776,75.283L265.487,74.996L265.197,74.711L264.907,74.426L264.615,74.142L264.323,73.859L264.03,73.577L263.736,73.296L263.441,73.015L263.145,72.736L262.849,72.457L262.551,72.179L262.253,71.903L261.954,71.627L261.654,71.351L261.354,71.077L261.053,70.804L260.75,70.531L260.447,70.26L260.143,69.989L259.839,69.719L259.533,69.45L259.227,69.182L258.92,68.915L258.612,68.649L258.303,68.383L257.994,68.119L257.683,67.855L257.373,67.593L257.062,67.332L256.748,67.071L256.435,66.811L256.121,66.552L255.806,66.294L255.491,66.037L255.174,65.781L254.857,65.526L254.539,65.271L254.22,65.018L253.901,64.766L253.581,64.514L253.259,64.264L252.938,64.014L252.615,63.766L252.292,63.518L251.968,63.271L251.643,63.025L251.318,62.78L250.992,62.537L250.665,62.294L250.337,62.052L250.008,61.811L249.679,61.571L249.35,61.332L249.019,61.094L248.687,60.857L248.355,60.62L248.023,60.385L247.689,60.151L247.355,59.918L247.02,59.686L246.685,59.455L246.348,59.224L246.011,58.995L245.674,58.767L245.335,58.54L244.996,58.313L244.656,58.088L244.316,57.864L243.974,57.641L243.632,57.418L243.29,57.197L242.947,56.977L242.602,56.758L242.258,56.54L241.913,56.322L241.567,56.107L241.22,55.891L240.872,55.677L240.525,55.464L240.176,55.252L239.827,55.041L239.477,54.831L239.126,54.622L238.775,54.414L238.423,54.207L238.07,54.001L237.717,53.796L237.363,53.593L237.009,53.39L236.653,53.188L236.297,52.987L235.941,52.788L235.584,52.589L235.226,52.391L234.868,52.195L234.509,52L234.149,51.805L233.789,51.612L233.428,51.42L233.066,51.229L232.704,51.039L232.342,50.85L231.978,50.662L231.614,50.475L231.25,50.29L230.885,50.105L230.519,49.921L230.152,49.739L229.785,49.557L229.418,49.377L229.049,49.198L228.68,49.02L228.311,48.843L227.941,48.667L227.571,48.492L227.199,48.318L226.827,48.146L226.455,47.974L226.082,47.804L225.709,47.634L225.335,47.466L224.96,47.299L224.585,47.133L224.209,46.968L223.833,46.805L223.455,46.642L223.078,46.48L222.7,46.32L222.322,46.161L221.943,46.003L221.563,45.846L221.183,45.69L220.802,45.535L220.421,45.382L220.039,45.229L219.656,45.078L219.273,44.928L218.89,44.779L218.505,44.631L218.12,44.484L217.736,44.339L217.35,44.194L216.964,44.051L216.577,43.909L216.19,43.768L215.802,43.628L215.414,43.49L215.025,43.352L214.636,43.216L214.246,43.081L213.855,42.947L213.465,42.815L213.074,42.683L212.681,42.552L212.289,42.423L211.896,42.295L211.503,42.168L211.109,42.043L210.714,41.918L210.32,41.795L209.924,41.673L209.529,41.552L209.132,41.433L208.735,41.314L208.338,41.197L207.94,41.081L207.542,40.966L207.143,40.852L206.743,40.74L206.344,40.629L205.944,40.519L205.543,40.41L205.142,40.302L204.741,40.196L204.338,40.091L203.936,39.987L203.532,39.884L203.129,39.782L202.725,39.682L202.321,39.583L201.916,39.485L201.511,39.389L201.105,39.293L200.699,39.199L200.292,39.107L199.885,39.015L199.478,38.925L199.07,38.836L198.661,38.748L198.253,38.661L197.843,38.576L197.433,38.492L197.023,38.409L196.612,38.327L196.201,38.247L195.79,38.168L195.379,38.09L194.966,38.014L194.553,37.938L194.14,37.864L193.727,37.792L193.312,37.72L192.898,37.65L192.483,37.581L192.067,37.514L191.653,37.447L191.237,37.382L190.82,37.319L190.403,37.256L189.986,37.195L189.568,37.135L189.15,37.077L188.732,37.019L188.313,36.963L187.893,36.909L187.473,36.855L187.054,36.804L186.634,36.753L186.213,36.703L185.791,36.655L185.369,36.609L184.947,36.563L184.525,36.519L184.103,36.476L183.679,36.435L183.256,36.395L182.832,36.356L182.408,36.318L181.983,36.282L181.559,36.247L181.133,36.214L180.707,36.182L180.281,36.151L179.854,36.121L179.427,36.093L179.001,36.066L178.573,36.041L178.145,36.017L177.717,35.994L177.288,35.973L176.859,35.953L176.43,35.934L176,35.917L175.57,35.901L175.14,35.887L174.709,35.873L174.278,35.862L173.847,35.851L173.415,35.842L172.983,35.835L172.55,35.828L172.117,35.824L171.685,35.82L171.251,35.818L170.817,35.817L170.384,35.818L169.95,35.82L169.517,35.824L169.084,35.828L168.652,35.835L168.219,35.842L167.788,35.851L167.357,35.862L166.926,35.873L166.495,35.887L166.064,35.901L165.635,35.917L165.204,35.934L164.775,35.953L164.347,35.973L163.918,35.994L163.489,36.017L163.061,36.041L162.634,36.066L162.207,36.093L161.78,36.121L161.353,36.151L160.928,36.182L160.502,36.214L160.076,36.247L159.652,36.282L159.227,36.318L158.802,36.356L158.378,36.395L157.955,36.435L157.532,36.476L157.11,36.519L156.687,36.563L156.265,36.609L155.844,36.655L155.422,36.703L155.001,36.753L154.581,36.804L154.161,36.855L153.741,36.909L153.322,36.963L152.903,37.019L152.484,37.077L152.067,37.135L151.649,37.195L151.232,37.256L150.815,37.319L150.398,37.382L149.982,37.447L149.567,37.514L149.151,37.581L148.736,37.65L148.323,37.72L147.908,37.792L147.494,37.864L147.082,37.938L146.669,38.014L146.256,38.09L145.845,38.168L145.434,38.247L145.022,38.327L144.611,38.409L144.201,38.492L143.792,38.576L143.382,38.661L142.974,38.748L142.565,38.836L142.157,38.925L141.75,39.015L141.342,39.107L140.935,39.199L140.529,39.293L140.124,39.389L139.719,39.485L139.314,39.583L138.909,39.682L138.505,39.782L138.102,39.884L137.699,39.987L137.296,40.091L136.894,40.196L136.493,40.302L136.092,40.41L135.691,40.519L135.291,40.629L134.891,40.74L134.492,40.852L134.093,40.966L133.695,41.081L133.297,41.197L132.899,41.314L132.503,41.433L132.106,41.552L131.711,41.673L131.315,41.795L130.92,41.918L130.526,42.043L130.132,42.168L129.738,42.295L129.346,42.423L128.954,42.552L128.561,42.683L128.17,42.815L127.779,42.947L127.388,43.081L126.999,43.216L126.61,43.352L126.22,43.49L125.832,43.628L125.444,43.768L125.057,43.909L124.671,44.051L124.284,44.194L123.899,44.339L123.514,44.484L123.129,44.631L122.745,44.779L122.361,44.928L121.979,45.078L121.596,45.229L121.214,45.382L120.833,45.535L120.452,45.69L120.072,45.846L119.692,46.003L119.313,46.161L118.934,46.32L118.556,46.48L118.179,46.642L117.802,46.805L117.425,46.968L117.05,47.133L116.674,47.299L116.3,47.466L115.926,47.634L115.553,47.804L115.18,47.974L114.807,48.146L114.435,48.318L114.064,48.492L113.694,48.667L113.324,48.843L112.954,49.02L112.585,49.198L112.217,49.377L111.85,49.557L111.483,49.739L111.116,49.921L110.75,50.105L110.385,50.29L110.021,50.475L109.656,50.662L109.293,50.85L108.93,51.039L108.568,51.229L108.207,51.42L107.846,51.612L107.486,51.805L107.126,52L106.767,52.195L106.409,52.391L106.051,52.589L105.694,52.788L105.337,52.987L104.981,53.188L104.626,53.39L104.271,53.593L103.918,53.796L103.564,54.001L103.212,54.207L102.86,54.414L102.509,54.622L102.158,54.831L101.808,55.041L101.458,55.252L101.11,55.464L100.762,55.677L100.414,55.891L100.067,56.107L99.722,56.322L99.377,56.54L99.032,56.758L98.688,56.977L98.344,57.197L98.002,57.418L97.66,57.641L97.319,57.864L96.979,58.088L96.639,58.313L96.299,58.54L95.961,58.767L95.623,58.995L95.286,59.225L94.95,59.455L94.615,59.686L94.279,59.918L93.945,60.151L93.612,60.385L93.279,60.621L92.947,60.857L92.615,61.094L92.285,61.332L91.955,61.571L91.626,61.811L91.297,62.052L90.97,62.294L90.643,62.537L90.317,62.781L89.991,63.025L89.666,63.271L89.342,63.518L89.019,63.766L88.697,64.014L88.375,64.264L88.054,64.514L87.734,64.766L87.415,65.018L87.096,65.271L86.778,65.526L86.46,65.781L86.144,66.037L85.829,66.294L85.513,66.552L85.199,66.811L84.886,67.071L84.573,67.332L84.262,67.593L83.951,67.855L83.64,68.119L83.331,68.384L83.022,68.649L82.715,68.915L82.408,69.182L82.101,69.451L81.796,69.719L81.491,69.989L81.188,70.26L80.885,70.531L80.582,70.804L80.281,71.077L79.98,71.351L79.68,71.627L79.381,71.903L79.083,72.179L78.786,72.457L78.489,72.736L78.194,73.015L77.899,73.296L77.605,73.577L77.312,73.859L77.019,74.142L76.728,74.426L76.437,74.711L76.147,74.997L75.858,75.283L75.57,75.57L75.283,75.858L74.996,76.148L74.711,76.437L74.426,76.728L74.142,77.019L73.859,77.312L73.577,77.605L73.296,77.899L73.016,78.194L72.736,78.489L72.457,78.786L72.18,79.083L71.903,79.381L71.626,79.681L71.351,79.98L71.077,80.281L70.804,80.582L70.531,80.885L70.26,81.187L69.989,81.491L69.719,81.796L69.45,82.101L69.182,82.408L68.915,82.714L68.649,83.023L68.383,83.331L68.119,83.64L67.856,83.951L67.593,84.262L67.331,84.574L67.071,84.886L66.811,85.2L66.552,85.513L66.294,85.828L66.037,86.144L65.781,86.46L65.526,86.778L65.271,87.096L65.018,87.414L64.766,87.734L64.514,88.054L64.264,88.375L64.014,88.697L63.766,89.019L63.518,89.342L63.271,89.667L63.025,89.991L62.781,90.317L62.537,90.643L62.294,90.97L62.052,91.298L61.811,91.626L61.571,91.955L61.332,92.285L61.094,92.616L60.857,92.947L60.621,93.279L60.385,93.612L60.151,93.945L59.918,94.279L59.686,94.615L59.455,94.95L59.225,95.286L58.995,95.623L58.767,95.961L58.54,96.299L58.314,96.638L58.088,96.978L57.864,97.319L57.641,97.66L57.419,98.002L57.197,98.345L56.977,98.688L56.758,99.032L56.539,99.377L56.322,99.722L56.106,100.068L55.891,100.414L55.677,100.762L55.464,101.11L55.252,101.458L55.041,101.808L54.831,102.158L54.622,102.508L54.414,102.86L54.207,103.212L54.001,103.564L53.796,103.918L53.592,104.272L53.39,104.626L53.188,104.981L52.987,105.337L52.788,105.694L52.589,106.051L52.392,106.409L52.195,106.767L52,107.126L51.806,107.486L51.612,107.846L51.42,108.207L51.229,108.568L51.039,108.93L50.85,109.293L50.662,109.657L50.475,110.021L50.289,110.385L50.105,110.75L49.921,111.116L49.739,111.483L49.558,111.849L49.377,112.217L49.198,112.586L49.02,112.954L48.843,113.324L48.667,113.694L48.492,114.064L48.318,114.435L48.146,114.807L47.974,115.179L47.804,115.552L47.634,115.926L47.466,116.3L47.299,116.674L47.133,117.049L46.968,117.426L46.805,117.802L46.642,118.179L46.48,118.556L46.32,118.934L46.161,119.313L46.003,119.692L45.846,120.072L45.69,120.452L45.535,120.833L45.382,121.214L45.229,121.596L45.078,121.978L44.928,122.361L44.779,122.745L44.631,123.129L44.484,123.513L44.339,123.899L44.194,124.285L44.051,124.671L43.909,125.057L43.768,125.445L43.628,125.832L43.49,126.221L43.353,126.609L43.216,126.999L43.081,127.389L42.947,127.779L42.815,128.17L42.683,128.561L42.553,128.953L42.423,129.345L42.295,129.738L42.169,130.132L42.043,130.526L41.918,130.92L41.795,131.315L41.673,131.71L41.552,132.106L41.433,132.503L41.314,132.899L41.197,133.297L41.081,133.694L40.966,134.093L40.852,134.492L40.74,134.891L40.629,135.291L40.519,135.691L40.41,136.091L40.302,136.493L40.196,136.894L40.091,137.296L39.987,137.699L39.884,138.102L39.782,138.505L39.682,138.909L39.583,139.314L39.485,139.718L39.389,140.124L39.293,140.53L39.199,140.936L39.107,141.342L39.015,141.75L38.925,142.157L38.836,142.565L38.748,142.974L38.661,143.382L38.576,143.792L38.492,144.201L38.409,144.611L38.327,145.022L38.247,145.433L38.168,145.845L38.09,146.256L38.014,146.669L37.938,147.081L37.864,147.495L37.792,147.908L37.72,148.322L37.65,148.737L37.581,149.151L37.514,149.567L37.447,149.982L37.382,150.398L37.319,150.815L37.256,151.232L37.195,151.649L37.135,152.067L37.077,152.485L37.019,152.903L36.964,153.322L36.909,153.741L36.856,154.161L36.804,154.581L36.753,155.001L36.703,155.422L36.655,155.843L36.609,156.265L36.563,156.687L36.519,157.109L36.476,157.532L36.435,157.955L36.395,158.379L36.356,158.802L36.318,159.227L36.282,159.651L36.247,160.076L36.214,160.502L36.182,160.927L36.151,161.354L36.121,161.78L36.093,162.207L36.066,162.634L36.041,163.062L36.017,163.489L35.994,163.918L35.973,164.346L35.953,164.775L35.934,165.205L35.917,165.634L35.901,166.064L35.887,166.495L35.874,166.925L35.862,167.356L35.851,167.788L35.842,168.22L35.835,168.652L35.828,169.084L35.824,169.517L35.82,169.95L35.818,170.384L35.817,170.817L35.818,171.251Z" style="fill:white;"/>
    </g>
</svg>
