<?xml version="1.0" standalone="no"?>
<!DOCTYPE svg PUBLIC "-//W3C//DTD SVG 1.1//EN" "http://www.w3.org/Graphics/SVG/1.1/DTD/svg11.dtd" >
<svg>
<metadata>
Created by FontForge 20110222 at Sat Jan  9 03:30:34 2016
 By www-data
Copyright 1990 as an unpublished work by Bitstream Inc.  All rights reserved.  Confidential.
</metadata>
<defs>
<font id="CourierCode-BoldItalic" horiz-adv-x="602" >
  <font-face 
    font-family="Courier Code"
    font-weight="700"
    font-style="italic"
    font-stretch="normal"
    units-per-em="1000"
    panose-1="2 0 8 9 0 0 0 0 0 0"
    ascent="800"
    descent="-200"
    x-height="451"
    cap-height="579"
    bbox="-78 -309 664 875"
    underline-thickness="93"
    underline-position="-97"
    slope="12"
    unicode-range="U+0020-FB02"
  />
<missing-glyph 
d="M33 0v666h265v-666h-265zM66 33h199v600h-199v-600z" />
    <glyph glyph-name=".notdef" 
d="M33 0v666h265v-666h-265zM66 33h199v600h-199v-600z" />
    <glyph glyph-name=".null" horiz-adv-x="0" 
 />
    <glyph glyph-name="nonmarkingreturn" 
 />
    <glyph glyph-name="space" unicode=" " 
 />
    <glyph glyph-name="exclam" unicode="!" 
d="M234 215l45 304q12 76 77 76q25 0 38.5 -12.5t13.5 -33.5q0 -10 -7 -35l-76 -300q-7 -28 -17 -39t-33 -11q-42 0 -42 36q0 10 1 15zM171 56q0 30 21 50t56 20q36 0 57 -19.5t21 -50.5t-21.5 -50t-56.5 -19q-34 0 -55.5 19t-21.5 50z" />
    <glyph glyph-name="quotedbl" unicode="&#x22;" 
d="M212 324q-14 0 -19 7t-7 25l-16 191v6q0 26 24 26h68q25 0 25 -26v-6l-17 -191q-2 -18 -7 -25t-19 -7h-32zM406 324q-14 0 -19.5 7.5t-7.5 24.5l-16 191v6q0 26 24 26h69q24 0 24 -26v-6l-16 -191q-2 -17 -7.5 -24.5t-19.5 -7.5h-31z" />
    <glyph glyph-name="numbersign" unicode="#" 
d="M207 641q2 42 41 42q42 0 42 -41v-5l-11 -200h60l11 204q2 42 41 42q42 0 42 -41v-5l-11 -200h48q32 0 32 -37t-32 -37h-52l-7 -112h59q32 0 32 -37t-32 -37h-63l-10 -193q-2 -42 -41 -42q-19 0 -30.5 11.5t-11.5 31.5v4l11 188h-61l-10 -193q-2 -42 -41 -42
q-19 0 -30 12t-11 32v3l9 189h-50q-32 0 -32 37q0 36 32 36h54l6 112h-60q-32 0 -32 37t32 37h65zM269 251h60l6 112h-61z" />
    <glyph glyph-name="dollar" unicode="$" 
d="M203 34q-39 6 -66 30q-18 -23 -39 -23q-16 0 -26 10t-10 27q0 4 2 14l19 87q9 42 47 42q10 0 17 -2t11.5 -7.5t6.5 -9.5t6 -14.5t6 -15.5q12 -27 35.5 -38t65.5 -11q44 0 69.5 22t25.5 55q0 32 -48 55l-103 46q-80 36 -80 119q0 77 54 126t143 49h5l13 41q12 36 47 36
q39 0 39 -21q0 -12 -3 -20l-13 -38q33 -9 58 -22q16 16 37 16q37 0 37 -24q0 -5 -1 -7l-15 -83q-5 -25 -12.5 -34.5t-27.5 -9.5t-28 5.5t-16 21.5t-14 24q-27 35 -89 35q-39 0 -63 -21.5t-24 -52.5q0 -36 37 -51l97 -42q44 -19 69 -53.5t25 -76.5q0 -81 -56.5 -133
t-155.5 -56l-28 -109q-11 -43 -50 -43q-38 0 -38 28q0 4 2 12z" />
    <glyph glyph-name="percent" unicode="%" 
d="M124 272l327 130q8 3 14 3q13 0 21.5 -9.5t8.5 -23.5q0 -19 -20 -27l-328 -131q-7 -3 -14 -3q-13 0 -21 10t-8 25q0 18 20 26zM213 117q0 57 40.5 95t103.5 38q62 0 102.5 -38t40.5 -95t-40 -95t-103 -38t-103.5 38t-40.5 95zM423 117q0 26 -18 42.5t-48 16.5t-48 -16.5
t-18 -42.5t18 -42.5t48 -16.5t48 16.5t18 42.5zM310 499q0 26 -18 43t-47 17q-30 0 -48 -17t-18 -43t18 -42.5t48 -16.5t47.5 16.5t17.5 42.5zM101 499q0 57 40.5 95t102.5 38t102.5 -38t40.5 -95t-40 -95t-103 -38q-62 0 -102.5 38t-40.5 95z" />
    <glyph glyph-name="ampersand" unicode="&#x26;" 
d="M326 39q-80 -53 -151 -53q-61 0 -98.5 35.5t-37.5 92.5q0 113 142 199l-8 22q-15 41 -15 73q0 66 48 110t125 44q56 0 94 -31q1 0 8.5 1.5t11.5 1.5q31 0 31 -32q0 -26 -23 -51t-45 -25q-16 0 -42 18.5t-42 18.5q-20 0 -33.5 -13t-13.5 -33q0 -19 12 -42l86 -166
q11 19 24 50t22.5 41.5t26.5 10.5h55q34 0 34 -37q0 -28 -15.5 -39t-51.5 -12q-18 -56 -52 -98l21 -37h10q15 0 24.5 -9.5t9.5 -26.5q0 -52 -59 -52h-55q-11 0 -16 0.5t-9.5 4t-7.5 11.5zM294 118l-66 120q-69 -38 -69 -90q0 -26 17 -43.5t43 -17.5q24 0 75 31z" />
    <glyph glyph-name="quoteright" unicode="&#x2019;" 
d="M193 351l97 210q8 18 29 18h87q11 0 11 -11q0 -4 -2 -6l-163 -244q-9 -13 -22 -13q-7 0 -10 2l-27 14q-7 3 -7 12q0 3 7 18z" />
    <glyph glyph-name="parenleft" unicode="(" 
d="M182 92q0 202 150 373q55 63 100 96.5t67 33.5q10 0 17.5 -5.5t7.5 -12.5q0 -12 -18.5 -36t-52.5 -67.5t-59 -86.5q-90 -154 -90 -309q0 -68 28 -148.5t28 -96.5q0 -27 -29 -27q-43 0 -96 83t-53 203z" />
    <glyph glyph-name="parenright" unicode=")" 
d="M417 309q0 -202 -150 -373q-56 -63 -101 -97t-66 -34q-10 0 -17.5 6t-7.5 13q0 12 19 36t53 67.5t59 86.5q89 153 89 309q0 68 -28 148.5t-28 96.5q0 27 29 27q43 0 96 -83t53 -203z" />
    <glyph glyph-name="asterisk" unicode="*" 
d="M456 516q8 3 12 3q9 0 15 -20l13 -41q4 -12 4 -17q0 -9 -16 -12l-131 -28l90 -101q7 -7 7 -15q0 -5 -16 -16l-34 -25q-12 -9 -18 -9q-7 0 -13 11l-68 116l-68 -115q-7 -12 -14 -12q-5 0 -18 10l-34 25q-15 10 -15 16q0 7 7 14l91 100l-132 29q-16 3 -16 11q0 6 4 19
l14 40q7 20 14 20q4 0 12 -3l122 -56l-14 136v5q0 9 5.5 12t19.5 3h43q14 0 19 -2.5t5 -11.5v-6l-13 -134z" />
    <glyph glyph-name="plus" unicode="+" 
d="M351 97q0 -24 -14 -39t-36 -15q-23 0 -37 15t-14 39v160h-160q-24 0 -39 14t-15 37t15 37t39 14h160v160q0 24 13.5 38.5t36.5 14.5t37 -14.5t14 -38.5v-160h161q24 0 39 -14t15 -37t-15 -37t-39 -14h-161v-160z" />
    <glyph glyph-name="comma" unicode="," 
d="M125 -107l116 252q10 22 35 22h105q14 0 14 -13q0 -5 -2 -8l-198 -294q-10 -16 -26 -16q-6 0 -12 3l-32 17q-9 5 -9 14q0 4 9 23z" />
    <glyph glyph-name="hyphen" unicode="-" 
d="M84 170q-9 0 -15.5 6.5t-6.5 15.5q0 1 0.5 2.5t0.5 2.5l13 61q4 23 21 23h407q9 0 15.5 -6t6.5 -15q0 -1 -0.5 -2.5t-0.5 -2.5l-13 -61q-4 -24 -21 -24h-407z" />
    <glyph glyph-name="period" unicode="." 
d="M183 75q0 39 26.5 63t69.5 24q44 0 70.5 -24t26.5 -63t-26.5 -63t-70.5 -24q-43 0 -69.5 24t-26.5 63z" />
    <glyph glyph-name="slash" unicode="/" 
d="M121 -76q-30 -48 -57 -48q-18 0 -36.5 15.5t-18.5 31.5q0 23 23 58l436 675q30 48 57 48q17 0 36 -14.5t19 -31.5q0 -24 -23 -59z" />
    <glyph glyph-name="zero" unicode="0" 
d="M251 311.5q0 21.5 15 36.5t36 15t36 -15.5t15 -36.5t-15 -36t-36 -15t-36 15t-15 36.5zM43 202q0 73 25 154t68 145q88 132 225 132q95 0 146.5 -55.5t51.5 -158.5q0 -72 -25 -153.5t-68 -147.5q-87 -132 -225 -132q-95 0 -146.5 56t-51.5 160zM343 533q-68 0 -123 -116
q-48 -104 -48 -200q0 -61 24 -95t62 -34q67 0 124 115q48 96 48 202q0 60 -24 94t-63 34z" />
    <glyph glyph-name="one" unicode="1" 
d="M211 102l88 414l-73 -16q-10 -2 -14 -2q-37 0 -37 43q0 39 34 47l184 43q10 2 13 2q27 0 27 -25q0 -5 -1 -8l-104 -498h74q29 0 41 -9.5t12 -35.5q0 -57 -65 -57h-288q-29 0 -41 9.5t-12 35.5q0 30 15.5 43.5t49.5 13.5h97z" />
    <glyph glyph-name="two" unicode="2" 
d="M214 102h159q8 33 21.5 46.5t39.5 13.5q45 0 45 -36q0 -13 -2 -21l-14 -68q-4 -21 -14.5 -29t-34.5 -8h-342q-31 0 -44.5 8t-13.5 30q0 5 1 10.5t4 11t6 10t9 11t10 11t13 12.5t14.5 12.5t16.5 14.5t18 16l190 166q55 49 79 80.5t24 67.5q0 30 -18 48t-51 18
q-49 0 -80 -23q-7 -5 -31.5 -35t-44.5 -30q-41 0 -41 42q0 64 63 107t155 43q82 0 129 -42.5t47 -114.5q0 -67 -45 -126.5t-147 -144.5z" />
    <glyph glyph-name="three" unicode="3" 
d="M378 336q43 -8 66.5 -40t23.5 -82q0 -103 -70.5 -167t-191.5 -64q-84 0 -135 24.5t-51 59.5q0 22 16 40.5t37 18.5q11 0 21.5 -3t16 -5.5t15 -8t12.5 -7.5q29 -16 70 -16q64 0 100 32.5t36 85.5q0 36 -15 52.5t-49 21.5q-5 1 -14.5 2t-14 1.5t-11.5 2t-10.5 3t-7 3.5
t-5 5.5t-1.5 7.5q0 20 2.5 33t10.5 19.5t13 8.5t20 4.5l21 3.5q52 12 77 37t25 68q0 24 -18.5 41.5t-45.5 17.5q-32 0 -81.5 -23t-67.5 -23q-13 0 -22 10t-9 25q0 39 65 74t148 35q71 0 112 -37.5t41 -98.5q0 -120 -129 -162z" />
    <glyph glyph-name="four" unicode="4" 
d="M172 239h153l63 279zM292 89l14 67h-219q-33 0 -33 22q0 1 0.5 3t0.5 3l4 21q3 17 13 30l295 386q10 13 20 13q6 0 10 -1l87 -16q16 -3 16 -11q0 -3 -3 -18l-76 -349h26q4 0 17.5 12t32.5 12q34 0 34 -26q0 -12 -3 -18l-22 -52q-4 -11 -25 -11h-79l-15 -67h40
q28 0 40.5 -8.5t12.5 -30.5q0 -50 -64 -50h-213q-28 0 -40.5 8.5t-12.5 30.5q0 50 65 50h77z" />
    <glyph glyph-name="five" unicode="5" 
d="M238 387q52 24 99 24q81 0 126.5 -46t45.5 -126q0 -113 -78 -184t-210 -71q-184 0 -184 74q0 22 15.5 37t37.5 15q16 0 64 -11t80 -11q66 0 107.5 37.5t41.5 94.5q0 46 -24 70t-69 24q-34 0 -80.5 -19.5t-63.5 -19.5q-36 0 -36 35q0 13 9 46l56 224q6 24 14.5 30t36.5 6
h303q31 0 31 -35q0 -67 -50 -67h-241z" />
    <glyph glyph-name="six" unicode="6" 
d="M204 161q0 -38 17.5 -58.5t50.5 -20.5q45 0 78 40.5t33 92.5q0 35 -19.5 55.5t-52.5 20.5q-43 0 -75 -38t-32 -92zM231 337q55 52 120 52q68 0 111.5 -45.5t43.5 -116.5q0 -97 -72 -170t-177 -73q-89 0 -137 51.5t-48 143.5q0 95 44.5 194t119.5 163q114 97 285 97
q63 0 63 -46q0 -13 -4.5 -21.5t-9.5 -13.5t-17 -8t-20 -4t-26 -2.5t-27 -2.5q-91 -10 -156 -61.5t-93 -136.5z" />
    <glyph glyph-name="seven" unicode="7" 
d="M260 11q-9 -18 -19 -18h-102q-16 0 -16 11q0 7 8 21l279 489h-203q-13 -32 -23 -43t-30 -11q-39 0 -39 31q0 9 4 21l25 77q9 27 40 27h335q25 0 25 -18q0 -10 -5 -24t-5 -16l-15 -30z" />
    <glyph glyph-name="eight" unicode="8" 
d="M176 152q0 -34 21 -55t56 -21q48 0 82 33.5t34 78.5q0 34 -20.5 53t-56.5 19q-46 0 -81 -33t-35 -75zM244 440q0 -33 20 -52.5t53 -19.5q45 0 77 31.5t32 74.5q0 32 -19.5 49.5t-53.5 17.5q-44 0 -76.5 -31t-32.5 -70zM408 317q88 -35 88 -122q0 -90 -69 -150.5
t-182 -60.5q-93 0 -142.5 40.5t-49.5 114.5q0 61 36.5 108t103.5 70q-38 23 -54 49.5t-16 66.5q0 83 67 141t166 58q89 0 140.5 -42.5t51.5 -111.5q0 -58 -36 -100t-104 -61z" />
    <glyph glyph-name="nine" unicode="9" 
d="M381 280q-55 -52 -121 -52q-68 0 -111 45.5t-43 116.5q0 97 71.5 170t176.5 73q89 0 137 -51.5t48 -143.5q0 -95 -44.5 -194t-119.5 -163q-114 -97 -285 -97q-63 0 -63 47q0 13 4 21.5t9.5 13.5t17.5 8t20 4t26 2t27 2q91 10 156.5 61.5t93.5 136.5zM407 456
q0 38 -17.5 58.5t-50.5 20.5q-45 0 -78 -40.5t-33 -92.5q0 -34 19.5 -54.5t52.5 -20.5q43 0 75 38t32 91z" />
    <glyph glyph-name="colon" unicode=":" 
d="M211 350q0 39 26.5 63t69.5 24q44 0 70.5 -24t26.5 -63t-26.5 -63t-70.5 -24q-43 0 -69.5 24t-26.5 63zM155 75q0 38 27 62.5t70 24.5q44 0 70.5 -24t26.5 -63t-26.5 -63t-70.5 -24q-43 0 -70 24.5t-27 62.5z" />
    <glyph glyph-name="semicolon" unicode=";" 
d="M233 350q0 39 26.5 63t69.5 24q44 0 70.5 -24t26.5 -63t-26.5 -63t-70.5 -24q-43 0 -69.5 24t-26.5 63zM93 -107l116 252q10 22 36 22h105q14 0 14 -13q0 -4 -3 -8l-197 -294q-10 -16 -27 -16q-5 0 -11 3l-33 17q-9 5 -9 14q0 4 9 23z" />
    <glyph glyph-name="less" unicode="&#x3c;" 
d="M520 163q36 -17 36 -47q0 -23 -12.5 -38.5t-32.5 -15.5q-12 0 -35 10l-389 182q-45 21 -45 53t45 53l389 182q23 10 35 10q20 0 32.5 -15t12.5 -38q0 -31 -36 -47l-310 -145z" />
    <glyph glyph-name="equal" unicode="=" 
d="M90 160q-24 0 -39 14t-15 37t15 37t39 14h422q24 0 39 -14t15 -37t-15 -37t-39 -14h-422zM90 354q-24 0 -39 14t-15 37t15 37t39 14h422q24 0 39 -14t15 -37t-15 -37t-39 -14h-422z" />
    <glyph glyph-name="greater" unicode="&#x3e;" 
d="M68 452q-35 16 -35 47q0 23 12.5 38t32.5 15q11 0 34 -10l390 -182q45 -21 45 -53t-45 -53l-390 -182q-23 -10 -34 -10q-20 0 -32.5 15.5t-12.5 38.5q0 31 35 47l310 144z" />
    <glyph glyph-name="question" unicode="?" 
d="M298 245l-7 -32q-12 -48 -68 -48q-50 0 -50 39q0 8 1 12l5 27q12 55 72 82l58 26q31 13 49.5 39.5t18.5 55.5q0 24 -17 40t-44 16q-56 0 -74 -35q-1 -1 -6.5 -14t-9 -17t-14 -9.5t-24.5 -5.5q-42 0 -42 29q0 7 1 11l13 61q15 73 174 73q83 0 129 -40.5t46 -113.5
q0 -144 -211 -196zM124 56q0 30 21 50t56 20t56 -19.5t21 -50.5t-21 -50t-56 -19q-34 0 -55.5 19t-21.5 50z" />
    <glyph glyph-name="at" unicode="@" 
d="M397 253l26 123l-19 1h-2q-33 0 -58 -26t-25 -58q0 -21 12 -34.5t33 -13.5q12 0 33 8zM410 186q-50 -16 -76 -16q-45 0 -73.5 29.5t-28.5 76.5q0 70 54 122.5t135 52.5q13 0 19 -1q6 30 6 46q0 76 -71 76q-67 0 -121 -97q-31 -56 -52 -137t-21 -146q0 -76 31.5 -116.5
t87.5 -40.5q18 0 45 8.5t37 8.5q31 0 31 -33q0 -28 -37.5 -50t-94.5 -22q-92 0 -148.5 67.5t-56.5 181.5q0 75 31 178q32 112 82 180q82 113 206 113q68 0 111.5 -40.5t43.5 -101.5q0 -18 -5 -45l-47 -231q15 -26 15 -40q0 -20 -14.5 -34t-34.5 -14q-22 0 -54 25z" />
    <glyph glyph-name="A" unicode="A" 
d="M231 264h141l-30 214zM235 471h-47q-18 0 -30 11.5t-12 32.5q0 64 72 64h187q35 0 39 -32l65 -439h11q18 0 29.5 -11.5t11.5 -32.5q0 -64 -72 -64h-142q-48 0 -48 44q0 30 18.5 47t50.5 17h24l-7 54h-206l-29 -54h5q50 0 50 -45q0 -63 -72 -63h-129q-48 0 -48 44
q0 28 17.5 46t42.5 18h18z" />
    <glyph glyph-name="B" unicode="B" 
d="M37 0q-47 0 -47 44q0 28 17 46t42 18h14l75 363h-13q-19 0 -30.5 11.5t-11.5 32.5q0 64 72 64h210q95 0 140 -31t45 -101q0 -55 -27 -87.5t-87 -49.5q53 -13 78 -42.5t25 -79.5q0 -188 -237 -188h-265zM233 348h67q119 0 119 72q0 31 -19.5 41t-68.5 10h-72zM182 108h117
q107 0 107 79q0 39 -21 51.5t-76 12.5h-97z" />
    <glyph glyph-name="C" unicode="C" 
d="M512 563q20 31 51 31q36 0 36 -31q0 -9 -4 -26l-29 -137q-10 -46 -50 -46q-27 0 -36.5 8.5t-9.5 34.5v10q0 37 -26.5 58.5t-72.5 21.5q-81 0 -141.5 -79.5t-60.5 -184.5q0 -63 31.5 -97.5t91.5 -34.5q39 0 78.5 17t70.5 34t48 17t28.5 -12t11.5 -30q0 -45 -82.5 -88.5
t-193.5 -43.5q-103 0 -162 59.5t-59 159.5q0 72 26.5 145.5t70.5 127.5q97 118 253 118q68 0 130 -32z" />
    <glyph glyph-name="D" unicode="D" 
d="M294 471h-31l-75 -362h24q95 0 137 29q39 27 62 84.5t23 132.5q0 60 -34.5 88t-105.5 28zM37 0q-47 0 -47 44q0 28 17.5 46t42.5 18h14l74 362h-13q-18 0 -29.5 12t-11.5 33q0 64 72 64h150q135 0 200.5 -51.5t65.5 -159.5q0 -178 -96 -279q-55 -58 -119 -73.5
t-171 -15.5h-149z" />
    <glyph glyph-name="E" unicode="E" 
d="M557 579q36 0 36 -25q0 -5 -1 -7l-26 -128q-7 -31 -17 -43t-37 -12q-44 0 -44 35q0 13 3 29l9 43h-215l-24 -123h77q6 34 18.5 48t38.5 14q42 0 42 -38q0 -10 -3 -22l-22 -106q-7 -31 -17 -43t-37 -12q-44 0 -44 35q0 12 3 29h-76l-30 -145h213l8 42q7 39 20.5 55
t41.5 16q44 0 44 -43q0 -12 -2 -20l-25 -119q-4 -22 -14.5 -30.5t-31.5 -8.5h-405q-48 0 -48 44q0 28 17.5 46t42.5 18h14l75 363h-13q-18 0 -30 11.5t-12 32.5q0 64 72 64h399z" />
    <glyph glyph-name="F" unicode="F" 
d="M571 579q36 0 36 -25q0 -5 -1 -7l-26 -128q-7 -30 -17.5 -42.5t-37.5 -12.5q-44 0 -44 35q0 7 4 29l9 43h-215l-25 -123h77q6 34 19 48t39 14q42 0 42 -38q0 -10 -3 -22l-22 -106q-7 -31 -17 -43t-37 -12q-44 0 -44 35q0 12 3 29h-76l-30 -145h26q50 0 50 -45
q0 -63 -72 -63h-155q-48 0 -48 44q0 28 17.5 46t42.5 18h14l74 363h-13q-18 0 -29.5 11.5t-11.5 32.5q0 64 72 64h399z" />
    <glyph glyph-name="G" unicode="G" 
d="M500 563q20 31 50 31q36 0 36 -31q0 -7 -4 -26l-28 -137q-9 -46 -50 -46q-26 0 -36 8.5t-10 34.5v10q0 37 -26 58.5t-72 21.5q-73 0 -127 -64q-34 -41 -54 -96t-20 -108q0 -128 133 -128q45 0 87 15l14 74h-57q-18 0 -29.5 12t-11.5 33q0 63 72 63h161q47 0 47 -44
q0 -61 -68 -64l-22 -114q-4 -19 -8.5 -26.5t-19.5 -15.5q-80 -39 -203 -39q-111 0 -170.5 58t-59.5 161q0 72 26 145.5t70 127.5q97 118 251 118q68 0 129 -32z" />
    <glyph glyph-name="H" unicode="H" 
d="M412 471q-49 1 -49 44q0 30 18.5 47t53.5 17h123q48 0 48 -45q0 -60 -69 -63l-74 -363h11q18 0 29.5 -11.5t11.5 -32.5q0 -64 -72 -64h-126q-47 0 -47 44q0 62 68 64l29 145h-148l-28 -145q50 0 50 -45q0 -63 -72 -63h-129q-48 0 -48 44q0 28 17.5 46t42.5 18h14l75 363
h-13q-18 0 -30 11.5t-12 32.5q0 64 72 64h128q48 0 48 -45q0 -60 -69 -63l-24 -115h148z" />
    <glyph glyph-name="I" unicode="I" 
d="M104 0q-48 0 -48 44q0 28 17.5 46t42.5 18h87l74 363h-85q-18 0 -30 11.5t-12 32.5q0 64 72 64h274q47 0 47 -45q0 -38 -22 -50.5t-72 -12.5h-50l-74 -363h86q19 0 30.5 -12t11.5 -32q0 -64 -72 -64h-277z" />
    <glyph glyph-name="J" unicode="J" 
d="M41 199q7 39 21 55t42 16q44 0 44 -40q0 -7 -3.5 -29t-3.5 -36q0 -79 74 -79q61 0 85.5 39t44.5 137l43 209h-85q-19 0 -30.5 11.5t-11.5 32.5q0 64 72 64h243q47 0 47 -45q0 -38 -22 -50.5t-72 -12.5h-19l-51 -247q-1 -6 -6.5 -30.5t-7 -32t-6.5 -26.5t-9 -28.5
t-10.5 -22.5t-14.5 -23q-26 -35 -78 -55.5t-119 -20.5q-95 0 -153 35q-35 21 -35 48q0 6 2 22z" />
    <glyph glyph-name="K" unicode="K" 
d="M425 476q-36 8 -36 38q0 65 70 65h114q48 0 48 -45q0 -60 -69 -63l-176 -147q70 -68 101 -216h30q18 0 29.5 -11.5t11.5 -32.5q0 -64 -72 -64h-68q-13 0 -21 2t-12.5 10t-6.5 15t-6.5 26.5t-8.5 34.5q-33 119 -78 157l-57 -46l-18 -91q50 0 50 -45q0 -63 -72 -63h-129
q-48 0 -48 44q0 28 17.5 46t42.5 18h14l75 363h-13q-19 0 -30.5 11.5t-11.5 32.5q0 64 72 64h128q48 0 48 -45q0 -60 -69 -63l-32 -149z" />
    <glyph glyph-name="L" unicode="L" 
d="M44 0q-47 0 -47 44q0 28 17 46t42 18h35l74 363h-33q-18 0 -30 11.5t-12 32.5q0 64 72 64h181q48 0 48 -45q0 -30 -18.5 -46.5t-50.5 -16.5h-32l-75 -363h214l7 42q7 39 21 55t42 16q44 0 44 -43q0 -8 -3 -20l-25 -119q-5 -22 -14.5 -30.5t-30.5 -8.5h-426z" />
    <glyph glyph-name="M" unicode="M" 
d="M191 415l-66 -307q50 0 50 -45q0 -63 -72 -63h-109q-47 0 -47 44q0 28 17 46t42 18h15l86 363h-13q-18 0 -29.5 11.5t-11.5 32.5q0 64 72 64h76q27 0 39 -10t15 -34l38 -295l160 302q20 37 62 37h75q47 0 47 -45q0 -60 -68 -63l-62 -363q49 0 49 -45q0 -63 -72 -63h-108
q-48 0 -48 44q0 28 17.5 46t42.5 18h14l57 302l-118 -224q-15 -28 -31 -39t-42 -11q-23 0 -35 12.5t-16 42.5z" />
    <glyph glyph-name="N" unicode="N" 
d="M447 471h-12q-54 0 -54 44q0 30 18.5 47t53.5 17h124q47 0 47 -45q0 -60 -68 -63l-93 -446q-4 -19 -11 -26t-24 -7h-44q-20 0 -29 5t-15 23l-128 383l-54 -295h16q50 0 50 -45q0 -63 -72 -63h-129q-47 0 -47 44q0 28 17 46t42 18h15l74 363h-13q-19 0 -30.5 11.5
t-11.5 32.5q0 64 72 64h89q31 0 41 -29l122 -370z" />
    <glyph glyph-name="O" unicode="O" 
d="M348 595q111 0 174 -64.5t63 -179.5q0 -130 -77 -237q-94 -129 -252 -129q-113 0 -176 64.5t-63 178.5q0 149 96 261q91 106 235 106zM446 347q0 66 -30 102t-81 36q-69 0 -122.5 -75.5t-53.5 -174.5q0 -67 29.5 -102.5t81.5 -35.5q69 0 122.5 76.5t53.5 173.5z" />
    <glyph glyph-name="P" unicode="P" 
d="M371 579q207 0 207 -160q0 -209 -276 -209h-80l-21 -102h27q50 0 50 -45q0 -63 -72 -63h-156q-47 0 -47 44q0 28 17 46t42 18h15l74 363h-13q-18 0 -29.5 11.5t-11.5 32.5q0 64 72 64h202zM242 319h57q75 0 109 19t34 65q0 68 -91 68h-74z" />
    <glyph glyph-name="Q" unicode="Q" 
d="M446 347q0 66 -30 102t-81 36q-69 0 -122.5 -75.5t-53.5 -174.5q0 -67 29.5 -102.5t81.5 -35.5q69 0 122.5 76.5t53.5 173.5zM144 6q-127 59 -127 222q0 149 96 261q90 106 234 106q112 0 175 -64t63 -180q0 -151 -93.5 -258.5t-229.5 -107.5q-37 0 -69 7l-84 -71
q81 38 144 38q31 0 72 -11t52 -11q15 0 42 11t37 11q35 0 35 -28q0 -30 -41 -55.5t-93 -25.5q-31 0 -80 15.5t-67 15.5q-36 0 -83.5 -19.5t-57.5 -19.5q-17 0 -28 11t-11 28q0 19 11.5 34t37.5 37z" />
    <glyph glyph-name="R" unicode="R" 
d="M362 579q199 0 199 -143q0 -132 -147 -170q14 -7 21 -27l53 -131h12q50 0 50 -45q0 -63 -72 -63h-47q-25 0 -33.5 5.5t-17.5 28.5l-74 173q-7 16 -15.5 22t-25.5 6h-46l-26 -127h9q49 0 49 -45q0 -63 -72 -63h-137q-48 0 -48 44q0 28 17.5 46t42.5 18h14l74 363h-13
q-18 0 -29.5 11.5t-11.5 32.5q0 64 72 64h202zM240 334h49q70 0 102 18t32 59q0 61 -85 61h-70z" />
    <glyph glyph-name="S" unicode="S" 
d="M117 11q-21 -31 -47 -31q-43 0 -43 44q0 4 2 18l20 129q8 46 51 46q17 0 26.5 -7t12 -16t6 -26t8.5 -28q12 -28 45 -46t76 -18q44 0 71 20.5t27 50.5q0 18 -5.5 31t-20 23.5t-26.5 17t-38.5 18.5t-43.5 20q-113 57 -113 150q0 83 63.5 135.5t170.5 52.5q68 0 125 -27
q17 36 49 36q38 0 38 -40q0 -5 -2 -19l-21 -115q-8 -40 -51 -40q-9 0 -16.5 2t-11.5 3.5t-8.5 9t-5.5 9.5t-5.5 14t-5.5 15q-23 58 -87 58q-38 0 -62 -18.5t-24 -48.5q0 -28 19.5 -44t68.5 -39q87 -40 123 -74t36 -95q0 -86 -70 -141t-183 -55q-70 0 -148 25z" />
    <glyph glyph-name="T" unicode="T" 
d="M100 0q-47 0 -47 44q0 28 17 46t42 18h87l75 363h-102l-22 -102q-7 -30 -17 -42.5t-37 -12.5q-44 0 -44 35q0 14 3 29l37 173q5 28 39 28h445q36 0 36 -26q0 -1 -0.5 -3t-0.5 -3l-37 -178q-7 -30 -17.5 -42.5t-37.5 -12.5q-44 0 -44 35q0 9 4 29l19 93h-102l-74 -363h86
q18 0 29.5 -11.5t11.5 -32.5q0 -64 -72 -64h-277z" />
    <glyph glyph-name="U" unicode="U" 
d="M559 471l-57 -277q-22 -108 -83.5 -159.5t-169.5 -51.5q-193 0 -193 168q0 31 10 81l48 239h-13q-18 0 -29.5 11.5t-11.5 32.5q0 64 72 64h128q47 0 47 -45q0 -58 -66 -63l-52 -259q-5 -28 -5 -51q0 -70 76 -70q57 0 85 31.5t43 102.5l51 246q-50 1 -50 44q0 30 18.5 47
t53.5 17h119q47 0 47 -45q0 -60 -68 -63z" />
    <glyph glyph-name="V" unicode="V" 
d="M325 26q-9 -15 -18 -20.5t-27 -5.5h-79q-35 0 -39 32l-65 439h-11q-18 0 -29.5 11.5t-11.5 32.5q0 64 72 64h136q48 0 48 -45q0 -30 -18.5 -46.5t-50.5 -16.5h-5l42 -337l187 337h-5q-50 0 -50 44q0 30 18.5 47t53.5 17h119q48 0 48 -45q0 -28 -17.5 -45.5t-42.5 -17.5
h-8z" />
    <glyph glyph-name="W" unicode="W" 
d="M300 309l-152 -286q-13 -23 -41 -23h-31q-18 0 -24 3t-6 14q0 1 0.5 5t0.5 6l45 443h-11q-18 0 -29.5 11.5t-11.5 32.5q0 64 72 64h112q48 0 48 -45q0 -30 -18.5 -46.5t-50.5 -16.5h-5l-40 -267l99 189q15 29 29.5 39t43.5 10q23 0 34 -10.5t14 -38.5l19 -190l75 268h-5
q-49 0 -49 44q0 30 18.5 47t53.5 17h107q48 0 48 -45q0 -28 -17.5 -45.5t-42.5 -17.5h-8l-139 -443q-5 -16 -12 -22t-23 -6h-36q-18 0 -24 5t-8 22z" />
    <glyph glyph-name="X" unicode="X" 
d="M197 108q44 -7 44 -44q0 -64 -72 -64h-121q-48 0 -48 44q0 28 17.5 46t42.5 18h14l169 189l-91 174h-13q-18 0 -29.5 11.5t-11.5 32.5q0 64 72 64h122q42 0 42 -44q0 -61 -61 -64l48 -91l78 91q-41 1 -41 43q0 65 59 65h116q47 0 47 -45q0 -55 -59 -63l-154 -175
l101 -188h10q18 0 30 -12t12 -32q0 -64 -72 -64h-135q-42 0 -42 44q0 64 64 64h6l-54 104z" />
    <glyph glyph-name="Y" unicode="Y" 
d="M139 471h-13q-18 0 -29.5 11.5t-11.5 32.5q0 64 72 64h125q42 0 42 -44q0 -55 -53 -64l36 -145l99 145q-42 1 -42 43q0 65 60 65h115q48 0 48 -45q0 -55 -60 -63l-182 -248l-23 -115h75q19 0 30.5 -12t11.5 -32q0 -64 -72 -64h-256q-48 0 -48 44q0 28 17.5 46t42.5 18h76
l21 104z" />
    <glyph glyph-name="Z" unicode="Z" 
d="M221 404q-7 -31 -17 -43.5t-37 -12.5q-44 0 -44 36q0 12 3 29l26 125q9 41 52 41h265q67 0 67 -43q0 -30 -15 -49l-309 -379h147l13 67q8 40 21 55.5t41 15.5q45 0 45 -43q0 -8 -3 -20l-31 -144q-4 -22 -14.5 -30.5t-30.5 -8.5h-288q-67 0 -67 42q0 32 15 49l309 379
h-133z" />
    <glyph glyph-name="bracketleft" unicode="[" 
d="M277 -102h64q27 0 27 -29t-11 -39t-38 -10l-139 -1q-36 0 -36 28q0 4 2 12l145 679q5 21 14 30.5t27 9.5l159 1q27 0 27 -29t-11 -39.5t-38 -10.5h-63z" />
    <glyph glyph-name="backslash" unicode="\" 
d="M96 603q-15 32 -15 51q0 22 17 35.5t38 13.5q18 0 30 -13t25 -42l315 -674q16 -34 16 -49q0 -22 -17.5 -36t-38.5 -14q-30 0 -55 55z" />
    <glyph glyph-name="bracketright" unicode="]" 
d="M308 500h-64q-27 0 -27 29t11 39t38 10l139 1q36 0 36 -28q0 -4 -2 -12l-145 -679q-5 -21 -14 -30.5t-27 -9.5l-159 -1q-27 0 -27 30q0 29 11 39t38 10h63z" />
    <glyph glyph-name="asciicircum" unicode="^" 
d="M301 555l-151 -124q-10 -8 -20 -8t-17 7q-9 9 -9 21q0 13 12 28l151 176q12 15 34 15t34 -15l151 -176q12 -15 12 -29q0 -11 -9 -20q-7 -7 -18 -7q-8 0 -15 5z" />
    <glyph glyph-name="underscore" unicode="_" 
d="M602 -207q23 0 23 -26v-47q0 -12 -7 -20.5t-16 -8.5h-602q-22 0 -22 29v47q0 12 6.5 19t15.5 7h602z" />
    <glyph glyph-name="quoteleft" unicode="&#x2018;" 
d="M437 550l-96 -209q-9 -18 -29 -18h-88q-11 0 -11 11q0 4 2 6l164 244q9 13 21 13q7 0 10 -2l27 -14q8 -4 8 -12q0 -1 -8 -19z" />
    <glyph glyph-name="a" unicode="a" 
d="M463 108q51 0 51 -45q0 -63 -74 -63h-43q-25 0 -35 8.5t-12 33.5q-93 -53 -172 -53q-67 0 -104.5 33.5t-37.5 93.5q0 80 64 126t175 46q51 0 108 -11q6 25 6 43q0 26 -17 41.5t-47 15.5q-34 0 -88.5 -24t-76.5 -24q-42 0 -42 38q0 45 60 71.5t166 26.5q164 0 164 -125
q0 -21 -6 -49zM351 125l16 76q-62 10 -85 10q-56 0 -89 -21t-33 -53q0 -53 64 -53q57 0 127 41z" />
    <glyph glyph-name="b" unicode="b" 
d="M319 357q-54 0 -92 -46t-38 -113q0 -49 25 -77t69 -28q54 0 91.5 46t37.5 117q0 44 -26 72.5t-67 28.5zM27 0q-47 0 -47 44q0 30 18 47t51 17h5l90 422h-13q-18 0 -29.5 12t-11.5 33q0 64 72 64h92q21 0 21 -20q0 -1 -0.5 -3t-0.5 -3l-42 -198q56 48 129 48
q83 0 131.5 -53t48.5 -150q0 -115 -71.5 -191.5t-176.5 -76.5q-86 0 -137 60l-6 -18q-6 -19 -12 -26.5t-21 -7.5h-90z" />
    <glyph glyph-name="c" unicode="c" 
d="M468 423q11 41 46 41q23 0 33 -8.5t10 -29.5q0 -4 -2 -16l-20 -109q-9 -50 -57 -50q-15 0 -24.5 7.5t-13 14t-12.5 27.5q-14 31 -36 45.5t-65 14.5q-77 0 -124 -47.5t-47 -120.5q0 -46 30 -74.5t81 -28.5q44 0 84.5 16t68 32t39.5 16q19 0 31.5 -13.5t12.5 -34.5
q0 -43 -74.5 -79.5t-174.5 -36.5q-108 0 -167.5 50.5t-59.5 138.5q0 122 85 203.5t218 81.5q86 0 138 -40z" />
    <glyph glyph-name="d" unicode="d" 
d="M257 95q54 0 92 47t38 115q0 50 -25.5 78.5t-68.5 28.5q-53 0 -90.5 -47.5t-37.5 -119.5q0 -45 25.5 -73.5t66.5 -28.5zM443 531h-53q-50 0 -50 44q0 30 18.5 47t53.5 17h149q21 0 21 -16q0 -1 -0.5 -3t-0.5 -3l-110 -508h13q18 0 30 -12.5t12 -32.5q0 -64 -72 -64h-70
q-21 0 -21 20q0 1 0.5 3t0.5 3l9 40q-67 -77 -162 -77q-81 0 -128.5 53.5t-47.5 149.5q0 114 71 192.5t175 78.5q79 0 133 -58z" />
    <glyph glyph-name="e" unicode="e" 
d="M169 272h243v7v5l1 2q0 36 -27 58t-74 22q-53 0 -91 -24.5t-52 -69.5zM162 197v-9q0 -48 28.5 -74t82.5 -26q42 0 83 16t69.5 32.5t40.5 16.5q19 0 31.5 -13.5t12.5 -34.5q0 -43 -75 -80t-175 -37q-104 0 -165 53t-61 142q0 119 81 199.5t204 80.5q100 0 159 -57.5
t59 -147.5q0 -39 -20.5 -50t-70.5 -11h-284z" />
    <glyph glyph-name="f" unicode="f" 
d="M374 436h92q32 0 46 -10t14 -35q0 -63 -74 -63h-101l-46 -220h101q51 0 51 -45q0 -63 -74 -63h-275q-18 0 -29.5 12t-11.5 33q0 64 72 64h49l46 219h-56q-18 0 -29.5 12t-11.5 33q0 64 72 64h49q15 107 68 154.5t158 47.5q131 0 131 -59q0 -20 -14.5 -33t-39.5 -13
q-14 0 -43.5 4.5t-45.5 4.5q-44 0 -65.5 -23.5t-32.5 -83.5z" />
    <glyph glyph-name="g" unicode="g" 
d="M260 108q54 0 92.5 45t38.5 110q0 47 -25 74t-69 27q-54 0 -91 -44.5t-37 -113.5q0 -43 25 -70.5t66 -27.5zM549 451q51 0 51 -44q0 -63 -75 -63l-58 -285q-10 -47 -16 -71.5t-20.5 -56t-34.5 -52.5q-38 -41 -90.5 -57.5t-130.5 -16.5q-140 0 -140 64q0 25 17 39.5
t48 14.5q10 0 44 -6t58 -6q65 0 99.5 34t51.5 112q-65 -49 -138 -49q-81 0 -128.5 52t-47.5 143q0 109 70.5 184.5t175.5 75.5q89 0 145 -72l7 30q4 18 10.5 24t24.5 6h77z" />
    <glyph glyph-name="h" unicode="h" 
d="M190 108q50 0 50 -45q0 -63 -72 -63h-121q-48 0 -48 44q0 30 18 47t51 17h5l90 422h-13q-18 0 -30 12.5t-12 32.5q0 64 72 64h98q21 0 21 -20q0 -1 -0.5 -3t-0.5 -3l-45 -207q59 57 135 57q57 0 90.5 -32.5t33.5 -90.5q0 -28 -6 -58l-37 -174q51 0 51 -45q0 -63 -74 -63
h-116q-44 0 -44 44q0 58 63 64l36 169q2 9 2 27q0 56 -50 56q-36 0 -70.5 -29.5t-44.5 -75.5z" />
    <glyph glyph-name="i" unicode="i" 
d="M353 519q-32 0 -42.5 4.5t-10.5 21.5q0 47 23 96q8 19 20 25t40 6q32 0 41 -6.5t9 -32.5q0 -39 -20 -84q-9 -20 -20 -25t-40 -5zM431 108q51 0 51 -45q0 -63 -74 -63h-313q-47 0 -47 44q0 64 74 64h92l49 235h-60q-18 0 -30 12.5t-12 32.5q0 63 72 63h148q22 0 22 -20
q0 -1 -0.5 -3t-0.5 -3l-68 -317h97z" />
    <glyph glyph-name="j" unicode="j" 
d="M322 343h-167q-18 0 -30 12.5t-12 32.5q0 63 72 63h256q21 0 21 -20q0 -1 -0.5 -3t-0.5 -3l-80 -374q-19 -89 -47 -139.5t-83 -78.5t-145 -28q-125 0 -125 63q0 25 16.5 40t46.5 15q14 0 45 -5t47 -5q50 0 79 30t43 94zM391 519q-32 0 -42.5 4.5t-10.5 21.5q0 47 23 96
q8 19 19.5 25t39.5 6q32 0 41 -6.5t9 -32.5q0 -42 -19 -84q-9 -20 -20 -25t-40 -5z" />
    <glyph glyph-name="k" unicode="k" 
d="M54 0q-47 0 -47 44q0 30 18 47t51 17h5l89 422h-13q-18 0 -30 12.5t-12 32.5q0 64 72 64h95q22 0 22 -20q0 -1 -0.5 -3t-0.5 -3l-76 -348l119 95q-19 14 -19 34q0 26 15.5 41.5t42.5 15.5h121h13q16 0 27 -11t11 -30q0 -25 -10.5 -36t-34.5 -18q-22 -6 -40 -14t-25 -12.5
t-18.5 -14t-12.5 -10.5l-45 -35l89 -162h16q51 0 51 -45q0 -63 -74 -63h-134q-37 0 -37 37q0 23 13.5 37.5t36.5 15.5l-55 104l-77 -62l-22 -99q-4 -20 -9.5 -26.5t-23.5 -6.5h-91z" />
    <glyph glyph-name="l" unicode="l" 
d="M180 0l23 108l90 422h-61q-18 0 -29.5 12t-11.5 33q0 64 72 64h148q21 0 21 -20q0 -1 -0.5 -3t-0.5 -3l-107 -505h97q51 0 51 -45q0 -63 -74 -63h-218z" />
    <glyph glyph-name="m" unicode="m" 
d="M70 343h-15q-18 0 -29.5 12t-11.5 33q0 63 72 63h78q20 0 20 -16q0 -1 -0.5 -3t-0.5 -3l-4 -19q56 53 108 53q54 0 72 -56q64 56 120 56q43 0 68 -25t25 -69q0 -25 -14 -90l-38 -171q44 -3 44 -45q0 -63 -72 -63h-71q-26 0 -26 22q0 4 2 14l54 255q5 23 5 36q0 16 -8 25
t-22 9q-19 0 -38 -23.5t-27 -58.5l-38 -171q44 -3 44 -45q0 -63 -72 -63h-71q-25 0 -25 21q0 5 2 15l54 255q5 23 5 36q0 16 -8 25t-22 9q-19 0 -38 -23.5t-27 -58.5l-39 -171q45 -3 45 -45q0 -63 -72 -63h-105q-48 0 -48 44q0 30 18 47t51 17h5z" />
    <glyph glyph-name="n" unicode="n" 
d="M190 108q50 0 50 -45q0 -63 -72 -63h-121q-48 0 -48 44q0 30 18 47t51 17h5l48 235h-13q-18 0 -29.5 12t-11.5 33q0 63 72 63h87q21 0 21 -20q0 -1 -0.5 -3t-0.5 -3l-5 -29q70 67 147 67q57 0 90.5 -32.5t33.5 -90.5q0 -28 -6 -58l-37 -174q51 0 51 -45q0 -63 -74 -63
h-116q-44 0 -44 44q0 58 63 64l36 169q2 9 2 27q0 56 -50 56q-36 0 -70.5 -29.5t-44.5 -75.5z" />
    <glyph glyph-name="o" unicode="o" 
d="M39 189q0 114 82 194.5t203 80.5q101 0 161 -55t60 -146q0 -114 -82 -194.5t-204 -80.5q-100 0 -160 54.5t-60 146.5zM313 364q-58 0 -100 -48.5t-42 -118.5q0 -50 28 -80t75 -30q59 0 99 49t40 123q0 46 -28 75.5t-72 29.5z" />
    <glyph glyph-name="p" unicode="p" 
d="M328 357q-54 0 -92.5 -44.5t-38.5 -109.5q0 -47 25.5 -74t68.5 -27q54 0 91.5 45t37.5 113q0 42 -25.5 69.5t-66.5 27.5zM140 -87h53q50 0 50 -44q0 -63 -72 -63h-202q-47 0 -47 44q0 63 74 63h25l92 430h-13q-18 0 -29.5 12t-11.5 33q0 63 72 63h80q20 0 20 -21v-5
l-5 -33q66 71 147 71q78 0 127 -52.5t49 -142.5q0 -114 -71 -189.5t-176 -75.5q-80 0 -131 50z" />
    <glyph glyph-name="q" unicode="q" 
d="M258 104q54 0 92 45.5t38 111.5q0 48 -25 76t-69 28q-54 0 -91 -46t-37 -116q0 -44 25.5 -71.5t66.5 -27.5zM553 451q51 0 51 -44q0 -63 -74 -63l-91 -431h34q50 0 50 -44q0 -63 -72 -63h-199q-47 0 -47 44q0 63 73 63h45l29 141q-56 -55 -141 -55q-82 0 -129.5 51.5
t-47.5 143.5q0 114 71 191.5t178 77.5q88 0 144 -72l7 30q4 18 10.5 24t24.5 6h84z" />
    <glyph glyph-name="r" unicode="r" 
d="M337 108q51 0 51 -45q0 -63 -74 -63h-231q-47 0 -47 44q0 30 18 47t51 17h5l48 235h-13q-18 0 -30 12.5t-12 32.5q0 63 72 63h88q21 0 21 -20q0 -1 -0.5 -3t-0.5 -3l-15 -71q122 110 219 110q40 0 62 -19.5t22 -52.5q0 -34 -19.5 -54t-52.5 -20q-26 0 -55.5 16t-38.5 16
q-17 0 -57.5 -24.5t-87.5 -69.5l-33 -148h110z" />
    <glyph glyph-name="s" unicode="s" 
d="M132 18q-14 -35 -45 -35q-42 0 -42 38q0 4 2 14l18 91q9 43 50 43q12 0 19.5 -4t10 -6.5t7 -15t6.5 -17.5q25 -56 119 -56q35 0 57.5 15.5t22.5 38.5q0 25 -21 37t-70 25q-5 1 -8 2q-80 22 -114 51t-34 81q0 65 52 105t143 40q67 0 143 -21q12 28 39 28q40 0 40 -37
q0 -4 -2 -16l-16 -74q-6 -34 -40 -34q-15 0 -25 5.5t-20 18.5t-11 14q-35 37 -97 37q-34 0 -54.5 -13t-20.5 -32q0 -7 2 -13t7.5 -10.5t10.5 -7.5t15.5 -6.5t17.5 -5.5t21.5 -5.5t22.5 -5.5q83 -23 119 -53.5t36 -89.5q0 -69 -57 -112.5t-154 -43.5q-75 0 -150 30z" />
    <glyph glyph-name="t" unicode="t" 
d="M159 314h-51q-18 0 -29.5 12t-11.5 33q0 64 72 64h44l24 115q7 34 21.5 48t51.5 14q47 0 47 -44q0 -6 -3 -23l-23 -111h143q51 0 51 -44q0 -64 -74 -64h-144l-23 -123q-6 -30 -6 -48q0 -47 55 -47q38 0 91.5 24t69.5 24q19 0 31.5 -12.5t12.5 -31.5q0 -40 -71.5 -73.5
t-173.5 -33.5q-140 0 -140 109q0 31 13 99z" />
    <glyph glyph-name="u" unicode="u" 
d="M387 344q-49 0 -49 44q0 63 72 63h92q21 0 21 -20q0 -1 -0.5 -3t-0.5 -3l-66 -316h13q18 0 30 -12.5t12 -33.5q0 -63 -72 -63h-88q-21 0 -21 20q0 1 0.5 3t0.5 3l6 30q-71 -68 -148 -68q-57 0 -90.5 32.5t-33.5 90.5q0 23 7 58l37 175q-51 0 -51 44q0 63 74 63h94
q21 0 21 -20q0 -1 -0.5 -3t-0.5 -3l-54 -251q-2 -10 -2 -27q0 -56 50 -56q36 0 71 30t45 76z" />
    <glyph glyph-name="v" unicode="v" 
d="M99 344q-24 4 -34 13.5t-10 30.5q0 29 18 46t46 17h119q51 0 51 -44q0 -60 -68 -63l42 -207l131 207q-24 4 -34 13.5t-10 30.5q0 29 17.5 46t45.5 17h110q51 0 51 -44q0 -58 -64 -63l-206 -308q-21 -32 -36 -40t-45 -8t-38.5 9.5t-15.5 39.5z" />
    <glyph glyph-name="w" unicode="w" 
d="M50 344q-25 4 -34.5 13t-9.5 31q0 29 17.5 46t45.5 17h111q51 0 51 -44q0 -60 -68 -63l-10 -250l88 195q13 27 26.5 38t39.5 11q28 0 38 -10.5t12 -40.5l14 -190l85 247q-24 4 -34 13.5t-10 30.5q0 29 17.5 46t45.5 17h108q51 0 51 -44q0 -58 -64 -63l-118 -294
q-13 -34 -32 -48t-55 -14q-34 0 -49 13t-17 45l-12 197l-95 -210q-20 -45 -80 -45q-39 0 -51.5 14t-12.5 50z" />
    <glyph glyph-name="x" unicode="x" 
d="M451 108q24 -4 34 -13.5t10 -30.5q0 -31 -18.5 -47.5t-53.5 -16.5h-92q-50 0 -50 46q0 50 45 54l-47 63l-71 -63q17 -10 17 -31q0 -69 -74 -69h-73q-51 0 -51 44q0 59 64 64l137 122l-86 114q-24 4 -34 13.5t-10 30.5q0 63 72 63h92q26 0 38 -10.5t12 -34.5
q0 -50 -46 -54l42 -56l61 56q-17 10 -17 30q0 69 75 69h73q50 0 50 -44q0 -58 -64 -63l-128 -113z" />
    <glyph glyph-name="y" unicode="y" 
d="M99 344q-24 4 -34 13.5t-10 30.5q0 29 18 46t46 17h119q51 0 51 -44q0 -60 -68 -63l42 -207l131 207q-24 4 -34 13.5t-10 30.5q0 29 17.5 46t45.5 17h110q51 0 51 -44q0 -58 -64 -63l-286 -431h23q51 0 51 -44q0 -63 -74 -63h-183q-47 0 -47 44q0 35 20.5 49t63.5 14h32
l66 97z" />
    <glyph glyph-name="z" unicode="z" 
d="M100 0q-51 0 -51 49q0 25 24 48l282 264h-140l-10 -48q-10 -46 -49 -46q-46 0 -46 39q0 5 2 15l21 94q4 21 15 28.5t34 7.5h288q52 0 52 -48q0 -26 -25 -49l-278 -264h146l14 57q12 46 49 46q46 0 46 -39q0 -5 -2 -15l-20 -101q-8 -38 -45 -38h-307z" />
    <glyph glyph-name="braceleft" unicode="{" 
d="M261 44q0 52 -12 73.5t-52 27.5q-54 7 -54 53t54 53q40 6 52 28t12 74v66q0 84 36 123t124 39q52 0 52 -43q0 -15 -8.5 -24t-19 -12t-31.5 -7q-4 -1 -6 -1q-26 -5 -33.5 -23t-7.5 -62v-48q0 -80 -20.5 -116.5t-80.5 -46.5q60 -10 80.5 -46t20.5 -116v-48q0 -44 6.5 -60.5
t32.5 -23.5q6 -2 18 -4t19 -4t15 -6.5t11.5 -12t3.5 -18.5q0 -43 -52 -43q-89 0 -124.5 39t-35.5 122v67z" />
    <glyph glyph-name="bar" unicode="|" 
d="M358 -208q0 -20 -15.5 -36.5t-41.5 -16.5q-25 0 -41.5 16t-16.5 37v943q0 20 16 36.5t42 16.5q25 0 41 -16t16 -37v-943z" />
    <glyph glyph-name="braceright" unicode="}" 
d="M337 353q0 -53 11.5 -74.5t51.5 -27.5q54 -7 54 -53t-54 -53q-40 -6 -51.5 -27t-11.5 -74v-67q0 -83 -36 -122t-125 -39q-52 0 -52 43q0 15 8.5 24t19 12t31.5 7q4 1 6 1q26 5 33.5 23t7.5 62v48q0 80 20.5 116t80.5 46q-60 10 -80.5 46.5t-20.5 116.5v48q0 44 -6.5 60.5
t-32.5 23.5q-6 2 -18 4t-19 4t-15 6.5t-11.5 12t-3.5 18.5q0 43 52 43q89 0 125 -39.5t36 -122.5v-66z" />
    <glyph glyph-name="asciitilde" unicode="~" 
d="M50 286q0 33 45 63.5t104 30.5q38 0 106.5 -21t97.5 -21t63.5 17.5t46.5 17.5q17 0 27.5 -11.5t10.5 -30.5q0 -34 -44.5 -64t-102.5 -30q-39 0 -107.5 21t-97.5 21t-64.5 -18t-45.5 -18q-18 0 -28.5 11.5t-10.5 31.5z" />
    <glyph glyph-name="exclamdown" unicode="&#xa1;" 
d="M358 366l-45 -303q-12 -77 -77 -77q-24 0 -37.5 13t-13.5 34q0 12 6 34l77 301q7 28 16.5 39t32.5 11q42 0 42 -37q0 -10 -1 -15zM421 525q0 -30 -21 -49.5t-56 -19.5q-36 0 -57 19t-21 50t21.5 50.5t56.5 19.5q34 0 55.5 -19.5t21.5 -50.5z" />
    <glyph glyph-name="cent" unicode="&#xa2;" 
d="M465 478q12 36 40 36q38 0 38 -33q0 -1 -0.5 -3t-1 -5t-0.5 -6l-17 -95q-7 -43 -49 -43q-13 0 -21.5 6.5t-11.5 12.5t-11 23q-12 27 -33 39.5t-58 12.5q-64 0 -103.5 -40.5t-39.5 -104.5q0 -40 25 -63t70 -23q38 0 72.5 13t58 25.5t36.5 12.5q16 0 27 -11.5t11 -28.5
q0 -38 -55.5 -68.5t-150.5 -34.5l-26 -98q-6 -23 -15 -28.5t-35 -5.5q-19 0 -27 3t-8 14q0 4 4 19l27 102q-129 35 -129 159q0 99 65.5 168.5t171.5 79.5l25 98q6 24 15.5 29.5t35.5 5.5q35 0 35 -18q0 -3 -4 -18l-27 -102q41 -11 66 -30z" />
    <glyph glyph-name="sterling" unicode="&#xa3;" 
d="M194 255h-54q-22 0 -22 16q0 6 1 9l8 40q5 21 23 21h49q-3 27 -3 52q0 116 54 177.5t155 61.5q70 0 111.5 -20.5t41.5 -54.5q0 -6 -1 -12l-6 -46q-6 -48 -51 -48q-17 0 -24.5 6.5t-11.5 20.5q-13 42 -25 52t-36 10q-21 0 -35 -8t-23.5 -21.5t-15.5 -40.5t-9.5 -55
t-6.5 -74h150q19 0 19 -17q0 -1 -0.5 -3t-0.5 -3l-9 -45q-4 -18 -23 -18h-144q-6 -59 -19.5 -94.5t-44.5 -60.5q40 9 57 9q18 0 49 -7t45 -7q21 0 50 9.5t38 9.5q13 0 22.5 -13.5t9.5 -35.5q0 -32 -37.5 -56t-93.5 -24q-34 0 -91 17t-83 17q-24 0 -53 -17t-36 -17
q-17 0 -28.5 17.5t-11.5 41.5q0 16 9.5 25t27.5 19t29 21q44 45 50 146z" />
    <glyph glyph-name="fraction" unicode="&#x2044;" 
d="M121 -76q-30 -48 -57 -48q-18 0 -36.5 15.5t-18.5 31.5q0 23 23 58l436 675q30 48 57 48q17 0 36 -14.5t19 -31.5q0 -24 -23 -59z" />
    <glyph glyph-name="yen" unicode="&#xa5;" 
d="M198 98l27 156h-146q-37 0 -37 34q0 35 37 35h122l-19 64h-82q-37 0 -37 35t37 35h61l-17 58h-13q-18 0 -30 12t-12 31q0 27 19.5 42.5t53.5 15.5h118q41 0 41 -42q0 -54 -58 -59l46 -178l111 178q-42 2 -42 42q0 27 16 43t44 16h106q47 0 47 -42q0 -51 -59 -59l-37 -58
h40q37 0 37 -35t-37 -35h-91l-47 -64h117q36 0 36 -35q0 -34 -36 -34h-166l-27 -156h75q18 0 30 -11.5t12 -30.5q0 -26 -19 -41t-52 -15h-256q-48 0 -48 43q0 22 18 38.5t41 16.5h76z" />
    <glyph glyph-name="florin" unicode="&#x192;" 
d="M252 316l-71 -1q-23 0 -23 18q0 1 0.5 2.5t0.5 2.5l11 37q6 21 31 21h77l24 74q28 87 83.5 124t151.5 37q40 0 58 -12.5t18 -42.5q0 -52 -69 -52h-25q-41 0 -62.5 -11.5t-31.5 -41.5l-25 -74l81 -1q22 0 22 -18l-1 -2v-3l-11 -37q-6 -21 -31 -21l-86 1l-96 -294
q-28 -87 -83.5 -124t-151.5 -37q-40 0 -58 12.5t-18 42.5q0 52 69 52h26q41 0 62.5 11t31.5 42z" />
    <glyph glyph-name="section" unicode="&#xa7;" 
d="M400 101q26 17 26 40q0 28 -57 74l-111 92l-7 5q-7 6 -9.5 8t-9 8.5t-10.5 12t-10 14.5t-11 20q-26 -17 -26 -40q0 -29 56 -74l112 -92l7 -5q7 -6 9.5 -8t9 -8.5t10.5 -12t10 -14.5t11 -20zM137 -19h95q40 0 59.5 11t19.5 38q0 14 -6.5 22.5t-24.5 23.5l-123 102
q-42 35 -60 62.5t-18 68.5q0 92 107 125q4 65 48 105t109 40h186q37 0 37 -22q0 -3 -2 -15l-14 -67q-7 -35 -19 -49.5t-37 -14.5q-41 0 -41 29q0 12 4 27l7 28h-95q-40 0 -59.5 -11t-19.5 -38q0 -14 6.5 -22.5t24.5 -23.5l123 -102q41 -34 59.5 -62.5t18.5 -69.5
q0 -91 -107 -124q-4 -65 -48 -105t-109 -40h-186q-37 0 -37 22q0 3 2 15l14 67q7 35 18.5 49.5t36.5 14.5q42 0 42 -29q0 -12 -4 -27z" />
    <glyph glyph-name="currency" unicode="&#xa4;" 
d="M109 189l-50 51l89 89q-31 46 -31 103q0 58 31 104l-89 89l50 50l88 -90q45 32 104 32t103 -32l89 90l50 -50l-90 -89q31 -46 31 -104q0 -57 -31 -103l90 -89l-50 -51l-89 91q-46 -33 -103 -33t-104 33zM190 432q0 -47 32.5 -79.5t78.5 -32.5t78.5 33t32.5 79t-32.5 79
t-78.5 33t-78.5 -33t-32.5 -79z" />
    <glyph glyph-name="quotesingle" unicode="'" 
d="M285 324q-14 0 -19.5 7.5t-7.5 24.5l-15 191v7q0 25 23 25h69q24 0 24 -26v-6l-16 -191q-2 -18 -7 -25t-19 -7h-32z" />
    <glyph glyph-name="quotedblleft" unicode="&#x201c;" 
d="M330 550l-96 -209q-9 -18 -29 -18h-88q-11 0 -11 11q0 4 2 6l164 244q9 13 21 13q7 0 10 -2l27 -14q8 -4 8 -12q0 -1 -8 -19zM542 550l-96 -209q-9 -18 -29 -18h-88q-11 0 -11 11q0 4 2 6l164 244q9 13 21 13q7 0 10 -2l27 -14q8 -4 8 -12q0 -1 -8 -19z" />
    <glyph glyph-name="guillemotleft" unicode="&#xab;" 
d="M388 225l47 -138q2 -5 2 -13q0 -16 -11 -27t-28 -11q-27 0 -34 20l-61 157q-5 15 -5 21q0 7 10 24l92 136q10 14 28 14q15 0 27.5 -11t12.5 -26q0 -12 -6 -21zM216 225l47 -138q2 -8 2 -13q0 -16 -11.5 -27t-28.5 -11q-26 0 -33 20l-61 157q-5 15 -5 21q0 7 10 24l91 136
q10 14 29 14q15 0 27.5 -11t12.5 -26q0 -12 -6 -21z" />
    <glyph glyph-name="guilsinglleft" unicode="&#x2039;" 
d="M310 225l47 -138q2 -5 2 -13q0 -16 -11 -27t-28 -11q-26 0 -33 20l-61 157q-6 18 -6 21q0 7 10 24l92 136q10 14 29 14q15 0 27 -11t12 -26q0 -13 -5 -21z" />
    <glyph glyph-name="guilsinglright" unicode="&#x203a;" 
d="M300 222l-47 138q-2 8 -2 13q0 16 11.5 26.5t28.5 10.5q26 0 33 -20l61 -156q5 -15 5 -21q0 -10 -9 -25l-92 -136q-10 -14 -29 -14q-15 0 -27.5 11t-12.5 26q0 12 6 21z" />
    <glyph glyph-name="fi" unicode="&#xfb01;" 
d="M536 451q21 0 21 -20q0 -1 -0.5 -3t-0.5 -3l-70 -317q50 0 50 -45q0 -63 -72 -63h-121q-48 0 -48 44q0 30 18 47t51 17h5l48 235h-13q-18 0 -29.5 12t-11.5 33q0 63 72 63h101zM125 451q33 187 192 187q99 0 99 -58q0 -20 -14.5 -33t-37.5 -13q-9 0 -22.5 1t-18.5 1
q-35 0 -51.5 -18.5t-29.5 -66.5h11q29 0 41.5 -10t12.5 -34q0 -63 -74 -63h-14l-48 -236h11q53 0 53 -45q0 -63 -72 -63h-136q-48 0 -48 44q0 30 18 47t51 17h5l48 235h-13q-18 0 -29.5 12t-11.5 33q0 28 17 45.5t44 17.5h17zM514 519q-32 0 -42.5 4.5t-10.5 21.5
q0 47 23 96q8 19 20 25t40 6q32 0 41 -6.5t9 -32.5q0 -42 -19 -84q-9 -20 -20 -25t-41 -5z" />
    <glyph glyph-name="fl" unicode="&#xfb02;" 
d="M125 451q18 96 67.5 142t136.5 46h248q21 0 21 -20q0 -1 -0.5 -3t-0.5 -3l-111 -505q50 0 50 -45q0 -63 -72 -63h-121q-48 0 -48 44q0 29 17.5 46.5t49.5 17.5h7l90 422h-110q-24 0 -34.5 -0.5t-24.5 -4.5t-21 -12.5t-14 -23t-13 -38.5h11q29 0 41.5 -10t12.5 -34
q0 -63 -74 -63h-14l-49 -236q50 0 50 -45q0 -63 -72 -63h-121q-48 0 -48 44q0 30 18 47t51 17h5l48 235h-13q-18 0 -29.5 12t-11.5 33q0 28 17 45.5t44 17.5h17z" />
    <glyph glyph-name="endash" unicode="&#x2013;" 
d="M-9 179q-9 0 -15.5 6.5t-6.5 15.5q0 1 0.5 2.5t0.5 2.5l10 42q4 24 21 24h610q9 0 15.5 -6.5t6.5 -15.5q0 -1 -0.5 -2.5t-0.5 -2.5l-9 -42q-5 -24 -21 -24h-611z" />
    <glyph glyph-name="dagger" unicode="&#x2020;" 
d="M310 68q-10 -46 -25.5 -64.5t-47.5 -18.5q-51 0 -51 44q0 13 4 30l60 286h-67q-17 0 -28.5 12t-11.5 32q0 60 70 60h60l13 63q10 46 25.5 64.5t47.5 18.5q25 0 38.5 -12t13.5 -32q0 -8 -5 -30l-15 -72h72q40 0 40 -41q0 -30 -18 -46.5t-52 -16.5h-64z" />
    <glyph glyph-name="daggerdbl" unicode="&#x2021;" 
d="M321 68q-10 -46 -25.5 -64.5t-47.5 -18.5q-51 0 -51 44q0 13 4 30l18 85h-72q-40 0 -40 41q0 30 18 46.5t52 16.5h64l21 97h-68q-17 0 -28.5 12t-11.5 32q0 60 70 60h60l13 63q10 46 25.5 64.5t47.5 18.5q25 0 38.5 -12t13.5 -32q0 -13 -4 -30l-16 -72h72q40 0 40 -41
q0 -30 -18 -46.5t-52 -16.5h-64l-20 -97h67q17 0 28.5 -12t11.5 -32q0 -60 -70 -60h-60z" />
    <glyph glyph-name="periodcentered" unicode="&#xb7;" 
d="M202 310q0 41 29 70t70 29t70 -29t29 -70q0 -42 -29 -71t-70 -29q-42 0 -70.5 29t-28.5 71z" />
    <glyph glyph-name="paragraph" unicode="&#xb6;" 
d="M504 616q32 0 46.5 -12t14.5 -42q0 -54 -53 -54h-8v-477h8q53 0 53 -54q0 -30 -14.5 -41.5t-46.5 -11.5h-96q-37 0 -37 40q0 22 18 41v503h-56v-503q21 -13 21 -41q0 -23 -8 -31.5t-30 -8.5h-101q-32 0 -46.5 11.5t-14.5 41.5q0 54 53 54h8v226q-80 12 -124.5 59
t-44.5 117q0 88 75 135.5t221 47.5h162z" />
    <glyph glyph-name="bullet" unicode="&#x2022;" 
d="M223 334q0 33 23 56t55 23t55 -23.5t23 -55.5t-23 -55t-55 -23t-55 22.5t-23 55.5z" />
    <glyph glyph-name="quotesinglbase" unicode="&#x201a;" 
d="M168 -62l97 210q8 18 29 18h87q11 0 11 -11q0 -4 -2 -6l-163 -244q-9 -13 -22 -13q-7 0 -10 2l-27 14q-7 4 -7 12q0 3 7 18z" />
    <glyph glyph-name="quotedblbase" unicode="&#x201e;" 
d="M261 -62l96 210q8 18 30 18h87q11 0 11 -11q0 -4 -2 -6l-164 -244q-9 -13 -21 -13q-7 0 -10 2l-27 14q-7 4 -7 12q0 3 7 18zM49 -62l96 210q8 18 30 18h87q11 0 11 -11q0 -4 -2 -6l-164 -244q-9 -13 -21 -13q-7 0 -10 2l-27 14q-7 4 -7 12q0 3 7 18z" />
    <glyph glyph-name="quotedblright" unicode="&#x201d;" 
d="M122 351l97 210q8 18 29 18h87q11 0 11 -11q0 -4 -2 -6l-163 -244q-9 -13 -22 -13q-7 0 -10 2l-27 14q-7 3 -7 12q0 3 7 18zM334 351l97 210q8 18 29 18h87q11 0 11 -11q0 -4 -2 -6l-163 -244q-9 -13 -22 -13q-7 0 -10 2l-27 14q-7 3 -7 12q0 3 7 18z" />
    <glyph glyph-name="guillemotright" unicode="&#xbb;" 
d="M206 222l-47 138q-2 5 -2 13q0 16 11 26.5t28 10.5q27 0 34 -20l61 -156q5 -15 5 -21q0 -8 -10 -25l-92 -136q-10 -14 -28 -14q-15 0 -27.5 11t-12.5 26q0 13 5 21zM378 222l-47 138q-2 8 -2 13q0 16 11.5 26.5t28.5 10.5q26 0 33 -20l61 -156q5 -15 5 -21q0 -8 -10 -25
l-91 -136q-10 -14 -29 -14q-15 0 -27.5 11t-12.5 26q0 12 6 21z" />
    <glyph glyph-name="ellipsis" unicode="&#x2026;" 
d="M-11 60q0 30 21.5 51.5t51.5 21.5t51 -21.5t21 -51.5t-21 -51t-51 -21t-51.5 21t-21.5 51zM191 60q0 30 21 51.5t51 21.5t51 -21.5t21 -51.5t-21 -51t-51 -21t-51 21t-21 51zM391 60q0 30 21.5 51.5t51.5 21.5t51 -21.5t21 -51.5t-21 -51t-51 -21t-51.5 21t-21.5 51z" />
    <glyph glyph-name="perthousand" unicode="&#x2030;" 
d="M-44 499q0 57 40.5 95t103.5 38q62 0 102.5 -38t40.5 -95t-40 -95t-103 -38t-103.5 38t-40.5 95zM166 499q0 26 -18 43t-48 17t-48 -17t-18 -43t18 -42.5t48 -16.5t48 16.5t18 42.5zM-21 272l328 130q7 3 13 3q13 0 21.5 -9.5t8.5 -23.5q0 -19 -20 -27l-328 -131
q-7 -3 -13 -3q-13 0 -21.5 10t-8.5 25q0 18 20 26zM69 117q0 57 40.5 95t102.5 38q63 0 103.5 -38t40.5 -95t-40.5 -95t-103.5 -38t-103 38t-40 95zM278 117q0 26 -18 42.5t-48 16.5t-47.5 -16.5t-17.5 -42.5t17.5 -42.5t47.5 -16.5t48 16.5t18 42.5zM377 117q0 57 40.5 95
t103.5 38q62 0 102.5 -38t40.5 -95t-40 -95t-103 -38t-103.5 38t-40.5 95zM586 117q0 26 -17.5 42.5t-47.5 16.5t-48 -16.5t-18 -42.5t18 -42.5t48 -16.5t47.5 16.5t17.5 42.5z" />
    <glyph glyph-name="questiondown" unicode="&#xbf;" 
d="M484 525q0 -30 -21 -49.5t-56 -19.5q-36 0 -57 19t-21 50t21.5 50.5t56.5 19.5q34 0 55.5 -19.5t21.5 -50.5zM309 337l8 32q12 48 68 48q50 0 50 -39q0 -8 -1 -12l-6 -27q-12 -56 -72 -83l-57 -25q-31 -13 -49.5 -39.5t-18.5 -55.5q0 -24 17 -40t44 -16q56 0 74 35
q1 2 6.5 14.5t9 16.5t13.5 9.5t24 5.5q42 0 42 -29q0 -7 -1 -11l-13 -62q-15 -72 -174 -72q-83 0 -129 40.5t-46 113.5q0 144 211 196z" />
    <glyph glyph-name="grave" unicode="`" 
d="M362 499l-219 86q-16 6 -16 23q0 8 3 12l25 38q9 14 23 14q9 0 18 -6l190 -131z" />
    <glyph glyph-name="acute" unicode="&#xb4;" 
d="M300 499l-24 36l190 131q9 6 18 6q14 0 23 -14l25 -38q4 -5 4 -12q0 -17 -17 -23z" />
    <glyph glyph-name="circumflex" unicode="&#x2c6;" 
d="M356 584l-149 -67q-17 -7 -23 -7q-8 0 -14 5.5t-6 12.5q0 4 1 7t4 6t5 4.5t7 5t8 5.5l141 97q12 9 27 9q19 0 33 -14l94 -93q15 -15 15 -22q0 -21 -23 -21q-11 0 -20 6z" />
    <glyph glyph-name="tilde" unicode="&#x2dc;" 
d="M283 634q34 0 83.5 -15.5t61.5 -15.5q20 0 44 17.5t30 17.5t11 -4.5t5 -9.5q0 -27 -39 -57.5t-84 -30.5q-33 0 -82 15.5t-62 15.5q-20 0 -44 -17t-30 -17q-16 0 -16 14q0 27 39 57t83 30z" />
    <glyph glyph-name="macron" unicode="&#xaf;" 
d="M494 613q12 0 12 -13v-3l-8 -36q-3 -14 -12 -14h-307q-13 0 -13 13v3l8 36q3 14 13 14h307z" />
    <glyph glyph-name="breve" unicode="&#x2d8;" 
d="M320 528q-74 0 -117.5 29t-43.5 76q0 27 19 27q7 0 12.5 -4.5t12.5 -13.5t10 -12q30 -30 114 -30q92 0 131 22q11 6 27.5 21t26.5 15q15 0 15 -17q0 -36 -59 -74.5t-148 -38.5z" />
    <glyph glyph-name="dotaccent" unicode="&#x2d9;" 
d="M266 590q0 26 20 45.5t46 19.5q27 0 46.5 -19t19.5 -46q0 -28 -19 -47.5t-47 -19.5t-47 19.5t-19 47.5z" />
    <glyph glyph-name="dieresis" unicode="&#xa8;" 
d="M149 582q0 24 19 43t44 19t42.5 -18.5t17.5 -43.5q0 -28 -17 -45t-43 -17t-44.5 18t-18.5 44zM391 582q0 24 19 43t44 19t43 -18.5t18 -43.5q0 -28 -17.5 -45t-43.5 -17t-44.5 18t-18.5 44z" />
    <glyph glyph-name="ring" unicode="&#x2da;" 
d="M231 632q0 55 38.5 93.5t93.5 38.5t93.5 -38.5t38.5 -93.5t-38.5 -93.5t-93.5 -38.5t-93.5 38.5t-38.5 93.5zM301 633q0 -26 18 -44.5t44 -18.5t44 18.5t18 44.5q0 25 -18.5 43.5t-43.5 18.5q-26 0 -44 -18t-18 -44z" />
    <glyph glyph-name="cedilla" unicode="&#xb8;" 
d="M264 0l-14 -64q2 0 7 0.5t8 0.5q41 0 64.5 -20t23.5 -52q0 -40 -35.5 -68t-90.5 -28q-58 0 -94.5 13.5t-36.5 33.5q0 10 7 16.5t16 6.5t40.5 -11.5t53.5 -11.5q23 0 38 12t15 31q0 34 -45 34q-13 0 -21 -1l22 108h42z" />
    <glyph glyph-name="hungarumlaut" unicode="&#x2dd;" 
d="M218 503l-19 28l160 125q11 8 18 8q11 0 16 -9l17 -31q3 -4 3 -10q0 -12 -18 -22zM380 503l-19 28l160 125q11 8 18 8q11 0 16 -9l18 -31q2 -3 2 -10q0 -12 -18 -22z" />
    <glyph glyph-name="ogonek" unicode="&#x2db;" 
d="M378 14q-106 -77 -106 -141q0 -40 34 -40q32 0 58 37l23 -18q-19 -36 -52.5 -56.5t-70.5 -20.5q-35 0 -55.5 18.5t-20.5 52.5q0 81 164 168h26z" />
    <glyph glyph-name="caron" unicode="&#x2c7;" 
d="M308 587l149 67q17 7 22 7q8 0 14 -5.5t6 -12.5q0 -4 -1 -7t-4 -6l-4.5 -4.5t-7 -5.5t-7.5 -5l-141 -97q-11 -8 -27 -8q-21 0 -34 13l-94 93q-14 14 -14 23q0 20 22 20q11 0 20 -6z" />
    <glyph glyph-name="emdash" unicode="&#x2014;" 
d="M-9 179q-9 0 -15.5 6.5t-6.5 15.5q0 1 0.5 2.5t0.5 2.5l10 42q4 24 21 24h610q9 0 15.5 -6.5t6.5 -15.5q0 -1 -0.5 -2.5t-0.5 -2.5l-9 -42q-5 -24 -21 -24h-611z" />
    <glyph glyph-name="AE" unicode="&#xc6;" 
d="M201 0q-47 0 -47 44q0 28 17 46t42 18h27l14 71h-120l-74 -153q-13 -26 -39 -26h-52q-47 0 -47 44q0 28 17 46t42 18h22l187 374h-15q-17 0 -29 12t-12 30q0 55 69 55h413q36 0 36 -25q0 -5 -1 -7l-26 -128q-6 -29 -16.5 -42.5t-33.5 -13.5q-38 0 -38 36q0 14 3 29l12 54
h-140l-33 -157h34q3 29 14 42t33 13q36 0 36 -38q0 -2 -2 -18l-10 -52q-5 -28 -14 -40t-32 -12q-38 0 -38 33q0 8 3 23h-34l-35 -168h138l8 42q13 71 57 71q19 0 27 -8t8 -29q0 -12 -3 -25l-24 -120q-8 -39 -45 -39h-299zM171 253h98l49 229h-35z" />
    <glyph glyph-name="ordfeminine" unicode="&#xaa;" 
d="M435 356q1 0 4 -0.5t5 -0.5q14 0 23 -9.5t9 -25.5q0 -51 -60 -51h-34q-19 0 -27.5 7.5t-9.5 26.5q-73 -42 -138 -42q-55 0 -84.5 27t-29.5 78q0 60 52.5 96.5t142.5 36.5q38 0 83 -9q4 17 4 38q0 18 -13.5 30t-36.5 12q-27 0 -71 -19t-61 -19q-34 0 -34 31q0 36 48 57
t133 21q131 0 131 -100q0 -14 -5 -39zM345 369l13 61q-46 8 -68 8q-45 0 -71 -17t-26 -45q0 -40 50 -40q46 0 102 33z" />
    <glyph glyph-name="Lslash" unicode="&#x141;" 
d="M44 0q-47 0 -47 44q0 28 17 46t42 18h35l17 89l-48 -28q-8 -5 -17 -5q-12 0 -20 10.5t-8 26.5q0 19 25 35l87 53l38 182h-33q-18 0 -30 11.5t-12 32.5q0 64 72 64h181q48 0 48 -45q0 -30 -18.5 -46.5t-50.5 -16.5h-32l-23 -115l114 66q9 6 17 6q12 0 20 -10.5t8 -26.5
q0 -20 -25 -36l-154 -93l-32 -154h214l7 42q7 39 21 55t42 16q44 0 44 -43q0 -8 -3 -20l-25 -119q-5 -22 -14.5 -30.5t-30.5 -8.5h-426z" />
    <glyph glyph-name="Oslash" unicode="&#xd8;" 
d="M46 95q-30 65 -30 132q0 69 25.5 138.5t71.5 123.5q90 106 235 106q91 0 151 -46l54 51q14 14 26 14q13 0 26 -13t13 -26t-13 -26l-55 -56q34 -58 34 -146q0 -131 -76 -234q-93 -128 -253 -128q-99 0 -161 52l-61 -58q-13 -13 -26 -13t-26.5 13t-13.5 26q0 12 14 26z
M161 208l247 250q-35 27 -73 27q-69 0 -122.5 -75.5t-53.5 -174.5q0 -2 0.5 -5.5t1 -10t0.5 -11.5zM444 386l-254 -253q34 -36 80 -36q69 0 122.5 76.5t53.5 173.5q0 13 -2 39z" />
    <glyph glyph-name="OE" unicode="&#x152;" 
d="M219 0q-214 0 -214 217q0 83 33.5 162t86.5 128q79 72 224 72h267q36 0 36 -25q0 -5 -1 -7l-26 -128q-6 -29 -16.5 -42.5t-33.5 -13.5q-38 0 -38 36q0 14 3 29l9 43h-139l-26 -123h34q3 29 14 42t33 13q36 0 36 -38q0 -10 -2 -18l-19 -98q-5 -28 -14 -40t-32 -12
q-39 0 -39 34q0 2 4 22h-34l-31 -145h138l8 42q13 71 57 71q19 0 27 -8t8 -29q0 -12 -3 -25l-24 -120q-8 -39 -45 -39h-281zM233 106l78 370q-5 1 -15 1q-71 0 -123 -75.5t-52 -179.5q0 -57 24.5 -87t69.5 -30q12 0 18 1z" />
    <glyph glyph-name="ordmasculine" unicode="&#xba;" 
d="M90 420q0 92 66 155.5t162 63.5q81 0 128.5 -44t47.5 -117q0 -92 -66 -155.5t-163 -63.5q-79 0 -127 44t-48 117zM309 560q-46 0 -79.5 -39t-33.5 -94q0 -41 22 -65t60 -24q46 0 78.5 39t32.5 98q0 37 -22 61t-58 24z" />
    <glyph glyph-name="ae" unicode="&#xe6;" 
d="M248 141l6 56h-91q-34 0 -56 -19.5t-22 -47.5q0 -22 13 -34t36 -12q50 0 114 57zM366 271h110q3 22 3 35q0 62 -38 62q-45 0 -75 -97zM258 64q-74 -75 -161 -75q-57 0 -90.5 32.5t-33.5 86.5q0 75 49.5 119t139.5 44h100q5 32 5 48q0 51 -54 51q-25 0 -66.5 -18.5
t-58.5 -18.5q-36 0 -36 35q0 39 51.5 67.5t120.5 28.5q78 0 112 -60q59 58 130 58q121 0 121 -154q0 -67 -14.5 -89t-53.5 -22h-168q-6 -44 -6 -54q0 -23 16 -37t44 -14q32 0 69.5 26t49.5 26q14 0 23 -9t9 -24q0 -40 -51 -81.5t-118 -41.5q-93 0 -129 76z" />
    <glyph glyph-name="dotlessi" unicode="&#x131;" 
d="M431 108q51 0 51 -45q0 -63 -74 -63h-313q-47 0 -47 44q0 64 74 64h92l49 235h-60q-18 0 -30 12.5t-12 32.5q0 63 72 63h148q22 0 22 -20q0 -1 -0.5 -3t-0.5 -3l-68 -317h97z" />
    <glyph glyph-name="lslash" unicode="&#x142;" 
d="M390 417l71 45q20 12 27 12q11 0 20 -11.5t9 -27.5q0 -19 -25 -35l-123 -83l-45 -209h86q33 0 47.5 -9.5t14.5 -35.5q0 -63 -74 -63h-313q-47 0 -47 44q0 64 74 64h91l31 147l-71 -45q-20 -12 -28 -12q-11 0 -19.5 11t-8.5 27q0 20 25 36l123 83l38 175h-61
q-18 0 -29.5 12t-11.5 33q0 64 72 64h148q21 0 21 -20q0 -1 -0.5 -3t-0.5 -3z" />
    <glyph glyph-name="oslash" unicode="&#xf8;" 
d="M69 77q-30 50 -30 111q0 115 82.5 195.5t203.5 80.5q77 0 141 -40l67 56q12 9 22 9q12 0 24.5 -13.5t12.5 -24.5t-14 -23l-62 -56q29 -49 29 -109q0 -116 -81.5 -195.5t-210.5 -79.5q-73 0 -134 38l-89 -76q-10 -9 -22 -9t-24.5 13.5t-12.5 24.5t14 23zM175 163l204 178
q-27 23 -65 23q-60 0 -101.5 -48.5t-41.5 -115.5q0 -9 4 -37zM410 287l-204 -177q31 -23 68 -23q58 0 99 48.5t41 115.5q0 8 -4 36z" />
    <glyph glyph-name="oe" unicode="&#x153;" 
d="M366 271h110q3 22 3 35q0 62 -38 62q-45 0 -75 -97zM260 62q-62 -70 -126 -70t-102 45.5t-38 124.5q0 125 65 213t148 88q41 0 72.5 -22t48.5 -50q57 71 138 71q121 0 121 -154q0 -67 -14.5 -89t-53.5 -22h-168q-6 -33 -6 -54q0 -23 16 -37t44 -14q32 0 69.5 26t49.5 26
q14 0 23 -9t9 -24q0 -40 -51 -81.5t-118 -41.5q-90 0 -127 74zM96 173q0 -39 16 -60.5t44 -21.5q40 0 73 58.5t33 131.5q0 39 -16 60.5t-44 21.5q-40 0 -73 -58.5t-33 -131.5z" />
    <glyph glyph-name="germandbls" unicode="&#xdf;" 
d="M32 0q-47 0 -47 44q0 30 18 47t51 17h5l72 339q21 98 76.5 145t151.5 47q77 0 120.5 -35.5t43.5 -94.5q0 -49 -30.5 -84.5t-88.5 -51.5q59 -9 90.5 -46t31.5 -96q0 -112 -62 -178.5t-172 -66.5q-79 0 -79 48q0 14 4.5 23.5t9.5 15t17 9t19.5 4.5t25 2.5t25.5 2.5
q40 4 64.5 45t24.5 99q0 44 -17 64t-60 29q-27 6 -38 12.5t-11 21.5q0 9 3 15.5t6 10.5t11 7.5t12 5t16 4.5l16 4q58 15 58 75q0 25 -15.5 41t-38.5 16q-74 0 -99 -119l-84 -395q-4 -17 -10.5 -22t-24.5 -5h-95z" />
    <glyph glyph-name="Aacute" unicode="&#xc1;" 
d="M231 264h141l-30 214zM235 471h-47q-18 0 -30 11.5t-12 32.5q0 64 72 64h187q35 0 39 -32l65 -439h11q18 0 29.5 -11.5t11.5 -32.5q0 -64 -72 -64h-142q-48 0 -48 44q0 30 18.5 47t50.5 17h24l-7 54h-206l-29 -54h5q50 0 50 -45q0 -63 -72 -63h-129q-48 0 -48 44
q0 28 17.5 46t42.5 18h18zM324 631l-24 36l190 131q9 6 18 6q14 0 23 -14l25 -38q4 -5 4 -12q0 -17 -17 -23z" />
    <glyph glyph-name="Acircumflex" unicode="&#xc2;" 
d="M231 264h141l-30 214zM235 471h-47q-18 0 -30 11.5t-12 32.5q0 64 72 64h187q35 0 39 -32l65 -439h11q18 0 29.5 -11.5t11.5 -32.5q0 -64 -72 -64h-142q-48 0 -48 44q0 30 18.5 47t50.5 17h24l-7 54h-206l-29 -54h5q50 0 50 -45q0 -63 -72 -63h-129q-48 0 -48 44
q0 28 17.5 46t42.5 18h18zM380 716l-149 -67q-17 -7 -23 -7q-8 0 -14 5.5t-6 12.5q0 4 1 7t4 6t5 4.5t7 5t8 5.5l141 97q12 9 27 9q19 0 33 -14l94 -93q15 -15 15 -22q0 -21 -23 -21q-11 0 -20 6z" />
    <glyph glyph-name="Adieresis" unicode="&#xc4;" 
d="M231 264h141l-30 214zM235 471h-47q-18 0 -30 11.5t-12 32.5q0 64 72 64h187q35 0 39 -32l65 -439h11q18 0 29.5 -11.5t11.5 -32.5q0 -64 -72 -64h-142q-48 0 -48 44q0 30 18.5 47t50.5 17h24l-7 54h-206l-29 -54h5q50 0 50 -45q0 -63 -72 -63h-129q-48 0 -48 44
q0 28 17.5 46t42.5 18h18zM173 714q0 24 19 43t44 19t42.5 -18.5t17.5 -43.5q0 -28 -17 -45t-43 -17t-44.5 18t-18.5 44zM415 714q0 24 19 43t44 19t43 -18.5t18 -43.5q0 -28 -17.5 -45t-43.5 -17t-44.5 18t-18.5 44z" />
    <glyph glyph-name="Agrave" unicode="&#xc0;" 
d="M231 264h141l-30 214zM235 471h-47q-18 0 -30 11.5t-12 32.5q0 64 72 64h187q35 0 39 -32l65 -439h11q18 0 29.5 -11.5t11.5 -32.5q0 -64 -72 -64h-142q-48 0 -48 44q0 30 18.5 47t50.5 17h24l-7 54h-206l-29 -54h5q50 0 50 -45q0 -63 -72 -63h-129q-48 0 -48 44
q0 28 17.5 46t42.5 18h18zM386 631l-219 86q-16 6 -16 23q0 8 3 12l25 38q9 14 23 14q9 0 18 -6l190 -131z" />
    <glyph glyph-name="Aring" unicode="&#xc5;" 
d="M200 743q0 55 38.5 93.5t93.5 38.5t93.5 -38.5t38.5 -93.5t-38.5 -93.5t-93.5 -38.5t-93.5 38.5t-38.5 93.5zM270 744q0 -26 18 -44.5t44 -18.5t44 18.5t18 44.5t-18 44t-44 18t-44 -18t-18 -44zM235 471h-47q-18 0 -30 11.5t-12 32.5q0 64 72 64h187q35 0 39 -32
l65 -439h11q18 0 29.5 -11.5t11.5 -32.5q0 -64 -72 -64h-142q-48 0 -48 44q0 30 18.5 47t50.5 17h24l-7 54h-206l-29 -54h5q50 0 50 -45q0 -63 -72 -63h-129q-48 0 -48 44q0 28 17.5 46t42.5 18h18zM231 264h141l-30 214z" />
    <glyph glyph-name="Atilde" unicode="&#xc3;" 
d="M231 264h141l-30 214zM235 471h-47q-18 0 -30 11.5t-12 32.5q0 64 72 64h187q35 0 39 -32l65 -439h11q18 0 29.5 -11.5t11.5 -32.5q0 -64 -72 -64h-142q-48 0 -48 44q0 30 18.5 47t50.5 17h24l-7 54h-206l-29 -54h5q50 0 50 -45q0 -63 -72 -63h-129q-48 0 -48 44
q0 28 17.5 46t42.5 18h18zM307 766q34 0 83.5 -15.5t61.5 -15.5q20 0 44 17.5t30 17.5t11 -4.5t5 -9.5q0 -27 -39 -57.5t-84 -30.5q-33 0 -82 15.5t-62 15.5q-20 0 -44 -17t-30 -17q-16 0 -16 14q0 27 39 57t83 30z" />
    <glyph glyph-name="Ccedilla" unicode="&#xc7;" 
d="M512 563q20 31 51 31q36 0 36 -31q0 -9 -4 -26l-29 -137q-10 -46 -50 -46q-27 0 -36.5 8.5t-9.5 34.5v10q0 37 -26.5 58.5t-72.5 21.5q-81 0 -141.5 -79.5t-60.5 -184.5q0 -63 31.5 -97.5t91.5 -34.5q39 0 78.5 17t70.5 34t48 17t28.5 -12t11.5 -30q0 -45 -82.5 -88.5
t-193.5 -43.5q-103 0 -162 59.5t-59 159.5q0 72 26.5 145.5t70.5 127.5q97 118 253 118q68 0 130 -32zM271 0l-14 -64q2 0 7 0.5t8 0.5q41 0 64.5 -20t23.5 -52q0 -40 -35.5 -68t-90.5 -28q-58 0 -94.5 13.5t-36.5 33.5q0 10 7 16.5t16 6.5t40.5 -11.5t53.5 -11.5
q23 0 38 12t15 31q0 34 -45 34q-13 0 -21 -1l22 108h42z" />
    <glyph glyph-name="Eacute" unicode="&#xc9;" 
d="M557 579q36 0 36 -25q0 -5 -1 -7l-26 -128q-7 -31 -17 -43t-37 -12q-44 0 -44 35q0 13 3 29l9 43h-215l-24 -123h77q6 34 18.5 48t38.5 14q42 0 42 -38q0 -10 -3 -22l-22 -106q-7 -31 -17 -43t-37 -12q-44 0 -44 35q0 12 3 29h-76l-30 -145h213l8 42q7 39 20.5 55
t41.5 16q44 0 44 -43q0 -12 -2 -20l-25 -119q-4 -22 -14.5 -30.5t-31.5 -8.5h-405q-48 0 -48 44q0 28 17.5 46t42.5 18h14l75 363h-13q-18 0 -30 11.5t-12 32.5q0 64 72 64h399zM336 631l-24 36l190 131q9 6 18 6q14 0 23 -14l25 -38q4 -5 4 -12q0 -17 -17 -23z" />
    <glyph glyph-name="Ecircumflex" unicode="&#xca;" 
d="M557 579q36 0 36 -25q0 -5 -1 -7l-26 -128q-7 -31 -17 -43t-37 -12q-44 0 -44 35q0 13 3 29l9 43h-215l-24 -123h77q6 34 18.5 48t38.5 14q42 0 42 -38q0 -10 -3 -22l-22 -106q-7 -31 -17 -43t-37 -12q-44 0 -44 35q0 12 3 29h-76l-30 -145h213l8 42q7 39 20.5 55
t41.5 16q44 0 44 -43q0 -12 -2 -20l-25 -119q-4 -22 -14.5 -30.5t-31.5 -8.5h-405q-48 0 -48 44q0 28 17.5 46t42.5 18h14l75 363h-13q-18 0 -30 11.5t-12 32.5q0 64 72 64h399zM392 716l-149 -67q-17 -7 -23 -7q-8 0 -14 5.5t-6 12.5q0 4 1 7t4 6t5 4.5t7 5t8 5.5l141 97
q12 9 27 9q19 0 33 -14l94 -93q15 -15 15 -22q0 -21 -23 -21q-11 0 -20 6z" />
    <glyph glyph-name="Edieresis" unicode="&#xcb;" 
d="M557 579q36 0 36 -25q0 -5 -1 -7l-26 -128q-7 -31 -17 -43t-37 -12q-44 0 -44 35q0 13 3 29l9 43h-215l-24 -123h77q6 34 18.5 48t38.5 14q42 0 42 -38q0 -10 -3 -22l-22 -106q-7 -31 -17 -43t-37 -12q-44 0 -44 35q0 12 3 29h-76l-30 -145h213l8 42q7 39 20.5 55
t41.5 16q44 0 44 -43q0 -12 -2 -20l-25 -119q-4 -22 -14.5 -30.5t-31.5 -8.5h-405q-48 0 -48 44q0 28 17.5 46t42.5 18h14l75 363h-13q-18 0 -30 11.5t-12 32.5q0 64 72 64h399zM185 714q0 24 19 43t44 19t42.5 -18.5t17.5 -43.5q0 -28 -17 -45t-43 -17t-44.5 18t-18.5 44z
M427 714q0 24 19 43t44 19t43 -18.5t18 -43.5q0 -28 -17.5 -45t-43.5 -17t-44.5 18t-18.5 44z" />
    <glyph glyph-name="Egrave" unicode="&#xc8;" 
d="M557 579q36 0 36 -25q0 -5 -1 -7l-26 -128q-7 -31 -17 -43t-37 -12q-44 0 -44 35q0 13 3 29l9 43h-215l-24 -123h77q6 34 18.5 48t38.5 14q42 0 42 -38q0 -10 -3 -22l-22 -106q-7 -31 -17 -43t-37 -12q-44 0 -44 35q0 12 3 29h-76l-30 -145h213l8 42q7 39 20.5 55
t41.5 16q44 0 44 -43q0 -12 -2 -20l-25 -119q-4 -22 -14.5 -30.5t-31.5 -8.5h-405q-48 0 -48 44q0 28 17.5 46t42.5 18h14l75 363h-13q-18 0 -30 11.5t-12 32.5q0 64 72 64h399zM398 631l-219 86q-16 6 -16 23q0 8 3 12l25 38q9 14 23 14q9 0 18 -6l190 -131z" />
    <glyph glyph-name="Iacute" unicode="&#xcd;" 
d="M104 0q-48 0 -48 44q0 28 17.5 46t42.5 18h87l74 363h-85q-18 0 -30 11.5t-12 32.5q0 64 72 64h274q47 0 47 -45q0 -38 -22 -50.5t-72 -12.5h-50l-74 -363h86q19 0 30.5 -12t11.5 -32q0 -64 -72 -64h-277zM324 631l-24 36l190 131q9 6 18 6q14 0 23 -14l25 -38
q4 -5 4 -12q0 -17 -17 -23z" />
    <glyph glyph-name="Icircumflex" unicode="&#xce;" 
d="M104 0q-48 0 -48 44q0 28 17.5 46t42.5 18h87l74 363h-85q-18 0 -30 11.5t-12 32.5q0 64 72 64h274q47 0 47 -45q0 -38 -22 -50.5t-72 -12.5h-50l-74 -363h86q19 0 30.5 -12t11.5 -32q0 -64 -72 -64h-277zM380 716l-149 -67q-17 -7 -23 -7q-8 0 -14 5.5t-6 12.5q0 4 1 7
t4 6t5 4.5t7 5t8 5.5l141 97q12 9 27 9q19 0 33 -14l94 -93q15 -15 15 -22q0 -21 -23 -21q-11 0 -20 6z" />
    <glyph glyph-name="Idieresis" unicode="&#xcf;" 
d="M104 0q-48 0 -48 44q0 28 17.5 46t42.5 18h87l74 363h-85q-18 0 -30 11.5t-12 32.5q0 64 72 64h274q47 0 47 -45q0 -38 -22 -50.5t-72 -12.5h-50l-74 -363h86q19 0 30.5 -12t11.5 -32q0 -64 -72 -64h-277zM173 714q0 24 19 43t44 19t42.5 -18.5t17.5 -43.5q0 -28 -17 -45
t-43 -17t-44.5 18t-18.5 44zM415 714q0 24 19 43t44 19t43 -18.5t18 -43.5q0 -28 -17.5 -45t-43.5 -17t-44.5 18t-18.5 44z" />
    <glyph glyph-name="Igrave" unicode="&#xcc;" 
d="M104 0q-48 0 -48 44q0 28 17.5 46t42.5 18h87l74 363h-85q-18 0 -30 11.5t-12 32.5q0 64 72 64h274q47 0 47 -45q0 -38 -22 -50.5t-72 -12.5h-50l-74 -363h86q19 0 30.5 -12t11.5 -32q0 -64 -72 -64h-277zM386 631l-219 86q-16 6 -16 23q0 8 3 12l25 38q9 14 23 14
q9 0 18 -6l190 -131z" />
    <glyph glyph-name="Ntilde" unicode="&#xd1;" 
d="M447 471h-12q-54 0 -54 44q0 30 18.5 47t53.5 17h124q47 0 47 -45q0 -60 -68 -63l-93 -446q-4 -19 -11 -26t-24 -7h-44q-20 0 -29 5t-15 23l-128 383l-54 -295h16q50 0 50 -45q0 -63 -72 -63h-129q-47 0 -47 44q0 28 17 46t42 18h15l74 363h-13q-19 0 -30.5 11.5
t-11.5 32.5q0 64 72 64h89q31 0 41 -29l122 -370zM311 766q34 0 83.5 -15.5t61.5 -15.5q20 0 44 17.5t30 17.5t11 -4.5t5 -9.5q0 -27 -39 -57.5t-84 -30.5q-33 0 -82 15.5t-62 15.5q-20 0 -44 -17t-30 -17q-16 0 -16 14q0 27 39 57t83 30z" />
    <glyph glyph-name="Oacute" unicode="&#xd3;" 
d="M348 595q111 0 174 -64.5t63 -179.5q0 -130 -77 -237q-94 -129 -252 -129q-113 0 -176 64.5t-63 178.5q0 149 96 261q91 106 235 106zM446 347q0 66 -30 102t-81 36q-69 0 -122.5 -75.5t-53.5 -174.5q0 -67 29.5 -102.5t81.5 -35.5q69 0 122.5 76.5t53.5 173.5zM335 631
l-24 36l190 131q9 6 18 6q14 0 23 -14l25 -38q4 -5 4 -12q0 -17 -17 -23z" />
    <glyph glyph-name="Ocircumflex" unicode="&#xd4;" 
d="M348 595q111 0 174 -64.5t63 -179.5q0 -130 -77 -237q-94 -129 -252 -129q-113 0 -176 64.5t-63 178.5q0 149 96 261q91 106 235 106zM446 347q0 66 -30 102t-81 36q-69 0 -122.5 -75.5t-53.5 -174.5q0 -67 29.5 -102.5t81.5 -35.5q69 0 122.5 76.5t53.5 173.5zM391 716
l-149 -67q-17 -7 -23 -7q-8 0 -14 5.5t-6 12.5q0 4 1 7t4 6t5 4.5t7 5t8 5.5l141 97q12 9 27 9q19 0 33 -14l94 -93q15 -15 15 -22q0 -21 -23 -21q-11 0 -20 6z" />
    <glyph glyph-name="Odieresis" unicode="&#xd6;" 
d="M348 595q111 0 174 -64.5t63 -179.5q0 -130 -77 -237q-94 -129 -252 -129q-113 0 -176 64.5t-63 178.5q0 149 96 261q91 106 235 106zM446 347q0 66 -30 102t-81 36q-69 0 -122.5 -75.5t-53.5 -174.5q0 -67 29.5 -102.5t81.5 -35.5q69 0 122.5 76.5t53.5 173.5zM184 714
q0 24 19 43t44 19t42.5 -18.5t17.5 -43.5q0 -28 -17 -45t-43 -17t-44.5 18t-18.5 44zM426 714q0 24 19 43t44 19t43 -18.5t18 -43.5q0 -28 -17.5 -45t-43.5 -17t-44.5 18t-18.5 44z" />
    <glyph glyph-name="Ograve" unicode="&#xd2;" 
d="M348 595q111 0 174 -64.5t63 -179.5q0 -130 -77 -237q-94 -129 -252 -129q-113 0 -176 64.5t-63 178.5q0 149 96 261q91 106 235 106zM446 347q0 66 -30 102t-81 36q-69 0 -122.5 -75.5t-53.5 -174.5q0 -67 29.5 -102.5t81.5 -35.5q69 0 122.5 76.5t53.5 173.5zM397 631
l-219 86q-16 6 -16 23q0 8 3 12l25 38q9 14 23 14q9 0 18 -6l190 -131z" />
    <glyph glyph-name="Otilde" unicode="&#xd5;" 
d="M348 595q111 0 174 -64.5t63 -179.5q0 -130 -77 -237q-94 -129 -252 -129q-113 0 -176 64.5t-63 178.5q0 149 96 261q91 106 235 106zM446 347q0 66 -30 102t-81 36q-69 0 -122.5 -75.5t-53.5 -174.5q0 -67 29.5 -102.5t81.5 -35.5q69 0 122.5 76.5t53.5 173.5zM318 766
q34 0 83.5 -15.5t61.5 -15.5q20 0 44 17.5t30 17.5t11 -4.5t5 -9.5q0 -27 -39 -57.5t-84 -30.5q-33 0 -82 15.5t-62 15.5q-20 0 -44 -17t-30 -17q-16 0 -16 14q0 27 39 57t83 30z" />
    <glyph glyph-name="Scaron" unicode="&#x160;" 
d="M117 11q-21 -31 -47 -31q-43 0 -43 44q0 4 2 18l20 129q8 46 51 46q17 0 26.5 -7t12 -16t6 -26t8.5 -28q12 -28 45 -46t76 -18q44 0 71 20.5t27 50.5q0 18 -5.5 31t-20 23.5t-26.5 17t-38.5 18.5t-43.5 20q-113 57 -113 150q0 83 63.5 135.5t170.5 52.5q68 0 125 -27
q17 36 49 36q38 0 38 -40q0 -5 -2 -19l-21 -115q-8 -40 -51 -40q-9 0 -16.5 2t-11.5 3.5t-8.5 9t-5.5 9.5t-5.5 14t-5.5 15q-23 58 -87 58q-38 0 -62 -18.5t-24 -48.5q0 -28 19.5 -44t68.5 -39q87 -40 123 -74t36 -95q0 -86 -70 -141t-183 -55q-70 0 -148 25zM332 719
l149 67q17 7 22 7q8 0 14 -5.5t6 -12.5q0 -4 -1 -7t-4 -6l-4.5 -4.5t-7 -5.5t-7.5 -5l-141 -97q-11 -8 -27 -8q-21 0 -34 13l-94 93q-14 14 -14 23q0 20 22 20q11 0 20 -6z" />
    <glyph glyph-name="Uacute" unicode="&#xda;" 
d="M559 471l-57 -277q-22 -108 -83.5 -159.5t-169.5 -51.5q-193 0 -193 168q0 31 10 81l48 239h-13q-18 0 -29.5 11.5t-11.5 32.5q0 64 72 64h128q47 0 47 -45q0 -58 -66 -63l-52 -259q-5 -28 -5 -51q0 -70 76 -70q57 0 85 31.5t43 102.5l51 246q-50 1 -50 44q0 30 18.5 47
t53.5 17h119q47 0 47 -45q0 -60 -68 -63zM324 631l-24 36l190 131q9 6 18 6q14 0 23 -14l25 -38q4 -5 4 -12q0 -17 -17 -23z" />
    <glyph glyph-name="Ucircumflex" unicode="&#xdb;" 
d="M559 471l-57 -277q-22 -108 -83.5 -159.5t-169.5 -51.5q-193 0 -193 168q0 31 10 81l48 239h-13q-18 0 -29.5 11.5t-11.5 32.5q0 64 72 64h128q47 0 47 -45q0 -58 -66 -63l-52 -259q-5 -28 -5 -51q0 -70 76 -70q57 0 85 31.5t43 102.5l51 246q-50 1 -50 44q0 30 18.5 47
t53.5 17h119q47 0 47 -45q0 -60 -68 -63zM380 716l-149 -67q-17 -7 -23 -7q-8 0 -14 5.5t-6 12.5q0 4 1 7t4 6t5 4.5t7 5t8 5.5l141 97q12 9 27 9q19 0 33 -14l94 -93q15 -15 15 -22q0 -21 -23 -21q-11 0 -20 6z" />
    <glyph glyph-name="Udieresis" unicode="&#xdc;" 
d="M559 471l-57 -277q-22 -108 -83.5 -159.5t-169.5 -51.5q-193 0 -193 168q0 31 10 81l48 239h-13q-18 0 -29.5 11.5t-11.5 32.5q0 64 72 64h128q47 0 47 -45q0 -58 -66 -63l-52 -259q-5 -28 -5 -51q0 -70 76 -70q57 0 85 31.5t43 102.5l51 246q-50 1 -50 44q0 30 18.5 47
t53.5 17h119q47 0 47 -45q0 -60 -68 -63zM173 714q0 24 19 43t44 19t42.5 -18.5t17.5 -43.5q0 -28 -17 -45t-43 -17t-44.5 18t-18.5 44zM415 714q0 24 19 43t44 19t43 -18.5t18 -43.5q0 -28 -17.5 -45t-43.5 -17t-44.5 18t-18.5 44z" />
    <glyph glyph-name="Ugrave" unicode="&#xd9;" 
d="M559 471l-57 -277q-22 -108 -83.5 -159.5t-169.5 -51.5q-193 0 -193 168q0 31 10 81l48 239h-13q-18 0 -29.5 11.5t-11.5 32.5q0 64 72 64h128q47 0 47 -45q0 -58 -66 -63l-52 -259q-5 -28 -5 -51q0 -70 76 -70q57 0 85 31.5t43 102.5l51 246q-50 1 -50 44q0 30 18.5 47
t53.5 17h119q47 0 47 -45q0 -60 -68 -63zM386 631l-219 86q-16 6 -16 23q0 8 3 12l25 38q9 14 23 14q9 0 18 -6l190 -131z" />
    <glyph glyph-name="Ydieresis" unicode="&#x178;" 
d="M139 471h-13q-18 0 -29.5 11.5t-11.5 32.5q0 64 72 64h125q42 0 42 -44q0 -55 -53 -64l36 -145l99 145q-42 1 -42 43q0 65 60 65h115q48 0 48 -45q0 -55 -60 -63l-182 -248l-23 -115h75q19 0 30.5 -12t11.5 -32q0 -64 -72 -64h-256q-48 0 -48 44q0 28 17.5 46t42.5 18h76
l21 104zM173 714q0 24 19 43t44 19t42.5 -18.5t17.5 -43.5q0 -28 -17 -45t-43 -17t-44.5 18t-18.5 44zM415 714q0 24 19 43t44 19t43 -18.5t18 -43.5q0 -28 -17.5 -45t-43.5 -17t-44.5 18t-18.5 44z" />
    <glyph glyph-name="Zcaron" unicode="&#x17d;" 
d="M221 404q-7 -31 -17 -43.5t-37 -12.5q-44 0 -44 36q0 12 3 29l26 125q9 41 52 41h265q67 0 67 -43q0 -30 -15 -49l-309 -379h147l13 67q8 40 21 55.5t41 15.5q45 0 45 -43q0 -8 -3 -20l-31 -144q-4 -22 -14.5 -30.5t-30.5 -8.5h-288q-67 0 -67 42q0 32 15 49l309 379
h-133zM332 719l149 67q17 7 22 7q8 0 14 -5.5t6 -12.5q0 -4 -1 -7t-4 -6l-4.5 -4.5t-7 -5.5t-7.5 -5l-141 -97q-11 -8 -27 -8q-21 0 -34 13l-94 93q-14 14 -14 23q0 20 22 20q11 0 20 -6z" />
    <glyph glyph-name="aacute" unicode="&#xe1;" 
d="M463 108q51 0 51 -45q0 -63 -74 -63h-43q-25 0 -35 8.5t-12 33.5q-93 -53 -172 -53q-67 0 -104.5 33.5t-37.5 93.5q0 80 64 126t175 46q51 0 108 -11q6 25 6 43q0 26 -17 41.5t-47 15.5q-34 0 -88.5 -24t-76.5 -24q-42 0 -42 38q0 45 60 71.5t166 26.5q164 0 164 -125
q0 -21 -6 -49zM351 125l16 76q-62 10 -85 10q-56 0 -89 -21t-33 -53q0 -53 64 -53q57 0 127 41zM311 499l-24 36l190 131q9 6 18 6q14 0 23 -14l25 -38q4 -5 4 -12q0 -17 -17 -23z" />
    <glyph glyph-name="acircumflex" unicode="&#xe2;" 
d="M463 108q51 0 51 -45q0 -63 -74 -63h-43q-25 0 -35 8.5t-12 33.5q-93 -53 -172 -53q-67 0 -104.5 33.5t-37.5 93.5q0 80 64 126t175 46q51 0 108 -11q6 25 6 43q0 26 -17 41.5t-47 15.5q-34 0 -88.5 -24t-76.5 -24q-42 0 -42 38q0 45 60 71.5t166 26.5q164 0 164 -125
q0 -21 -6 -49zM351 125l16 76q-62 10 -85 10q-56 0 -89 -21t-33 -53q0 -53 64 -53q57 0 127 41zM367 584l-149 -67q-17 -7 -23 -7q-8 0 -14 5.5t-6 12.5q0 4 1 7t4 6t5 4.5t7 5t8 5.5l141 97q12 9 27 9q19 0 33 -14l94 -93q15 -15 15 -22q0 -21 -23 -21q-11 0 -20 6z" />
    <glyph glyph-name="adieresis" unicode="&#xe4;" 
d="M463 108q51 0 51 -45q0 -63 -74 -63h-43q-25 0 -35 8.5t-12 33.5q-93 -53 -172 -53q-67 0 -104.5 33.5t-37.5 93.5q0 80 64 126t175 46q51 0 108 -11q6 25 6 43q0 26 -17 41.5t-47 15.5q-34 0 -88.5 -24t-76.5 -24q-42 0 -42 38q0 45 60 71.5t166 26.5q164 0 164 -125
q0 -21 -6 -49zM351 125l16 76q-62 10 -85 10q-56 0 -89 -21t-33 -53q0 -53 64 -53q57 0 127 41zM160 582q0 24 19 43t44 19t42.5 -18.5t17.5 -43.5q0 -28 -17 -45t-43 -17t-44.5 18t-18.5 44zM402 582q0 24 19 43t44 19t43 -18.5t18 -43.5q0 -28 -17.5 -45t-43.5 -17
t-44.5 18t-18.5 44z" />
    <glyph glyph-name="agrave" unicode="&#xe0;" 
d="M463 108q51 0 51 -45q0 -63 -74 -63h-43q-25 0 -35 8.5t-12 33.5q-93 -53 -172 -53q-67 0 -104.5 33.5t-37.5 93.5q0 80 64 126t175 46q51 0 108 -11q6 25 6 43q0 26 -17 41.5t-47 15.5q-34 0 -88.5 -24t-76.5 -24q-42 0 -42 38q0 45 60 71.5t166 26.5q164 0 164 -125
q0 -21 -6 -49zM351 125l16 76q-62 10 -85 10q-56 0 -89 -21t-33 -53q0 -53 64 -53q57 0 127 41zM373 499l-219 86q-16 6 -16 23q0 8 3 12l25 38q9 14 23 14q9 0 18 -6l190 -131z" />
    <glyph glyph-name="aring" unicode="&#xe5;" 
d="M463 108q51 0 51 -45q0 -63 -74 -63h-43q-25 0 -35 8.5t-12 33.5q-93 -53 -172 -53q-67 0 -104.5 33.5t-37.5 93.5q0 80 64 126t175 46q51 0 108 -11q6 25 6 43q0 26 -17 41.5t-47 15.5q-34 0 -88.5 -24t-76.5 -24q-42 0 -42 38q0 45 60 71.5t166 26.5q164 0 164 -125
q0 -21 -6 -49zM351 125l16 76q-62 10 -85 10q-56 0 -89 -21t-33 -53q0 -53 64 -53q57 0 127 41zM227 627q0 55 38.5 93.5t93.5 38.5t93.5 -38.5t38.5 -93.5t-38.5 -93.5t-93.5 -38.5t-93.5 38.5t-38.5 93.5zM297 628q0 -26 18 -44.5t44 -18.5t44 18.5t18 44.5t-18.5 44
t-43.5 18q-26 0 -44 -18t-18 -44z" />
    <glyph glyph-name="atilde" unicode="&#xe3;" 
d="M463 108q51 0 51 -45q0 -63 -74 -63h-43q-25 0 -35 8.5t-12 33.5q-93 -53 -172 -53q-67 0 -104.5 33.5t-37.5 93.5q0 80 64 126t175 46q51 0 108 -11q6 25 6 43q0 26 -17 41.5t-47 15.5q-34 0 -88.5 -24t-76.5 -24q-42 0 -42 38q0 45 60 71.5t166 26.5q164 0 164 -125
q0 -21 -6 -49zM351 125l16 76q-62 10 -85 10q-56 0 -89 -21t-33 -53q0 -53 64 -53q57 0 127 41zM294 634q34 0 83.5 -15.5t61.5 -15.5q20 0 44 17.5t30 17.5t11 -4.5t5 -9.5q0 -27 -39 -57.5t-84 -30.5q-33 0 -82 15.5t-62 15.5q-20 0 -44 -17t-30 -17q-16 0 -16 14
q0 27 39 57t83 30z" />
    <glyph glyph-name="ccedilla" unicode="&#xe7;" 
d="M468 423q11 41 46 41q23 0 33 -8.5t10 -29.5q0 -4 -2 -16l-20 -109q-9 -50 -57 -50q-15 0 -24.5 7.5t-13 14t-12.5 27.5q-14 31 -36 45.5t-65 14.5q-77 0 -124 -47.5t-47 -120.5q0 -46 30 -74.5t81 -28.5q44 0 84.5 16t68 32t39.5 16q19 0 31.5 -13.5t12.5 -34.5
q0 -43 -74.5 -79.5t-174.5 -36.5q-108 0 -167.5 50.5t-59.5 138.5q0 122 85 203.5t218 81.5q86 0 138 -40zM264 0l-14 -64q2 0 7 0.5t8 0.5q41 0 64.5 -20t23.5 -52q0 -40 -35.5 -68t-90.5 -28q-58 0 -94.5 13.5t-36.5 33.5q0 10 7 16.5t16 6.5t40.5 -11.5t53.5 -11.5
q23 0 38 12t15 31q0 34 -45 34q-13 0 -21 -1l22 108h42z" />
    <glyph glyph-name="eacute" unicode="&#xe9;" 
d="M169 272h243v7v5l1 2q0 36 -27 58t-74 22q-53 0 -91 -24.5t-52 -69.5zM162 197v-9q0 -48 28.5 -74t82.5 -26q42 0 83 16t69.5 32.5t40.5 16.5q19 0 31.5 -13.5t12.5 -34.5q0 -43 -75 -80t-175 -37q-104 0 -165 53t-61 142q0 119 81 199.5t204 80.5q100 0 159 -57.5
t59 -147.5q0 -39 -20.5 -50t-70.5 -11h-284zM300 499l-24 36l190 131q9 6 18 6q14 0 23 -14l25 -38q4 -5 4 -12q0 -17 -17 -23z" />
    <glyph glyph-name="ecircumflex" unicode="&#xea;" 
d="M169 272h243v7v5l1 2q0 36 -27 58t-74 22q-53 0 -91 -24.5t-52 -69.5zM162 197v-9q0 -48 28.5 -74t82.5 -26q42 0 83 16t69.5 32.5t40.5 16.5q19 0 31.5 -13.5t12.5 -34.5q0 -43 -75 -80t-175 -37q-104 0 -165 53t-61 142q0 119 81 199.5t204 80.5q100 0 159 -57.5
t59 -147.5q0 -39 -20.5 -50t-70.5 -11h-284zM356 584l-149 -67q-17 -7 -23 -7q-8 0 -14 5.5t-6 12.5q0 4 1 7t4 6t5 4.5t7 5t8 5.5l141 97q12 9 27 9q19 0 33 -14l94 -93q15 -15 15 -22q0 -21 -23 -21q-11 0 -20 6z" />
    <glyph glyph-name="edieresis" unicode="&#xeb;" 
d="M169 272h243v7v5l1 2q0 36 -27 58t-74 22q-53 0 -91 -24.5t-52 -69.5zM162 197v-9q0 -48 28.5 -74t82.5 -26q42 0 83 16t69.5 32.5t40.5 16.5q19 0 31.5 -13.5t12.5 -34.5q0 -43 -75 -80t-175 -37q-104 0 -165 53t-61 142q0 119 81 199.5t204 80.5q100 0 159 -57.5
t59 -147.5q0 -39 -20.5 -50t-70.5 -11h-284zM149 582q0 24 19 43t44 19t42.5 -18.5t17.5 -43.5q0 -28 -17 -45t-43 -17t-44.5 18t-18.5 44zM391 582q0 24 19 43t44 19t43 -18.5t18 -43.5q0 -28 -17.5 -45t-43.5 -17t-44.5 18t-18.5 44z" />
    <glyph glyph-name="egrave" unicode="&#xe8;" 
d="M169 272h243v7v5l1 2q0 36 -27 58t-74 22q-53 0 -91 -24.5t-52 -69.5zM162 197v-9q0 -48 28.5 -74t82.5 -26q42 0 83 16t69.5 32.5t40.5 16.5q19 0 31.5 -13.5t12.5 -34.5q0 -43 -75 -80t-175 -37q-104 0 -165 53t-61 142q0 119 81 199.5t204 80.5q100 0 159 -57.5
t59 -147.5q0 -39 -20.5 -50t-70.5 -11h-284zM362 499l-219 86q-16 6 -16 23q0 8 3 12l25 38q9 14 23 14q9 0 18 -6l190 -131z" />
    <glyph glyph-name="iacute" unicode="&#xed;" 
d="M431 108q51 0 51 -45q0 -63 -74 -63h-313q-47 0 -47 44q0 64 74 64h92l49 235h-60q-18 0 -30 12.5t-12 32.5q0 63 72 63h148q22 0 22 -20q0 -1 -0.5 -3t-0.5 -3l-68 -317h97zM300 499l-24 36l190 131q9 6 18 6q14 0 23 -14l25 -38q4 -5 4 -12q0 -17 -17 -23z" />
    <glyph glyph-name="icircumflex" unicode="&#xee;" 
d="M431 108q51 0 51 -45q0 -63 -74 -63h-313q-47 0 -47 44q0 64 74 64h92l49 235h-60q-18 0 -30 12.5t-12 32.5q0 63 72 63h148q22 0 22 -20q0 -1 -0.5 -3t-0.5 -3l-68 -317h97zM356 584l-149 -67q-17 -7 -23 -7q-8 0 -14 5.5t-6 12.5q0 4 1 7t4 6t5 4.5t7 5t8 5.5l141 97
q12 9 27 9q19 0 33 -14l94 -93q15 -15 15 -22q0 -21 -23 -21q-11 0 -20 6z" />
    <glyph glyph-name="idieresis" unicode="&#xef;" 
d="M431 108q51 0 51 -45q0 -63 -74 -63h-313q-47 0 -47 44q0 64 74 64h92l49 235h-60q-18 0 -30 12.5t-12 32.5q0 63 72 63h148q22 0 22 -20q0 -1 -0.5 -3t-0.5 -3l-68 -317h97zM149 582q0 24 19 43t44 19t42.5 -18.5t17.5 -43.5q0 -28 -17 -45t-43 -17t-44.5 18t-18.5 44z
M391 582q0 24 19 43t44 19t43 -18.5t18 -43.5q0 -28 -17.5 -45t-43.5 -17t-44.5 18t-18.5 44z" />
    <glyph glyph-name="igrave" unicode="&#xec;" 
d="M431 108q51 0 51 -45q0 -63 -74 -63h-313q-47 0 -47 44q0 64 74 64h92l49 235h-60q-18 0 -30 12.5t-12 32.5q0 63 72 63h148q22 0 22 -20q0 -1 -0.5 -3t-0.5 -3l-68 -317h97zM362 499l-219 86q-16 6 -16 23q0 8 3 12l25 38q9 14 23 14q9 0 18 -6l190 -131z" />
    <glyph glyph-name="ntilde" unicode="&#xf1;" 
d="M190 108q50 0 50 -45q0 -63 -72 -63h-121q-48 0 -48 44q0 30 18 47t51 17h5l48 235h-13q-18 0 -29.5 12t-11.5 33q0 63 72 63h87q21 0 21 -20q0 -1 -0.5 -3t-0.5 -3l-5 -29q70 67 147 67q57 0 90.5 -32.5t33.5 -90.5q0 -28 -6 -58l-37 -174q51 0 51 -45q0 -63 -74 -63
h-116q-44 0 -44 44q0 58 63 64l36 169q2 9 2 27q0 56 -50 56q-36 0 -70.5 -29.5t-44.5 -75.5zM274 634q34 0 83.5 -15.5t61.5 -15.5q20 0 44 17.5t30 17.5t11 -4.5t5 -9.5q0 -27 -39 -57.5t-84 -30.5q-33 0 -82 15.5t-62 15.5q-20 0 -44 -17t-30 -17q-16 0 -16 14
q0 27 39 57t83 30z" />
    <glyph glyph-name="oacute" unicode="&#xf3;" 
d="M39 189q0 114 82 194.5t203 80.5q101 0 161 -55t60 -146q0 -114 -82 -194.5t-204 -80.5q-100 0 -160 54.5t-60 146.5zM313 364q-58 0 -100 -48.5t-42 -118.5q0 -50 28 -80t75 -30q59 0 99 49t40 123q0 46 -28 75.5t-72 29.5zM300 499l-24 36l190 131q9 6 18 6
q14 0 23 -14l25 -38q4 -5 4 -12q0 -17 -17 -23z" />
    <glyph glyph-name="ocircumflex" unicode="&#xf4;" 
d="M39 189q0 114 82 194.5t203 80.5q101 0 161 -55t60 -146q0 -114 -82 -194.5t-204 -80.5q-100 0 -160 54.5t-60 146.5zM313 364q-58 0 -100 -48.5t-42 -118.5q0 -50 28 -80t75 -30q59 0 99 49t40 123q0 46 -28 75.5t-72 29.5zM356 584l-149 -67q-17 -7 -23 -7
q-8 0 -14 5.5t-6 12.5q0 4 1 7t4 6t5 4.5t7 5t8 5.5l141 97q12 9 27 9q19 0 33 -14l94 -93q15 -15 15 -22q0 -21 -23 -21q-11 0 -20 6z" />
    <glyph glyph-name="odieresis" unicode="&#xf6;" 
d="M39 189q0 114 82 194.5t203 80.5q101 0 161 -55t60 -146q0 -114 -82 -194.5t-204 -80.5q-100 0 -160 54.5t-60 146.5zM313 364q-58 0 -100 -48.5t-42 -118.5q0 -50 28 -80t75 -30q59 0 99 49t40 123q0 46 -28 75.5t-72 29.5zM149 582q0 24 19 43t44 19t42.5 -18.5
t17.5 -43.5q0 -28 -17 -45t-43 -17t-44.5 18t-18.5 44zM391 582q0 24 19 43t44 19t43 -18.5t18 -43.5q0 -28 -17.5 -45t-43.5 -17t-44.5 18t-18.5 44z" />
    <glyph glyph-name="ograve" unicode="&#xf2;" 
d="M39 189q0 114 82 194.5t203 80.5q101 0 161 -55t60 -146q0 -114 -82 -194.5t-204 -80.5q-100 0 -160 54.5t-60 146.5zM313 364q-58 0 -100 -48.5t-42 -118.5q0 -50 28 -80t75 -30q59 0 99 49t40 123q0 46 -28 75.5t-72 29.5zM362 499l-219 86q-16 6 -16 23q0 8 3 12
l25 38q9 14 23 14q9 0 18 -6l190 -131z" />
    <glyph glyph-name="otilde" unicode="&#xf5;" 
d="M39 189q0 114 82 194.5t203 80.5q101 0 161 -55t60 -146q0 -114 -82 -194.5t-204 -80.5q-100 0 -160 54.5t-60 146.5zM313 364q-58 0 -100 -48.5t-42 -118.5q0 -50 28 -80t75 -30q59 0 99 49t40 123q0 46 -28 75.5t-72 29.5zM283 634q34 0 83.5 -15.5t61.5 -15.5
q20 0 44 17.5t30 17.5t11 -4.5t5 -9.5q0 -27 -39 -57.5t-84 -30.5q-33 0 -82 15.5t-62 15.5q-20 0 -44 -17t-30 -17q-16 0 -16 14q0 27 39 57t83 30z" />
    <glyph glyph-name="scaron" unicode="&#x161;" 
d="M132 18q-14 -35 -45 -35q-42 0 -42 38q0 4 2 14l18 91q9 43 50 43q12 0 19.5 -4t10 -6.5t7 -15t6.5 -17.5q25 -56 119 -56q35 0 57.5 15.5t22.5 38.5q0 25 -21 37t-70 25q-5 1 -8 2q-80 22 -114 51t-34 81q0 65 52 105t143 40q67 0 143 -21q12 28 39 28q40 0 40 -37
q0 -4 -2 -16l-16 -74q-6 -34 -40 -34q-15 0 -25 5.5t-20 18.5t-11 14q-35 37 -97 37q-34 0 -54.5 -13t-20.5 -32q0 -7 2 -13t7.5 -10.5t10.5 -7.5t15.5 -6.5t17.5 -5.5t21.5 -5.5t22.5 -5.5q83 -23 119 -53.5t36 -89.5q0 -69 -57 -112.5t-154 -43.5q-75 0 -150 30zM308 587
l149 67q17 7 22 7q8 0 14 -5.5t6 -12.5q0 -4 -1 -7t-4 -6l-4.5 -4.5t-7 -5.5t-7.5 -5l-141 -97q-11 -8 -27 -8q-21 0 -34 13l-94 93q-14 14 -14 23q0 20 22 20q11 0 20 -6z" />
    <glyph glyph-name="uacute" unicode="&#xfa;" 
d="M387 344q-49 0 -49 44q0 63 72 63h92q21 0 21 -20q0 -1 -0.5 -3t-0.5 -3l-66 -316h13q18 0 30 -12.5t12 -33.5q0 -63 -72 -63h-88q-21 0 -21 20q0 1 0.5 3t0.5 3l6 30q-71 -68 -148 -68q-57 0 -90.5 32.5t-33.5 90.5q0 23 7 58l37 175q-51 0 -51 44q0 63 74 63h94
q21 0 21 -20q0 -1 -0.5 -3t-0.5 -3l-54 -251q-2 -10 -2 -27q0 -56 50 -56q36 0 71 30t45 76zM288 499l-24 36l190 131q9 6 18 6q14 0 23 -14l25 -38q4 -5 4 -12q0 -17 -17 -23z" />
    <glyph glyph-name="ucircumflex" unicode="&#xfb;" 
d="M387 344q-49 0 -49 44q0 63 72 63h92q21 0 21 -20q0 -1 -0.5 -3t-0.5 -3l-66 -316h13q18 0 30 -12.5t12 -33.5q0 -63 -72 -63h-88q-21 0 -21 20q0 1 0.5 3t0.5 3l6 30q-71 -68 -148 -68q-57 0 -90.5 32.5t-33.5 90.5q0 23 7 58l37 175q-51 0 -51 44q0 63 74 63h94
q21 0 21 -20q0 -1 -0.5 -3t-0.5 -3l-54 -251q-2 -10 -2 -27q0 -56 50 -56q36 0 71 30t45 76zM344 584l-149 -67q-17 -7 -23 -7q-8 0 -14 5.5t-6 12.5q0 4 1 7t4 6t5 4.5t7 5t8 5.5l141 97q12 9 27 9q19 0 33 -14l94 -93q15 -15 15 -22q0 -21 -23 -21q-11 0 -20 6z" />
    <glyph glyph-name="udieresis" unicode="&#xfc;" 
d="M387 344q-49 0 -49 44q0 63 72 63h92q21 0 21 -20q0 -1 -0.5 -3t-0.5 -3l-66 -316h13q18 0 30 -12.5t12 -33.5q0 -63 -72 -63h-88q-21 0 -21 20q0 1 0.5 3t0.5 3l6 30q-71 -68 -148 -68q-57 0 -90.5 32.5t-33.5 90.5q0 23 7 58l37 175q-51 0 -51 44q0 63 74 63h94
q21 0 21 -20q0 -1 -0.5 -3t-0.5 -3l-54 -251q-2 -10 -2 -27q0 -56 50 -56q36 0 71 30t45 76zM137 582q0 24 19 43t44 19t42.5 -18.5t17.5 -43.5q0 -28 -17 -45t-43 -17t-44.5 18t-18.5 44zM379 582q0 24 19 43t44 19t43 -18.5t18 -43.5q0 -28 -17.5 -45t-43.5 -17t-44.5 18
t-18.5 44z" />
    <glyph glyph-name="ugrave" unicode="&#xf9;" 
d="M387 344q-49 0 -49 44q0 63 72 63h92q21 0 21 -20q0 -1 -0.5 -3t-0.5 -3l-66 -316h13q18 0 30 -12.5t12 -33.5q0 -63 -72 -63h-88q-21 0 -21 20q0 1 0.5 3t0.5 3l6 30q-71 -68 -148 -68q-57 0 -90.5 32.5t-33.5 90.5q0 23 7 58l37 175q-51 0 -51 44q0 63 74 63h94
q21 0 21 -20q0 -1 -0.5 -3t-0.5 -3l-54 -251q-2 -10 -2 -27q0 -56 50 -56q36 0 71 30t45 76zM350 499l-219 86q-16 6 -16 23q0 8 3 12l25 38q9 14 23 14q9 0 18 -6l190 -131z" />
    <glyph glyph-name="ydieresis" unicode="&#xff;" 
d="M99 344q-24 4 -34 13.5t-10 30.5q0 29 18 46t46 17h119q51 0 51 -44q0 -60 -68 -63l42 -207l131 207q-24 4 -34 13.5t-10 30.5q0 29 17.5 46t45.5 17h110q51 0 51 -44q0 -58 -64 -63l-286 -431h23q51 0 51 -44q0 -63 -74 -63h-183q-47 0 -47 44q0 35 20.5 49t63.5 14h32
l66 97zM149 582q0 24 19 43t44 19t42.5 -18.5t17.5 -43.5q0 -28 -17 -45t-43 -17t-44.5 18t-18.5 44zM391 582q0 24 19 43t44 19t43 -18.5t18 -43.5q0 -28 -17.5 -45t-43.5 -17t-44.5 18t-18.5 44z" />
    <glyph glyph-name="zcaron" unicode="&#x17e;" 
d="M100 0q-51 0 -51 49q0 25 24 48l282 264h-140l-10 -48q-10 -46 -49 -46q-46 0 -46 39q0 5 2 15l21 94q4 21 15 28.5t34 7.5h288q52 0 52 -48q0 -26 -25 -49l-278 -264h146l14 57q12 46 49 46q46 0 46 -39q0 -5 -2 -15l-20 -101q-8 -38 -45 -38h-307zM308 587l149 67
q17 7 22 7q8 0 14 -5.5t6 -12.5q0 -4 -1 -7t-4 -6l-4.5 -4.5t-7 -5.5t-7.5 -5l-141 -97q-11 -8 -27 -8q-21 0 -34 13l-94 93q-14 14 -14 23q0 20 22 20q11 0 20 -6z" />
    <glyph glyph-name="trademark" unicode="&#x2122;" 
d="M275 489v-3q0 -26 -25 -26q-15 0 -20.5 6t-6.5 23l-2 45h-34v-149h32q29 0 29 -28t-29 -28h-130q-29 0 -29 28t29 28h32v149h-34l-1 -45q-1 -29 -27 -29t-26 26v3l2 73q1 12 2 17t6 7.5t17 2.5h189q12 0 16.5 -2.5t5.5 -7t2 -17.5zM311 329q-29 0 -29 28t25 28l6 149
q-24 0 -24 28q0 12 6 19.5t13 7.5h51q20 0 29 -23l36 -105l35 105q8 23 30 23h41q29 0 29 -27q0 -13 -7 -20.5t-18 -7.5l7 -149h2q22 0 22 -28t-29 -28h-49q-33 0 -33 28t30 28h3l-3 126l-32 -99q-7 -21 -28 -21t-28 21l-32 99l-3 -126h4q25 0 25 -28t-29 -28h-50z" />
    <glyph glyph-name="copyright" unicode="&#xa9;" 
d="M1 332q0 120 88 210q87 89 212 89q122 0 211 -87q41 -41 64.5 -97.5t23.5 -114.5q0 -121 -89 -212q-87 -87 -211 -87q-121 0 -210 87t-89 212zM52 332q0 -103 74 -177q76 -74 174 -74q103 0 175 74q74 76 74 177q0 104 -74 178q-73 73 -174 73q-104 0 -176 -74
q-73 -75 -73 -177zM378 487q10 14 26 14q25 0 25 -32v-68q0 -18 -6 -25t-22 -7q-22 0 -29 26q-8 26 -22.5 37.5t-43.5 11.5q-41 0 -63.5 -29t-22.5 -83t22.5 -83t64.5 -29q28 0 63 19.5t44 19.5q11 0 18 -9.5t7 -22.5q0 -23 -41 -45.5t-96 -22.5q-71 0 -116 48t-45 125
q0 75 45 124t114 49q38 0 78 -18z" />
    <glyph glyph-name="logicalnot" unicode="&#xac;" 
d="M465 359h-378q-24 0 -38.5 13.5t-14.5 35.5t15 36t38 14h437q19 0 30.5 -9.5t11.5 -24.5v-214q0 -24 -14 -38.5t-38 -14.5q-49 0 -49 53v149z" />
    <glyph glyph-name="registered" unicode="&#xae;" 
d="M1 332q0 120 88 210q87 89 212 89q122 0 211 -87q41 -41 64.5 -97.5t23.5 -114.5q0 -121 -89 -212q-87 -87 -211 -87q-121 0 -210 87t-89 212zM52 332q0 -103 74 -177q76 -74 174 -74q103 0 175 74q74 76 74 177q0 104 -74 178q-73 73 -174 73q-104 0 -176 -74
q-73 -75 -73 -177zM367 326q4 -2 15 -18l44 -69h7q32 0 32 -29q0 -16 -7.5 -23t-25.5 -7h-33q-13 0 -18.5 3t-11.5 13l-64 102q-7 11 -19 11h-25v-70h3q31 0 31 -29q0 -30 -35 -30h-68q-34 0 -34 30q0 29 29 29h5v198h-5q-29 0 -29 30q0 29 34 29h122q115 0 115 -87
q0 -59 -62 -83zM258 439v-76h36q31 0 45 8.5t14 29.5q0 38 -50 38h-45z" />
    <glyph glyph-name="minus" unicode="&#x2212;" 
d="M90 257q-24 0 -39 14t-15 37t15 37t39 14h422q24 0 39 -14t15 -37t-15 -37t-39 -14h-422z" />
    <glyph glyph-name="Eth" unicode="&#xd0;" 
d="M42 0q-47 0 -47 44q0 28 17 46t42 18h15l28 145h-37q-12 0 -20 8t-8 22q0 43 48 43h33l30 144h-13q-18 0 -30 12.5t-12 32.5q0 64 72 64h150q135 0 201 -51.5t66 -159.5q0 -178 -96 -279q-55 -58 -119.5 -73.5t-171.5 -15.5h-148zM299 471h-31l-31 -145h88q12 0 20 -8
t8 -22q0 -43 -49 -43h-82l-29 -144h24q94 0 136 29q39 27 62.5 84.5t23.5 132.5q0 60 -34.5 88t-105.5 28z" />
    <glyph glyph-name="Thorn" unicode="&#xde;" 
d="M277 442h73q193 0 193 -133q0 -84 -65 -128t-192 -44h-72l-10 -45h27q49 0 49 -39q0 -53 -72 -53h-155q-48 0 -48 38q0 23 17 38.5t43 15.5h14l82 395h-8q-50 0 -50 39q0 53 72 53h156q47 0 47 -38q0 -23 -17 -38.5t-42 -15.5h-33zM231 227h52q69 0 101 16t32 54
q0 55 -84 55h-74z" />
    <glyph glyph-name="Yacute" unicode="&#xdd;" 
d="M139 471h-13q-18 0 -29.5 11.5t-11.5 32.5q0 64 72 64h125q42 0 42 -44q0 -55 -53 -64l36 -145l99 145q-42 1 -42 43q0 65 60 65h115q48 0 48 -45q0 -55 -60 -63l-182 -248l-23 -115h75q19 0 30.5 -12t11.5 -32q0 -64 -72 -64h-256q-48 0 -48 44q0 28 17.5 46t42.5 18h76
l21 104zM324 631l-24 36l190 131q9 6 18 6q14 0 23 -14l25 -38q4 -5 4 -12q0 -17 -17 -23z" />
    <glyph glyph-name="brokenbar" unicode="&#xa6;" 
d="M253 329v370h95v-370h-95zM253 -172v371h95v-371h-95z" />
    <glyph glyph-name="degree" unicode="&#xb0;" 
d="M172 507q0 65 45.5 111t111.5 46t111.5 -46t45.5 -111q0 -66 -45.5 -111.5t-111.5 -45.5t-111.5 45.5t-45.5 111.5zM245 507q0 -36 24.5 -60.5t59.5 -24.5t59 25t24 60t-24 60t-59 25t-59.5 -24.5t-24.5 -60.5z" />
    <glyph glyph-name="divide" unicode="&#xf7;" 
d="M301 86q-29 0 -48.5 20t-19.5 48q0 29 20 49t48 20q29 0 48.5 -20t19.5 -49t-19.5 -48.5t-48.5 -19.5zM82 358h437q45 0 45 -50q0 -23 -12 -36.5t-33 -13.5h-437q-21 0 -33 13.5t-12 36.5q0 50 45 50zM301 393q-29 0 -48.5 19.5t-19.5 48.5t20 49t48 20q29 0 48.5 -20
t19.5 -49t-19.5 -48.5t-48.5 -19.5z" />
    <glyph glyph-name="eth" unicode="&#xf0;" 
d="M311 356q-55 0 -98 -45.5t-43 -105.5q0 -55 27.5 -86.5t76.5 -31.5q57 0 97 46.5t40 114.5q0 49 -27.5 78.5t-72.5 29.5zM348 449q-30 43 -55 66l-96 -37q-21 -8 -29 -8q-11 0 -18.5 7.5t-7.5 17.5q0 21 33 33l77 28q-17 15 -37 31t-28 23.5t-8 11.5q0 15 41 15
q49 0 115 -49l84 34q21 8 31 8t17 -7.5t7 -17.5q0 -12 -7 -18t-26 -14l-57 -24q161 -153 161 -288q0 -113 -82 -193t-204 -80q-100 0 -160 55t-60 145q0 108 78.5 186.5t182.5 78.5q14 0 48 -4z" />
    <glyph glyph-name="mu" unicode="&#x3bc;" 
d="M477 99h20q18 0 30 -12.5t12 -32.5q0 -26 -16.5 -40t-46.5 -14h-66q-52 0 -52 45q0 10 1 22q-51 -77 -122 -77q-42 0 -68 30l-32 -158q-12 -57 -59 -57q-53 0 -53 49q0 10 3 22l105 477h-17q-18 0 -30.5 12.5t-12.5 32.5q0 26 17 40.5t47 14.5h65q53 0 53 -47
q0 -4 -2 -22l-50 -219q-5 -20 -5 -37q0 -43 52 -43q108 0 144 155l35 154q7 31 19.5 45t41.5 14q51 0 51 -50q0 -9 -3 -23z" />
    <glyph glyph-name="multiply" unicode="&#xd7;" 
d="M302 387l115 115q17 17 36 17q22 0 36.5 -13.5t14.5 -33.5q0 -23 -17 -40l-115 -115l119 -119q17 -17 17 -38t-14.5 -35.5t-34.5 -14.5q-23 0 -39 16l-120 120l-114 -115q-17 -17 -40 -17q-19 0 -33.5 15t-14.5 34q0 20 18 38l114 115l-120 120q-17 17 -17 39
q0 19 15.5 34.5t34.5 15.5q21 0 39 -18z" />
    <glyph glyph-name="onehalf" unicode="&#xbd;" 
d="M415 -17h117q18 0 28.5 -9.5t10.5 -24.5t-10.5 -25t-26.5 -10h-173q-35 0 -35 42q0 6 1.5 12.5t3.5 11.5t7 11.5t8 10t11 11t12 10.5t14.5 12t14.5 13q34 29 46 40.5t24 29t12 33.5q0 20 -11.5 32t-30.5 12q-16 0 -44.5 -14.5t-40.5 -14.5q-28 0 -28 33q0 25 39.5 46.5
t87.5 21.5q51 0 83 -29.5t32 -75.5q0 -67 -86 -130zM186 397h19q34 0 46.5 -6.5t12.5 -27.5q0 -35 -34 -35h-173q-34 0 -34 35q0 22 12 28t46 6h24v211l-28 -2h-4q-18 0 -28.5 9.5t-10.5 23.5q0 35 39 36l76 5h4q18 0 25.5 -8t7.5 -28v-247zM492 419q8 4 17 4
q11 0 18.5 -7.5t7.5 -18.5q0 -17 -18 -27l-419 -212q-7 -4 -16 -4q-11 0 -18.5 8t-7.5 19q0 16 18 26z" />
    <glyph glyph-name="onequarter" unicode="&#xbc;" 
d="M437 40v149l-116 -149h116zM186 397h19q34 0 46.5 -6.5t12.5 -27.5q0 -35 -34 -35h-173q-34 0 -34 35q0 22 12 28t46 6h24v211l-28 -2h-4q-18 0 -28.5 9.5t-10.5 23.5q0 35 39 36l76 5h4q18 0 25.5 -8t7.5 -28v-247zM492 419q8 4 17 4q11 0 18.5 -7.5t7.5 -18.5
q0 -17 -18 -27l-419 -212q-7 -4 -16 -4q-11 0 -18.5 8t-7.5 19q0 16 18 26zM509 40h37q16 0 20 -6t4 -25t-4.5 -27t-19.5 -8h-37v-39q0 -28 -39 -28q-21 0 -30.5 6t-9.5 22v39h-150q-31 0 -31 40q0 41 18 62l138 170q13 16 21 16q12 0 18 -1l49 -8q16 -3 16 -31v-182z" />
    <glyph glyph-name="onesuperior" unicode="&#xb9;" 
d="M347 316h19q36 0 49 -7t13 -30q0 -38 -36 -38h-180q-36 0 -36 38q0 23 13 30t48 7h20v230l-24 -2h-6q-18 0 -28.5 10t-10.5 25q0 37 41 40l79 5h7q19 0 25.5 -8.5t6.5 -30.5v-269z" />
    <glyph glyph-name="plusminus" unicode="&#xb1;" 
d="M351 218q0 -24 -14 -39t-37 -15q-22 0 -36 15t-14 39v122h-135q-24 0 -39 14t-15 37t15 37t39 14h135v123q0 24 14 39t36 15q23 0 37 -15t14 -39v-123h136q24 0 39 -14t15 -37t-15 -37t-39 -14h-136v-122zM115 30q-24 0 -39 14t-15 36q0 23 15 37t39 14h372q24 0 39 -14
t15 -36q0 -23 -15 -37t-39 -14h-372z" />
    <glyph glyph-name="thorn" unicode="&#xfe;" 
d="M328 357q-54 0 -92.5 -44.5t-38.5 -109.5q0 -47 25.5 -74t68.5 -27q54 0 91.5 45t37.5 113q0 42 -25.5 69.5t-66.5 27.5zM140 -87h53q50 0 50 -44q0 -63 -72 -63h-202q-47 0 -47 44q0 63 74 63h25l132 617h-13q-18 0 -30 12.5t-12 32.5q0 64 72 64h91q21 0 21 -20
q0 -1 -0.5 -3t-0.5 -3l-48 -222q20 33 57.5 52.5t82.5 19.5q78 0 127 -52.5t49 -142.5q0 -114 -71.5 -189.5t-170.5 -75.5q-85 0 -136 50z" />
    <glyph glyph-name="threequarters" unicode="&#xbe;" 
d="M239 519q68 -30 68 -89q0 -47 -39.5 -78t-105.5 -31q-57 0 -90.5 14t-33.5 37q0 36 35 36q12 0 39.5 -10.5t45.5 -10.5q27 0 44.5 14.5t17.5 36.5q0 19 -14 33t-35 15q-14 1 -20.5 3t-12 8t-5.5 18q0 14 8 19.5t27 9.5q21 5 29.5 13.5t8.5 28.5q0 36 -37 36
q-19 0 -47.5 -13.5t-36.5 -13.5q-13 0 -22 8.5t-9 22.5q0 24 36 43t87 19t83.5 -27.5t32.5 -64.5q0 -52 -54 -77zM509 40h37q16 0 20 -6t4 -25t-4.5 -27t-19.5 -8h-37v-39q0 -28 -39 -28q-21 0 -30.5 6t-9.5 22v39h-150q-31 0 -31 40q0 41 18 62l138 170q13 16 21 16
q12 0 18 -1l49 -8q16 -3 16 -31v-182zM437 40v149l-116 -149h116zM492 419q8 4 17 4q11 0 18.5 -7.5t7.5 -18.5q0 -17 -18 -27l-419 -212q-7 -4 -16 -4q-11 0 -18.5 8t-7.5 19q0 16 18 26z" />
    <glyph glyph-name="threesuperior" unicode="&#xb3;" 
d="M375 445q77 -36 77 -100q0 -52 -47.5 -87t-126.5 -35q-67 0 -109 21.5t-42 51.5q0 14 10.5 23.5t26.5 9.5q10 0 46.5 -15.5t69.5 -15.5q34 0 56 15.5t22 36.5q0 44 -63 50q-46 5 -54 12q-9 7 -9 25q0 16 10 26t20 10q35 0 56 12t21 32q0 19 -15 30.5t-40 11.5
q-23 0 -55 -17.5t-45 -17.5q-14 0 -22.5 8t-8.5 19q0 30 41.5 55.5t98.5 25.5q60 0 98.5 -29.5t38.5 -71.5q0 -47 -55 -86z" />
    <glyph glyph-name="twosuperior" unicode="&#xb2;" 
d="M243 313h138l3 18q7 38 40 38q18 0 29 -12t11 -31q0 -6 -1 -10l-7 -47q-4 -28 -50 -28h-222q-38 0 -38 46q0 10 2 18.5t8 17t10.5 14t17 15t18 13.5t23.5 15.5t25 16.5q46 31 67.5 54.5t21.5 50.5q0 22 -15 36t-39 14q-23 0 -53 -16.5t-38 -16.5q-15 0 -26 10.5t-11 25.5
q0 30 45 53.5t99 23.5q59 0 95.5 -35t36.5 -88q0 -51 -42.5 -91.5t-147.5 -104.5z" />
    <glyph glyph-name="yacute" unicode="&#xfd;" 
d="M99 344q-24 4 -34 13.5t-10 30.5q0 29 18 46t46 17h119q51 0 51 -44q0 -60 -68 -63l42 -207l131 207q-24 4 -34 13.5t-10 30.5q0 29 17.5 46t45.5 17h110q51 0 51 -44q0 -58 -64 -63l-286 -431h23q51 0 51 -44q0 -63 -74 -63h-183q-47 0 -47 44q0 35 20.5 49t63.5 14h32
l66 97zM300 499l-24 36l190 131q9 6 18 6q14 0 23 -14l25 -38q4 -5 4 -12q0 -17 -17 -23z" />
  </font>
</defs>
</svg>
