<?xml version="1.0" standalone="no"?>
<!DOCTYPE svg PUBLIC "-//W3C//DTD SVG 1.1//EN" "http://www.w3.org/Graphics/SVG/1.1/DTD/svg11.dtd" >
<svg>
<metadata>
Created by FontForge 20110222 at Sat Jan  9 03:31:51 2016
 By www-data
Copyright 1990 as an unpublished work by Bitstream Inc.  All rights reserved.  Confidential.
</metadata>
<defs>
<font id="CourierCode-Bold" horiz-adv-x="602" >
  <font-face 
    font-family="Courier Code"
    font-weight="700"
    font-stretch="normal"
    units-per-em="1000"
    panose-1="2 0 8 9 0 0 0 0 0 0"
    ascent="800"
    descent="-200"
    x-height="451"
    cap-height="578"
    bbox="-44 -309 664 875"
    underline-thickness="93"
    underline-position="-97"
    unicode-range="U+0020-FB02"
  />
<missing-glyph 
d="M33 0v666h265v-666h-265zM66 33h199v600h-199v-600z" />
    <glyph glyph-name=".notdef" 
d="M33 0v666h265v-666h-265zM66 33h199v600h-199v-600z" />
    <glyph glyph-name=".null" horiz-adv-x="0" 
 />
    <glyph glyph-name="nonmarkingreturn" 
 />
    <glyph glyph-name="space" unicode=" " 
 />
    <glyph glyph-name="exclam" unicode="!" 
d="M205 72q0 35 26.5 58t69.5 23q44 0 70 -22.5t26 -58.5q0 -37 -26 -60t-70 -23q-43 0 -69.5 23.5t-26.5 59.5zM236 546v5q0 28 17 44.5t47 16.5t47.5 -16.5t17.5 -44.5v-5l-19 -317q-1 -15 -13.5 -26t-32.5 -11q-19 0 -31 10.5t-13 26.5z" />
    <glyph glyph-name="quotedbl" unicode="&#x22;" 
d="M195 338q-14 0 -18.5 6.5t-6.5 23.5l-15 181v6q0 24 22 24h65q23 0 23 -24v-6l-15 -181q-2 -17 -6.5 -23.5t-18.5 -6.5h-30zM377 338q-14 0 -18.5 6.5t-6.5 23.5l-15 181v6q0 24 23 24h65q22 0 22 -24v-6l-15 -181q-2 -17 -6.5 -23.5t-18.5 -6.5h-30z" />
    <glyph glyph-name="numbersign" unicode="#" 
d="M269 251h60l6 112h-61zM207 641q2 42 41 42q42 0 42 -41v-5l-11 -200h60l11 204q2 42 41 42q42 0 42 -41v-5l-11 -200h48q32 0 32 -37t-32 -37h-52l-7 -112h59q32 0 32 -37t-32 -37h-63l-10 -193q-2 -42 -41 -42q-19 0 -30.5 11.5t-11.5 31.5v4l11 188h-61l-10 -193
q-2 -42 -41 -42q-19 0 -30 12t-11 32v3l9 189h-50q-32 0 -32 37q0 36 32 36h54l6 112h-60q-32 0 -32 37t32 37h65z" />
    <glyph glyph-name="dollar" unicode="$" 
d="M174 62q-14 -18 -43 -18q-26 0 -36 12.5t-10 47.5v59q0 31 11.5 45.5t39.5 14.5q16 0 26.5 -6t14 -11.5t9 -20t7.5 -18.5q11 -23 41.5 -37t70.5 -14q36 0 56.5 16.5t20.5 45.5q0 27 -17.5 40t-70.5 33l-90 35q-106 40 -106 149q0 146 170 158l4 39q3 40 45 40
q43 0 43 -34v-7l-4 -43q34 -7 51 -14q10 22 40 22q22 0 31 -13t10 -42l1 -60v-3q0 -50 -53 -50q-17 0 -26.5 7.5t-18.5 26.5q-25 51 -85 51q-40 0 -62.5 -17t-22.5 -46q0 -25 16 -38.5t58 -30.5l91 -35q65 -26 94 -60.5t29 -92.5q0 -80 -46 -123t-134 -43h-3l-7 -107
q-1 -22 -12.5 -32t-34.5 -10q-38 0 -38 40v8l7 113q-34 6 -67 23z" />
    <glyph glyph-name="percent" unicode="%" 
d="M101 499q0 57 40.5 95t102.5 38t102.5 -38t40.5 -95t-40 -95t-103 -38q-62 0 -102.5 38t-40.5 95zM310 499q0 26 -18 43t-47 17q-30 0 -48 -17t-18 -43t18 -42.5t48 -16.5t47.5 16.5t17.5 42.5zM423 117q0 26 -18 42.5t-48 16.5t-48 -16.5t-18 -42.5t18 -42.5t48 -16.5
t48 16.5t18 42.5zM213 117q0 57 40.5 95t103.5 38q62 0 102.5 -38t40.5 -95t-40 -95t-103 -38t-103.5 38t-40.5 95zM124 272l327 130q8 3 14 3q13 0 21.5 -9.5t8.5 -23.5q0 -19 -20 -27l-328 -131q-7 -3 -14 -3q-13 0 -21 10t-8 25q0 18 20 26z" />
    <glyph glyph-name="ampersand" unicode="&#x26;" 
d="M316 114l-91 122q-48 -30 -48 -75q0 -31 20.5 -52t52.5 -21q31 0 66 26zM376 34q-68 -50 -153 -50q-74 0 -120 42.5t-46 109.5q0 55 26 96.5t83 80.5l-27 43q-23 39 -23 80q0 58 39.5 91.5t110.5 33.5q55 0 100 -30q14 3 21 3q16 0 26.5 -12.5t10.5 -31.5
q0 -26 -16.5 -44.5t-36.5 -18.5q-14 0 -45 18t-49 18q-38 0 -38 -36q0 -7 1 -12.5t5 -13t5 -10t8 -12t8 -10.5l117 -164q5 17 11 39t8.5 31.5t8.5 19.5t15 13t24 3h18h19q14 0 25.5 -13t11.5 -35q0 -43 -46 -50q-10 -56 -35 -94l25 -30h8q42 0 42 -43q0 -46 -50 -46h-39
q-27 0 -38 14z" />
    <glyph glyph-name="quoteright" unicode="&#x2019;" 
d="M265 556q4 14 9 18.5t18 4.5h96q14 0 14 -9q0 -7 -3 -12l-120 -233q-8 -14 -19 -14q-5 0 -8 1l-31 11q-14 5 -14 16q0 7 1 10z" />
    <glyph glyph-name="parenleft" unicode="(" 
d="M427 597q10 0 17 -7t7 -17q0 -7 -5.5 -18.5t-20.5 -37t-24 -41.5q-75 -138 -75 -276q0 -126 58 -243q14 -28 32 -59t26.5 -47t8.5 -24q0 -10 -7 -16.5t-17 -6.5q-45 0 -119 92q-111 140 -111 304q0 166 111 305q73 92 119 92z" />
    <glyph glyph-name="parenright" unicode=")" 
d="M176 -197q-10 0 -17 7t-7 17q0 7 6 18.5t20.5 36.5t24.5 42q75 138 75 276q0 124 -59 244q-14 28 -32 58.5t-26.5 46.5t-8.5 24q0 10 7 17t17 7q45 0 119 -92q111 -139 111 -305q0 -165 -111 -304q-74 -93 -119 -93z" />
    <glyph glyph-name="asterisk" unicode="*" 
d="M456 479q8 3 12 3q9 0 15 -20l13 -41q4 -12 4 -18q0 -8 -16 -11l-131 -28l90 -102q7 -7 7 -14q0 -5 -16 -16l-34 -25q-12 -9 -18 -9q-7 0 -13 11l-68 116l-68 -116q-7 -11 -14 -11q-5 0 -18 10l-34 25q-15 11 -15 16q0 7 7 14l91 100l-132 29q-16 3 -16 11q0 6 4 19
l14 40q7 20 14 20q4 0 12 -3l122 -56l-14 136v5q0 9 5.5 12t19.5 3h43q14 0 19 -2.5t5 -11.5v-6l-13 -134z" />
    <glyph glyph-name="plus" unicode="+" 
d="M351 97q0 -24 -14 -39t-36 -15q-23 0 -37 15t-14 39v160h-160q-24 0 -39 14t-15 37t15 37t39 14h160v160q0 24 13.5 38.5t36.5 14.5t37 -14.5t14 -38.5v-160h161q24 0 39 -14t15 -37t-15 -37t-39 -14h-161v-160z" />
    <glyph glyph-name="comma" unicode="," 
d="M241 142q5 17 11.5 22t23.5 5h116q17 0 17 -11q0 -6 -4 -14l-146 -286q-8 -17 -24 -17q-2 0 -10 2l-37 13q-17 6 -17 19q0 9 1 13z" />
    <glyph glyph-name="hyphen" unicode="-" 
d="M97 170q-21 0 -21 27v61q0 23 21 23h405q23 0 23 -23v-61q0 -11 -7 -19t-16 -8h-405z" />
    <glyph glyph-name="period" unicode="." 
d="M199 85q0 40 28.5 66t73.5 26q46 0 74 -25.5t28 -66.5t-28 -66.5t-74 -25.5q-45 0 -73.5 26t-28.5 66z" />
    <glyph glyph-name="slash" unicode="/" 
d="M212 -6q-24 -52 -51 -52q-21 0 -39 13.5t-18 35.5q0 16 14 47l286 612q24 52 51 52q21 0 39 -13.5t18 -35.5q0 -15 -14 -46z" />
    <glyph glyph-name="zero" unicode="0" 
d="M250 309.5q0 21.5 15 36.5t36 15t36 -15.5t15 -36.5t-15 -36t-36 -15t-36 15t-15 36.5zM300 -16q-110 0 -176 86.5t-66 237.5q0 152 66 238t176 86q111 0 177.5 -86.5t66.5 -237.5t-66.5 -237.5t-177.5 -86.5zM301 522q-51 0 -81.5 -55.5t-30.5 -157.5q0 -103 30.5 -159
t81.5 -56t81.5 56t30.5 159q0 102 -30.5 157.5t-81.5 55.5z" />
    <glyph glyph-name="one" unicode="1" 
d="M257 516l-55 -14q-24 -6 -33 -6q-42 0 -42 49q0 34 50 47l121 33q27 8 41 8q20 0 28 -11t8 -36v-482h79q32 0 47 -12t15 -40q0 -29 -15 -40.5t-47 -11.5h-288q-32 0 -47 11.5t-15 40.5q0 28 15 40t47 12h91v412z" />
    <glyph glyph-name="two" unicode="2" 
d="M501 34q-1 -13 -2.5 -19.5t-7.5 -10.5t-19 -4h-351q-59 0 -59 47q0 35 40 74l199 192q64 62 64 125q0 87 -87 87q-51 0 -75 -29q-4 -5 -15.5 -24.5t-22 -27t-28.5 -7.5q-49 0 -49 64q0 32 8 48.5t31 32.5q76 50 172 50q93 0 146.5 -50.5t53.5 -133.5q0 -110 -115 -210
l-148 -128h171q0 52 53 52q45 0 45 -46v-6z" />
    <glyph glyph-name="three" unicode="3" 
d="M390 335q111 -35 111 -154q0 -90 -61 -144t-168 -54q-89 0 -144 29t-55 68q0 24 15 39t41 15q12 0 61.5 -22t88.5 -22q46 0 70.5 25t24.5 70q0 54 -23 73t-77 21q-30 1 -41 11t-11 40q0 9 0.5 16t4 11.5t5 7.5t8 5t8.5 2.5t12.5 2t12.5 1.5q45 6 64.5 20.5t19.5 57.5
q0 78 -72 78q-36 0 -81 -22.5t-62 -22.5q-19 0 -30.5 12.5t-11.5 31.5q0 40 56.5 70.5t143.5 30.5q86 0 136 -44.5t50 -116.5q0 -92 -96 -136z" />
    <glyph glyph-name="four" unicode="4" 
d="M325 244v270l-153 -270h153zM291 612q11 19 24 19q4 0 14 -2l87 -15q15 -3 15 -25v-345q3 -1 8 -1q10 0 22.5 12.5t21.5 12.5q20 0 32 -10.5t12 -28.5q0 -10 -3 -19l-11 -36q-6 -20 -27 -20h-55v-61h29q32 0 47 -10.5t15 -36.5q0 -25 -15 -35.5t-47 -10.5h-206
q-32 0 -46.5 10.5t-14.5 35.5q0 26 14.5 36.5t46.5 10.5h71v61h-225q-26 0 -26 30v30q0 29 12 49z" />
    <glyph glyph-name="five" unicode="5" 
d="M212 394q61 18 106 18q88 0 142 -58t54 -152q0 -106 -66.5 -162t-192.5 -56q-185 0 -185 79q0 23 16.5 40t39.5 17q14 0 61.5 -14t80.5 -14q55 0 85.5 28.5t30.5 80.5q0 50 -28.5 80.5t-77.5 30.5q-32 0 -74.5 -20t-58.5 -20q-28 0 -39.5 15.5t-11.5 52.5v236q0 22 5 31
t26 9h320q31 0 42.5 -12t11.5 -43q0 -30 -11.5 -42t-42.5 -12h-233v-113z" />
    <glyph glyph-name="six" unicode="6" 
d="M207 345q48 56 128 56q78 0 132 -60t54 -148q0 -93 -60 -150.5t-160 -57.5q-103 0 -163 75t-60 208q0 165 92 264.5t244 99.5q95 0 95 -36q0 -17 -3.5 -26t-15 -14t-20.5 -6t-34 -2.5t-42 -3.5q-77 -8 -122 -56.5t-65 -142.5zM209 190q0 -49 28 -79.5t70 -30.5
q40 0 65 29t25 76q0 48 -26.5 78.5t-67.5 30.5q-40 0 -67 -29.5t-27 -74.5z" />
    <glyph glyph-name="seven" unicode="7" 
d="M146 498q-2 -15 -14 -25.5t-31 -10.5q-40 0 -40 38q0 2 0.5 6t0.5 6l9 76q3 28 33 28h345q26 0 26 -25v-27l-158 -550q-7 -22 -29 -22h-90q-7 0 -12 4.5t-5 10.5q0 10 2 15l175 485h-210z" />
    <glyph glyph-name="eight" unicode="8" 
d="M190 316q-108 48 -108 148q0 70 61 119t158 49q98 0 159 -50t61 -123q0 -98 -109 -143q56 -20 85.5 -59t29.5 -91q0 -80 -62 -131t-164 -51q-101 0 -163.5 51.5t-62.5 128.5q0 52 29.5 91.5t85.5 60.5zM206 454q0 -37 26.5 -61.5t67.5 -24.5q42 0 68.5 24t26.5 62
q0 37 -26.5 61.5t-68.5 24.5t-68 -24.5t-26 -61.5zM201 171q0 -39 27.5 -65t72.5 -26t72.5 25.5t27.5 65.5t-28 65.5t-72 25.5q-45 0 -72.5 -24.5t-27.5 -66.5z" />
    <glyph glyph-name="nine" unicode="9" 
d="M388 426q0 49 -28 79.5t-70 30.5q-40 0 -65 -29t-25 -76q0 -48 26.5 -78.5t67.5 -30.5q40 0 67 29.5t27 74.5zM390 271q-48 -56 -128 -56q-78 0 -132 60.5t-54 148.5q0 92 60 149.5t160 57.5q103 0 163 -75t60 -208q0 -165 -92 -264.5t-244 -99.5q-95 0 -95 37
q0 17 3.5 26t15 13.5t21 5.5t34 2.5t42.5 3.5q77 8 121.5 56t64.5 143z" />
    <glyph glyph-name="colon" unicode=":" 
d="M199 86q0 40 28 65.5t73 25.5q46 0 74.5 -25.5t28.5 -65.5q0 -41 -28.5 -67t-74.5 -26q-45 0 -73 26.5t-28 66.5zM199 346q0 40 28 65.5t74 25.5t73.5 -25.5t27.5 -65.5q0 -41 -28 -67t-73 -26t-73.5 26.5t-28.5 66.5z" />
    <glyph glyph-name="semicolon" unicode=";" 
d="M197 346q0 40 28 65.5t73 25.5q46 0 74 -25.5t28 -65.5q0 -41 -28 -67t-74 -26q-45 0 -73 26.5t-28 66.5zM241 142q5 17 11.5 22t23.5 5h116q17 0 17 -11q0 -6 -4 -14l-146 -286q-8 -17 -24 -17q-2 0 -10 2l-37 13q-17 6 -17 19q0 9 1 13z" />
    <glyph glyph-name="less" unicode="&#x3c;" 
d="M522 163q36 -17 36 -47q0 -23 -12.5 -38.5t-32.5 -15.5q-12 0 -35 10l-389 182q-45 21 -45 53t45 53l389 182q23 10 35 10q20 0 32.5 -15t12.5 -38q0 -31 -36 -47l-310 -145z" />
    <glyph glyph-name="equal" unicode="=" 
d="M90 354q-24 0 -39 14t-15 37t15 37t39 14h422q24 0 39 -14t15 -37t-15 -37t-39 -14h-422zM90 160q-24 0 -39 14t-15 37t15 37t39 14h422q24 0 39 -14t15 -37t-15 -37t-39 -14h-422z" />
    <glyph glyph-name="greater" unicode="&#x3e;" 
d="M79 452q-35 16 -35 47q0 23 12.5 38t32.5 15q11 0 34 -10l390 -182q45 -21 45 -53t-45 -53l-390 -182q-23 -10 -34 -10q-20 0 -32.5 15.5t-12.5 38.5q0 31 35 47l310 144z" />
    <glyph glyph-name="question" unicode="?" 
d="M168 71q0 34 26 55.5t69 21.5q44 0 70 -21.5t26 -55.5t-26.5 -56t-69.5 -22t-69 22.5t-26 55.5zM206 252q0 34 11.5 52.5t46.5 37.5q11 6 31.5 16t30.5 15.5t21.5 15.5t16.5 23.5t5 31.5q0 35 -23.5 56t-64.5 21t-55 -8t-19 -29q-5 -24 -14.5 -35t-36.5 -11q-41 0 -41 48
v62q0 26 54.5 45t133.5 19q89 0 140.5 -47t51.5 -126q0 -63 -46 -109t-134 -68v-38q0 -20 -14.5 -31.5t-39.5 -11.5q-26 0 -40.5 11.5t-14.5 30.5v29z" />
    <glyph glyph-name="at" unicode="@" 
d="M392 256v124q-5 1 -14 1q-34 0 -54.5 -21t-20.5 -55q0 -59 52 -59q13 0 37 10zM410 184q-46 -20 -81 -20q-49 0 -81.5 36.5t-32.5 92.5q0 78 43 120t122 42h13q0 60 -22.5 92.5t-62.5 32.5q-62 0 -98 -67.5t-36 -192.5q0 -282 162 -282q22 0 50.5 8.5t36.5 8.5
q28 0 28 -40q0 -30 -31 -47.5t-85 -17.5q-130 0 -199 92t-69 271q0 171 66 263t181 92q97 0 140.5 -57t43.5 -178v-183q25 -25 25 -47q0 -18 -14 -30.5t-35 -12.5q-19 0 -64 24z" />
    <glyph glyph-name="A" unicode="A" 
d="M165 107h17q32 0 47 -11.5t15 -41.5t-15 -42t-47 -12h-126q-32 0 -47 12t-15 42q0 53 54 53h8l131 364h-40q-32 0 -46.5 12t-14.5 42q0 29 15 41.5t47 12.5h183q31 0 40.5 -9t20.5 -39l155 -424h8q54 0 54 -53q0 -30 -15 -42t-47 -12h-147q-32 0 -47 12t-15 42t15 41.5
t47 11.5h17l-20 57h-211zM220 265h142l-71 206z" />
    <glyph glyph-name="B" unicode="B" 
d="M309 0h-214q-32 0 -46.5 12.5t-14.5 41.5q0 53 53 53h8v364h-8q-53 0 -53 54q0 29 14.5 41.5t46.5 12.5h225q104 0 157 -40.5t53 -116.5q0 -77 -65 -115q103 -38 103 -140q0 -80 -63 -128q-33 -25 -70 -32t-92 -7h-34zM216 351h65q58 0 84 13.5t26 48.5q0 33 -22.5 47
t-71.5 14h-81v-123zM216 104h73q74 0 107.5 16t33.5 58q0 44 -32 59.5t-104 15.5h-78v-149z" />
    <glyph glyph-name="C" unicode="C" 
d="M454 563q17 31 46 31q24 0 34 -12t10 -43l1 -127q0 -32 -10.5 -44.5t-40.5 -12.5q-22 0 -32.5 10.5t-17.5 35.5q-13 45 -39.5 66t-78.5 21q-75 0 -115 -50.5t-40 -147.5q0 -96 40.5 -147t115.5 -51q40 0 78 17t67 34t46 17q19 0 32 -16t13 -40q0 -41 -74.5 -80.5
t-171.5 -39.5q-128 0 -207 85t-79 221q0 130 79.5 217.5t203.5 87.5q67 0 140 -32z" />
    <glyph glyph-name="D" unicode="D" 
d="M221 108q10 -1 28 -1q92 0 135.5 45t43.5 139q0 183 -178 183q-19 0 -29 -1v-365zM95 0q-32 0 -47 12t-15 42q0 53 54 53h8v364h-8q-54 0 -54 54q0 29 15 41.5t47 12.5h92h29q85 0 137 -7t93 -31q58 -36 90 -100.5t32 -150.5q0 -90 -36 -157.5t-102 -102.5
q-55 -30 -188 -30h-55h-92z" />
    <glyph glyph-name="E" unicode="E" 
d="M495 579q30 0 40.5 -9.5t10.5 -35.5v-109q0 -32 -11.5 -47t-40.5 -15t-41 15t-12 47v51h-227v-125h85v6q0 55 50 55q51 0 51 -61v-101q0 -32 -11.5 -46.5t-38.5 -14.5q-50 0 -50 52v9h-86v-146h227v58q0 32 12 46.5t41 14.5t40.5 -14.5t11.5 -46.5v-118q0 -26 -10 -35
t-41 -9h-400q-31 0 -45.5 12.5t-14.5 41.5q0 53 52 53h8v364h-7q-53 0 -53 54t60 54h400z" />
    <glyph glyph-name="F" unicode="F" 
d="M500 579q30 0 40.5 -9.5t10.5 -35.5v-109q0 -32 -12 -47t-41 -15t-40.5 15t-11.5 47v51h-227v-125h85v6q0 55 50 55q27 0 38.5 -14.5t11.5 -46.5v-101q0 -32 -11.5 -46.5t-38.5 -14.5q-50 0 -50 52v9h-85v-143h27q31 0 45.5 -12t14.5 -41t-14.5 -41.5t-45.5 -12.5h-146
q-31 0 -45.5 12.5t-14.5 41.5q0 53 52 53h8v364h-7q-53 0 -53 54t60 54h400z" />
    <glyph glyph-name="G" unicode="G" 
d="M449 563q17 31 45 31q24 0 34.5 -12t10.5 -43l1 -127q0 -32 -10.5 -44.5t-40.5 -12.5q-22 0 -33 11t-18 35q-13 45 -39 66t-78 21q-75 0 -115 -50.5t-40 -147.5t42 -149t118 -52q36 0 93 17v76h-55q-32 0 -46.5 12t-14.5 42t14.5 42t46.5 12h176q32 0 47 -11.5t15 -41.5
q0 -54 -54 -54h-8v-116v-6q0 -14 -3 -20.5t-14 -13.5q-25 -15 -84 -28.5t-127 -13.5q-129 0 -208 85t-79 220q0 130 80 217.5t204 87.5q67 0 140 -32z" />
    <glyph glyph-name="H" unicode="H" 
d="M381 359v112h-8q-54 0 -54 54q0 29 15 41.5t47 12.5h126q32 0 46 -12t14 -42q0 -54 -52 -54h-8v-364h8q52 0 52 -53q0 -30 -14 -42t-46 -12h-126q-32 0 -47 12t-15 42q0 53 54 53h8v144h-160v-144h8q54 0 54 -53q0 -30 -15 -42t-47 -12h-126q-32 0 -46.5 12t-14.5 42
q0 53 53 53h8v364h-8q-53 0 -53 54q0 29 14.5 41.5t46.5 12.5h126q32 0 47 -12.5t15 -41.5q0 -54 -54 -54h-8v-112h160z" />
    <glyph glyph-name="I" unicode="I" 
d="M446 578q32 0 47 -11.5t15 -41.5t-15 -42t-47 -12h-82v-364h82q32 0 46.5 -11.5t14.5 -41.5q0 -54 -61 -54h-290q-32 0 -47 12t-15 42t15 41.5t47 11.5h82v364h-82q-32 0 -47 12t-15 42t15 41.5t47 11.5h290z" />
    <glyph glyph-name="J" unicode="J" 
d="M518 578q32 0 47 -11.5t15 -41.5t-15 -41.5t-47 -11.5h-41v-271v-9q0 -37 -1.5 -57t-10 -45.5t-25.5 -44.5q-52 -60 -183 -60q-94 0 -168 35q-20 9 -28 24.5t-8 51.5v101q0 40 12.5 57.5t43.5 17.5q12 0 20.5 -3.5t13 -7.5t7.5 -14t4 -15.5t2 -20t2 -20.5
q6 -53 24.5 -75.5t67.5 -22.5q58 0 79 31.5t21 105.5v241h-81q-32 0 -47 12t-15 42t15 41.5t47 11.5h249z" />
    <glyph glyph-name="K" unicode="K" 
d="M372 474q-25 3 -35.5 14.5t-10.5 36.5q0 29 14.5 41.5t46.5 12.5h120q32 0 46.5 -12.5t14.5 -41.5q0 -55 -55 -55q-1 0 -5 0.5t-6 0.5l-143 -141q45 -33 78 -85t72 -138q6 1 16 1q56 0 56 -54q0 -30 -14.5 -42t-46.5 -12h-60q-10 0 -17 1t-13 4.5t-9.5 5.5t-8.5 10.5
t-6.5 12t-8 17t-8.5 18.5q-53 115 -122 173l-46 -44v-91h8q54 0 54 -53q0 -30 -15 -42t-47 -12h-126q-32 0 -47 12t-15 42q0 53 54 53h8v364h-8q-53 0 -53 54q0 29 14.5 41.5t46.5 12.5h126q32 0 47 -12.5t15 -41.5q0 -54 -54 -54h-8v-148z" />
    <glyph glyph-name="L" unicode="L" 
d="M81 0q-31 0 -45 12.5t-14 41.5t14 41t45 12h43v364h-43q-31 0 -45 12.5t-14 41.5t14 41.5t45 12.5h209q60 0 60 -54q0 -29 -14.5 -41.5t-45.5 -12.5h-43v-364h222v87q0 32 12 47t41 15t41 -15t12 -47v-150q0 -26 -10 -35t-41 -9h-443z" />
    <glyph glyph-name="M" unicode="M" 
d="M395 527q18 52 66 52h76q32 0 47 -12.5t15 -41.5q0 -54 -54 -54h-8l14 -364h8q53 0 53 -53q0 -30 -14.5 -42t-46.5 -12h-110q-32 0 -46.5 12t-14.5 42q0 53 53 53h8l-7 298l-72 -222q-15 -47 -62 -47t-62 47l-71 222l-7 -298h8q53 0 53 -53q0 -30 -14.5 -42t-46.5 -12
h-110q-32 0 -46.5 12t-14.5 42q0 53 53 53h8l14 364h-8q-54 0 -54 54q0 29 15 41.5t47 12.5h76q48 0 66 -52l96 -277z" />
    <glyph glyph-name="N" unicode="N" 
d="M414 202v269h-27q-31 0 -45.5 12.5t-14.5 41.5t14.5 41.5t45.5 12.5h139q31 0 45.5 -12.5t14.5 -41.5q0 -54 -53 -54h-7v-443q0 -22 -4.5 -28.5t-22.5 -6.5h-49q-20 0 -30.5 4t-18.5 18l-203 357v-265h27q31 0 45.5 -12t14.5 -41t-14.5 -41.5t-45.5 -12.5h-139
q-31 0 -45.5 12.5t-14.5 41.5q0 53 52 53h8v364h-7q-53 0 -53 54t60 54h80h4q23 0 33.5 -6t24.5 -32z" />
    <glyph glyph-name="O" unicode="O" 
d="M301 97q62 0 98.5 50.5t36.5 142.5t-36.5 142t-98.5 50t-98.5 -50t-36.5 -142q0 -91 37 -142t98 -51zM576 290q0 -134 -77.5 -219.5t-197.5 -85.5q-119 0 -197.5 86t-78.5 219q0 134 77.5 219.5t198.5 85.5q120 0 197.5 -86t77.5 -219z" />
    <glyph glyph-name="P" unicode="P" 
d="M235 467v-150h69q116 0 116 76q0 74 -116 74h-69zM318 579q242 0 242 -181q0 -191 -242 -191h-83v-100h49q31 0 45.5 -12t14.5 -41t-14.5 -41.5t-45.5 -12.5h-168q-31 0 -45.5 12.5t-14.5 41.5q0 53 52 53h8v364h-7q-53 0 -53 54t60 54h202z" />
    <glyph glyph-name="Q" unicode="Q" 
d="M301 97q62 0 98.5 50.5t36.5 142.5t-36.5 142t-98.5 50t-98.5 -50t-36.5 -142q0 -91 37 -142t98 -51zM203 9q-81 29 -129.5 106.5t-48.5 178.5q0 132 77 216.5t199 84.5q121 0 198 -84.5t77 -216.5t-77 -217.5t-194 -85.5q-16 0 -33 1l-37 -38q42 14 81 14q38 0 81 -11.5
t52 -11.5q16 0 41 10.5t34 10.5q18 0 30 -14t12 -35q0 -27 -32.5 -47t-81.5 -20q-33 0 -84 15.5t-74 15.5q-34 0 -78 -19t-54 -19q-21 0 -35.5 13.5t-14.5 33.5q0 25 42 69z" />
    <glyph glyph-name="R" unicode="R" 
d="M222 336h66q58 0 83.5 15t25.5 54q0 37 -22 53t-71 16h-82v-138zM308 214q-14 22 -34 22h-46v-129h8q53 0 53 -53q0 -30 -14.5 -42t-46.5 -12h-126q-32 0 -46.5 12.5t-14.5 41.5q0 53 53 53h8v364h-8q-53 0 -53 54q0 29 14.5 41.5t46.5 12.5h225q210 0 210 -159
q0 -114 -114 -154q10 -6 28 -33l80 -126q5 1 15 1q57 0 57 -54q0 -30 -15 -42t-47 -12h-60q-23 0 -32.5 6.5t-20.5 23.5z" />
    <glyph glyph-name="S" unicode="S" 
d="M161 9q-14 -24 -46 -24q-30 0 -42.5 11.5t-13.5 41.5l-3 115v5q0 32 12 45t43 13q11 0 19 -2.5t14 -10t9 -12.5t9.5 -18.5t9.5 -19.5q38 -75 136 -75q45 0 70 18.5t25 52.5q0 13 -3 23t-11 17.5t-16 12.5t-25 10.5t-29.5 8.5t-38 9t-43.5 11q-88 23 -128 58.5t-40 106.5
q0 83 62.5 136t162.5 53q65 0 128 -27q8 17 18 22t32 5q24 0 32 -10.5t9 -41.5l2 -94v-5q0 -28 -11 -40t-39 -12q-10 0 -17.5 2t-12 4t-9 8t-6.5 9t-6 11.5t-5 11.5q-31 61 -102 61q-45 0 -71.5 -20.5t-26.5 -51.5t27.5 -44t98.5 -27q20 -4 31 -6q91 -19 134.5 -61.5
t43.5 -116.5q0 -90 -61 -138.5t-175 -48.5q-83 0 -147 24z" />
    <glyph glyph-name="T" unicode="T" 
d="M156 0q-62 0 -62 54q0 30 15 42t47 12h82v364h-102l-3 -99v-12q0 -23 -13 -36.5t-36 -13.5q-53 0 -53 58v4l5 146q2 39 10.5 50t44.5 11h420q36 0 44.5 -11t10.5 -50l5 -146v-4q0 -30 -12 -44t-40 -14q-21 0 -35 12.5t-14 28.5v7q-1 7 -1 14l-3 99h-102v-364h82
q32 0 46.5 -12t14.5 -42q0 -54 -61 -54h-290z" />
    <glyph glyph-name="U" unicode="U" 
d="M74 471h-8q-54 0 -54 54q0 29 15 41.5t47 12.5h126q32 0 47 -12.5t15 -41.5q0 -54 -54 -54h-8v-255q0 -66 23 -95.5t80 -29.5q56 0 79.5 29.5t23.5 95.5v255h-8q-53 0 -53 54q0 29 14.5 41.5t46.5 12.5h122q32 0 46.5 -12.5t14.5 -41.5q0 -54 -53 -54h-8v-253
q0 -121 -52 -177t-172 -56q-124 0 -177 55t-53 178v253z" />
    <glyph glyph-name="V" unicode="V" 
d="M431 471h-13q-31 0 -45.5 12.5t-14.5 41.5q0 30 15 42t46 12h123q32 0 46.5 -12t14.5 -42q0 -54 -53 -54h-8l-149 -423q-10 -30 -20 -39t-40 -9h-60q-31 0 -40 9t-20 39l-152 423h-8q-51 0 -51 54q0 30 14 42t45 12h145q31 0 45.5 -12.5t14.5 -41.5t-14.5 -41.5
t-45.5 -12.5h-13l117 -346z" />
    <glyph glyph-name="W" unicode="W" 
d="M299 337l-86 -290q-8 -28 -17 -37.5t-32 -9.5h-23q-25 0 -33 7t-11 34l-47 430h-8q-53 0 -53 54q0 30 14.5 42t46.5 12h118q32 0 46.5 -12t14.5 -42q0 -54 -56 -54h-13l18 -286l60 211q13 47 62 47q48 0 62 -47l62 -211l17 286h-13q-56 0 -56 54q0 30 14.5 42t46.5 12
h118q32 0 46.5 -12t14.5 -42q0 -54 -53 -54h-8l-48 -430q-3 -28 -10.5 -34.5t-32.5 -6.5h-23q-24 0 -32.5 9.5t-16.5 37.5z" />
    <glyph glyph-name="X" unicode="X" 
d="M505 108q2 0 6 0.5t6 0.5q56 0 56 -55q0 -29 -15 -41.5t-47 -12.5h-131q-32 0 -47 12.5t-15 41.5q0 51 52 54l-75 109l-77 -109q55 -1 55 -54q0 -29 -15 -41.5t-47 -12.5h-114q-32 0 -46.5 12.5t-14.5 41.5q0 55 55 55q2 0 6 -0.5t6 -0.5l135 183l-130 180q-2 0 -6 -0.5
t-6 -0.5q-56 0 -56 55q0 29 15 41.5t47 12.5h125q32 0 47 -12.5t15 -41.5q0 -51 -50 -54l66 -93l64 93q-48 5 -48 54q0 29 14.5 41.5t46.5 12.5h109q32 0 47 -12.5t15 -41.5q0 -55 -56 -55q-9 0 -14 1l-122 -169z" />
    <glyph glyph-name="Y" unicode="Y" 
d="M99 471h-8q-52 0 -52 54q0 30 14.5 42t45.5 12h128q28 0 41 -12t13 -42q0 -54 -47 -54h-5l76 -159l73 159h-2q-45 0 -45 54q0 30 12.5 42t40.5 12h111q32 0 46 -12t14 -42q0 -54 -52 -54h-8l-131 -244v-120h64q32 0 46.5 -11.5t14.5 -41.5q0 -54 -62 -54h-253
q-32 0 -46.5 12t-14.5 42t14.5 41.5t46.5 11.5h64v106z" />
    <glyph glyph-name="Z" unicode="Z" 
d="M194 472l-3 -69q-2 -34 -14 -48t-42 -14q-52 0 -52 56v6l5 116q2 40 10.5 50t47.5 10h311q26 0 40 -13t14 -34q0 -26 -13 -44l-261 -380h164v79q0 62 56 62q52 0 52 -56v-6l-6 -126q-1 -22 -2 -30.5t-6.5 -17.5t-16.5 -11t-32 -2h-323q-25 0 -39.5 13t-14.5 34
q0 23 13 43l263 382h-151z" />
    <glyph glyph-name="bracketleft" unicode="[" 
d="M244 -181q-18 0 -28.5 9t-10.5 23v696q0 14 10.5 23t28.5 9h150q33 0 33 -38t-34 -38h-73v-607h73q34 0 34 -39q0 -38 -33 -38h-150z" />
    <glyph glyph-name="backslash" unicode="\" 
d="M403 -6l-285 613q-14 30 -14 46q0 22 18 35.5t39 13.5q16 0 27.5 -12.5t23.5 -39.5l285 -612q15 -32 15 -46q0 -22 -18.5 -35.5t-39.5 -13.5q-16 0 -27.5 12t-23.5 39z" />
    <glyph glyph-name="bracketright" unicode="]" 
d="M331 579q18 0 28.5 -9t10.5 -23v-696q0 -14 -10.5 -23t-28.5 -9h-150q-33 0 -33 38q0 39 34 39h73v607h-73q-34 0 -34 38t33 38h150z" />
    <glyph glyph-name="asciicircum" unicode="^" 
d="M301 555l-151 -124q-10 -8 -20 -8t-17 7q-9 9 -9 21q0 13 12 28l151 176q12 15 34 15t34 -15l151 -176q12 -15 12 -29q0 -11 -9 -20q-7 -7 -18 -7q-8 0 -15 5z" />
    <glyph glyph-name="underscore" unicode="_" 
d="M602 -207q23 0 23 -26v-47q0 -12 -7 -20.5t-16 -8.5h-602q-22 0 -22 29v47q0 12 6.5 19t15.5 7h602z" />
    <glyph glyph-name="quoteleft" unicode="&#x2018;" 
d="M340 350q-4 -13 -9.5 -17.5t-18.5 -4.5h-96q-14 0 -14 9q0 4 4 11l119 234q8 14 19 14q3 0 9 -2l31 -11q14 -5 14 -16q0 -4 -2 -10z" />
    <glyph glyph-name="a" unicode="a" 
d="M500 288v-181h8q54 0 54 -54q0 -29 -15 -41t-47 -12h-46q-24 0 -36 9t-20 34q-82 -55 -178 -55q-79 0 -123.5 39t-44.5 107q0 73 58 113.5t163 40.5q53 0 109 -10v9q0 90 -84 90q-33 0 -83 -24t-71 -24q-26 0 -39.5 13.5t-13.5 35.5q0 39 57.5 62.5t157.5 23.5
q107 0 150.5 -41.5t43.5 -134.5zM382 126v75q-49 11 -82 11q-116 0 -116 -72q0 -25 20 -39.5t56 -14.5q66 0 122 40z" />
    <glyph glyph-name="b" unicode="b" 
d="M196 53v-32q0 -21 -29 -21h-75q-32 0 -46.5 12t-14.5 42q0 53 53 53h8v424h-8q-53 0 -53 54q0 30 14.5 42t46.5 12h91q29 0 29 -32v-200q47 44 124 44q101 0 166 -67t65 -168q0 -99 -65 -163.5t-167 -64.5q-94 0 -139 65zM321 92q48 0 79.5 36t31.5 92t-31.5 91.5
t-79.5 35.5t-79.5 -35.5t-31.5 -91.5t31.5 -92t79.5 -36z" />
    <glyph glyph-name="c" unicode="c" 
d="M446 425q14 39 50 39q27 0 37.5 -17t10.5 -55v-80q0 -58 -49 -58q-32 0 -56 40q-38 65 -129 65q-57 0 -93.5 -38t-36.5 -95q0 -60 37.5 -97.5t101.5 -37.5q43 0 80.5 16t63 32t40.5 16q18 0 30.5 -14t12.5 -35q0 -45 -69 -81.5t-167 -36.5q-120 0 -193 67t-73 170
q0 101 73 169.5t185 68.5q76 0 144 -38z" />
    <glyph glyph-name="d" unicode="d" 
d="M328 531q-32 0 -47 12t-15 42t15 42t47 12h152q17 0 23 -7t6 -25v-500h8q53 0 53 -53q0 -30 -14.5 -42t-46.5 -12h-75q-29 0 -29 21v34q-51 -67 -146 -67t-160 65t-65 163q0 100 65 168t160 68q78 0 134 -45v124h-65zM280 92q48 0 79.5 36t31.5 92t-31.5 91.5t-79.5 35.5
t-79.5 -35.5t-31.5 -91.5t31.5 -92t79.5 -36z" />
    <glyph glyph-name="e" unicode="e" 
d="M168 197q25 -108 146 -108q46 0 85 14.5t64.5 29.5t38.5 15q20 0 32 -13t12 -35q0 -44 -66.5 -78t-169.5 -34q-119 0 -192.5 67t-73.5 170t73 170t193 67q108 0 176 -63.5t68 -151.5q0 -31 -15.5 -40.5t-55.5 -9.5h-315zM168 273h263q-8 46 -42.5 70.5t-89.5 24.5
q-106 0 -131 -95z" />
    <glyph glyph-name="f" unicode="f" 
d="M212 330h-53q-32 0 -46.5 12t-14.5 42t14.5 41.5t46.5 11.5h53q-1 10 -1 28q0 97 50.5 136.5t167.5 39.5q62 0 91 -14t29 -46q0 -20 -13 -32.5t-36 -12.5q-17 0 -45.5 4.5t-40.5 4.5q-46 0 -64 -21t-18 -71v-16h105q32 0 47 -11.5t15 -41.5t-15 -42t-47 -12h-105v-223h97
q32 0 47 -11.5t15 -41.5t-15 -42t-47 -12h-270q-32 0 -46.5 12t-14.5 42t14.5 41.5t46.5 11.5h53v223z" />
    <glyph glyph-name="g" unicode="g" 
d="M280 115q48 0 79.5 34.5t31.5 87.5q0 54 -31.5 88.5t-79.5 34.5t-79.5 -34.5t-31.5 -88.5q0 -53 31.5 -87.5t79.5 -34.5zM509 8q0 -107 -58 -155.5t-187 -48.5q-154 0 -154 65q0 24 14.5 38.5t40.5 14.5q6 0 41.5 -4.5t66.5 -4.5q68 0 95 26t27 95q0 3 -0.5 10.5
t-0.5 11.5q-66 -39 -138 -39q-98 0 -160 61.5t-62 157.5q0 98 65.5 162.5t166.5 64.5q87 0 135 -57v25q0 20 28 20h80q32 0 46.5 -11.5t14.5 -41.5q0 -54 -53 -54h-8v-336z" />
    <glyph glyph-name="h" unicode="h" 
d="M506 107h8q53 0 53 -53q0 -30 -14.5 -42t-46.5 -12h-121q-32 0 -46.5 12t-14.5 42q0 53 53 53h8v142q0 58 -14.5 84.5t-53.5 26.5q-37 0 -66 -31t-29 -80v-142h8q53 0 53 -53q0 -30 -14.5 -42t-46.5 -12h-121q-32 0 -46.5 12t-14.5 42q0 53 53 53h8v424h-8q-53 0 -53 54
q0 30 14.5 42t46.5 12h92q17 0 23 -7t6 -25v-205q37 61 122 61q77 0 119.5 -44t42.5 -130v-182z" />
    <glyph glyph-name="i" unicode="i" 
d="M238 578q0 59 11 76.5t50 17.5t49 -15.5t10 -63.5t-10 -61t-50 -13q-37 0 -48.5 11t-11.5 48zM341 451q28 0 28 -21v-323h105q32 0 47 -11.5t15 -41.5t-15 -42t-47 -12h-330q-32 0 -47 12t-15 42t15 41.5t47 11.5h105v237h-55q-32 0 -46.5 12t-14.5 42t14.5 41.5
t46.5 11.5h147z" />
    <glyph glyph-name="j" unicode="j" 
d="M273 578q0 59 11 76.5t50 17.5t49 -15.5t10 -63.5q0 -49 -9.5 -61.5t-49.5 -12.5q-37 0 -49 11t-12 48zM425 8q0 -203 -220 -203q-77 0 -109 15.5t-32 52.5q0 47 48 47q12 0 47.5 -5t57.5 -5q55 0 71.5 32.5t16.5 113.5v288h-163q-32 0 -47 12t-15 42t15 41.5t47 11.5
h255q28 0 28 -21v-422z" />
    <glyph glyph-name="k" unicode="k" 
d="M325 358q-15 5 -20 13.5t-5 25.5q0 32 14 43t46 11h108q33 0 47 -11.5t14 -41.5q0 -23 -9 -32t-32 -14q-44 -10 -82 -49l-35 -36l129 -160q2 0 6.5 0.5t5.5 0.5q57 0 57 -54q0 -30 -15 -42t-47 -12h-120q-60 0 -60 43q0 35 36 48l-80 97l-61 -55v-101q0 -18 -5.5 -25
t-22.5 -7h-88q-32 0 -46 12t-14 42q0 53 52 53h8v424h-8q-52 0 -52 54q0 30 14 42t46 12h88q17 0 22.5 -7t5.5 -25v-342z" />
    <glyph glyph-name="l" unicode="l" 
d="M240 0h226q32 0 46.5 12t14.5 42t-14.5 41.5t-46.5 11.5h-105v511q0 21 -29 21h-146q-32 0 -47 -12t-15 -42t15 -42t47 -12h54v-424v-107z" />
    <glyph glyph-name="m" unicode="m" 
d="M562 292v-185h7q46 0 46 -53q0 -30 -12.5 -42t-40.5 -12h-83q-29 0 -29 21v276q0 65 -39 65q-24 0 -38 -21.5t-14 -62.5v-171h7q47 0 47 -53q0 -30 -13 -42t-41 -12h-82q-29 0 -29 21v276q0 65 -39 65q-24 0 -38 -21.5t-14 -62.5v-171h7q47 0 47 -53q0 -30 -13 -42
t-41 -12h-111q-28 0 -40.5 12.5t-12.5 41.5q0 53 46 53h7v237h-7q-46 0 -46 54q0 29 12.5 41t40.5 12h66q19 0 26.5 -7.5t7.5 -26.5v-5q36 51 100 51q56 0 86 -45q42 45 105 45q70 0 97.5 -41.5t27.5 -129.5z" />
    <glyph glyph-name="n" unicode="n" 
d="M506 108h6q55 0 55 -54q0 -29 -14.5 -41.5t-46.5 -12.5h-120q-32 0 -47 12.5t-15 41.5q0 54 56 54h6v141q0 56 -15.5 82t-55.5 26t-66 -29t-26 -79v-141h6q55 0 55 -54q0 -29 -14.5 -41.5t-46.5 -12.5h-121q-32 0 -46.5 12.5t-14.5 41.5q0 54 55 54h6v236h-8
q-53 0 -53 53q0 30 14.5 42t46.5 12h83q28 0 28 -21v-38q47 71 138 71q155 0 155 -192v-163z" />
    <glyph glyph-name="o" unicode="o" 
d="M567 225q0 -103 -73 -170t-193 -67t-193.5 67t-73.5 170t73.5 170t193.5 67t193 -67t73 -170zM301 91q57 0 93.5 38.5t36.5 96.5t-36 95.5t-94 37.5t-94.5 -37.5t-36.5 -95.5q0 -59 37 -97t94 -38z" />
    <glyph glyph-name="p" unicode="p" 
d="M270 -87q32 0 46.5 -12t14.5 -42t-14.5 -41.5t-46.5 -11.5h-207q-32 0 -46.5 11.5t-14.5 41.5t14.5 42t46.5 12h29v431h-8q-53 0 -53 54q0 30 14.5 41.5t46.5 11.5h75q28 0 28 -20v-35q50 67 140 67q101 0 166 -64t65 -161q0 -102 -64 -168.5t-161 -66.5q-81 0 -133 43
v-133h62zM210 232q0 -56 31.5 -91.5t79.5 -35.5t79.5 35.5t31.5 91.5t-31.5 91.5t-79.5 35.5t-79.5 -35.5t-31.5 -91.5z" />
    <glyph glyph-name="q" unicode="q" 
d="M331 -87h62v133q-52 -43 -134 -43q-97 0 -161 66.5t-64 168.5q0 97 65.5 161t166.5 64q90 0 140 -67v35q0 20 28 20h75q32 0 46.5 -11.5t14.5 -41.5q0 -54 -53 -54h-8v-431h28q32 0 47 -12t15 -42t-15 -41.5t-47 -11.5h-206q-32 0 -47 11.5t-15 41.5t15 42t47 12z
M280 105q48 0 79.5 35.5t31.5 91.5t-31.5 91.5t-79.5 35.5t-79.5 -35.5t-31.5 -91.5t31.5 -91.5t79.5 -35.5z" />
    <glyph glyph-name="r" unicode="r" 
d="M279 107h115q32 0 46.5 -11.5t14.5 -41.5t-14.5 -42t-46.5 -12h-273q-32 0 -47 12t-15 42t15 41.5t47 11.5h37v237h-21q-32 0 -46.5 12t-14.5 42t14.5 41.5t46.5 11.5h104q28 0 28 -21v-72q51 55 97 80.5t102 25.5q49 0 76.5 -22t27.5 -58q0 -28 -19.5 -46.5t-49.5 -18.5
q-22 0 -52 16t-42 16q-46 0 -130 -86v-158z" />
    <glyph glyph-name="s" unicode="s" 
d="M172 6q-28 -20 -53 -20q-23 0 -31 12.5t-8 40.5v66q0 32 11 45.5t37 13.5q19 0 29 -7t19 -21.5t17 -21.5q49 -43 128 -43q37 0 57 14t20 35q0 28 -23 37.5t-94 18.5q-22 3 -35 5q-168 24 -168 138q0 69 49.5 106.5t142.5 37.5q65 0 134 -21q20 24 48 24q40 0 40 -50v-60
q0 -44 -42 -44q-19 0 -42.5 17.5t-54 35t-68.5 17.5q-39 0 -59.5 -12.5t-20.5 -34.5q0 -9 2 -15.5t8 -11t12 -7t19 -5t23 -4t29.5 -4t34.5 -4.5q102 -15 148 -45t46 -98q0 -72 -54 -112.5t-156 -40.5q-80 0 -145 18z" />
    <glyph glyph-name="t" unicode="t" 
d="M101 317q-32 0 -46.5 12t-14.5 42t14.5 41.5t46.5 11.5h46v114v20q0 16 16 28.5t43 12.5q34 0 47.5 -14.5t13.5 -46.5v-114h149q32 0 47 -11.5t15 -41.5t-15 -42t-47 -12h-149v-125q0 -50 15.5 -71t57.5 -21q38 0 89.5 22t69.5 22q20 0 34.5 -15.5t14.5 -40.5
q0 -35 -68 -66.5t-155 -31.5q-103 0 -148 53q-20 23 -25 53.5t-5 84.5v11v125h-46z" />
    <glyph glyph-name="u" unicode="u" 
d="M498 107h8q53 0 53 -53q0 -30 -14.5 -42t-46.5 -12h-82q-29 0 -29 22v37q-46 -70 -137 -70q-156 0 -156 192v163h-8q-53 0 -53 54q0 30 15 41.5t47 11.5h92q27 0 27 -21v-227q0 -56 16 -82.5t56 -26.5t66 29.5t26 79.5v141h-8q-54 0 -54 54q0 30 15 41.5t47 11.5h92
q28 0 28 -21v-323z" />
    <glyph glyph-name="v" unicode="v" 
d="M365 36q-14 -30 -25.5 -39t-43.5 -9q-9 0 -16 0.5t-13 2.5t-9.5 2.5t-8 5t-6 5t-5 7t-4 7t-4 9t-3.5 9.5l-136 308h-8q-54 0 -54 54q0 30 15 41.5t47 11.5h124q32 0 47 -11.5t15 -41.5q0 -54 -54 -54h-8l88 -208l92 208h-8q-54 0 -54 54q0 30 15 41.5t47 11.5h115
q32 0 47 -11.5t15 -41.5q0 -54 -54 -54h-8z" />
    <glyph glyph-name="w" unicode="w" 
d="M298 226l-51 -190q-13 -48 -77 -48q-63 0 -73 48l-62 308h-8q-53 0 -53 54q0 30 14.5 41.5t46.5 11.5h116q32 0 46.5 -11.5t14.5 -41.5q0 -54 -53 -54h-8l39 -240l51 186q8 26 19.5 37t40.5 11t40 -11t19 -37l54 -186l37 240h-8q-54 0 -54 54q0 30 15 41.5t47 11.5h115
q32 0 47 -11.5t15 -41.5q0 -54 -54 -54h-8l-61 -308q-10 -48 -74 -48q-61 0 -76 48z" />
    <glyph glyph-name="x" unicode="x" 
d="M486 108q2 0 6 0.5t5 0.5q56 0 56 -55q0 -29 -15 -41.5t-47 -12.5h-118q-49 0 -49 53q0 45 32 45h4l-62 69l-60 -69h4q31 0 31 -45q0 -53 -49 -53h-104q-32 0 -46.5 12.5t-14.5 41.5q0 55 52 55q2 0 5.5 -0.5t5.5 -0.5l115 117l-112 119q-6 -1 -16 -1q-56 0 -56 54
q0 29 15 41.5t47 12.5h118q49 0 49 -53q0 -45 -31 -45l52 -61l56 61q-31 0 -31 45q0 53 49 53h104q32 0 46.5 -12.5t14.5 -41.5q0 -54 -57 -54q-12 0 -19 1l-102 -111z" />
    <glyph glyph-name="y" unicode="y" 
d="M510 451q32 0 47 -11.5t15 -41.5q0 -54 -54 -54h-8l-201 -431h22q32 0 47 -12t15 -42t-15 -42t-47 -12h-214q-32 0 -47 12t-15 42t15 42t47 12h76l46 98l-148 333h-8q-54 0 -54 54q0 30 15 41.5t47 11.5h124q32 0 47 -11.5t15 -41.5q0 -54 -54 -54h-8l88 -208l92 208h-8
q-54 0 -54 54q0 30 15 41.5t47 11.5h115z" />
    <glyph glyph-name="z" unicode="z" 
d="M240 98h159l3 34q2 33 12 47t36 14q29 0 40 -14.5t11 -46.5v-72q0 -40 -10.5 -50t-46.5 -10h-303q-59 0 -59 49q0 28 24 54l237 250h-150v-23q0 -62 -49 -62q-29 0 -39.5 14.5t-10.5 47.5v62q0 40 10 49.5t46 9.5h288q59 0 59 -49q0 -29 -25 -55z" />
    <glyph glyph-name="braceleft" unicode="{" 
d="M261 44q0 52 -12 73.5t-52 27.5q-54 7 -54 53t54 53q40 6 52 28t12 74v66q0 84 36 123t124 39q52 0 52 -43q0 -15 -8.5 -24t-19 -12t-31.5 -7q-4 -1 -6 -1q-26 -5 -33.5 -23t-7.5 -62v-48q0 -80 -20.5 -116.5t-80.5 -46.5q60 -10 80.5 -46t20.5 -116v-48q0 -44 6.5 -60.5
t32.5 -23.5q6 -2 18 -4t19 -4t15 -6.5t11.5 -12t3.5 -18.5q0 -43 -52 -43q-89 0 -124.5 39t-35.5 122v67z" />
    <glyph glyph-name="bar" unicode="|" 
d="M359 -208q0 -20 -16 -36.5t-42 -16.5q-25 0 -41.5 16t-16.5 37v943q0 20 16 36.5t42 16.5q25 0 41.5 -16t16.5 -37v-943z" />
    <glyph glyph-name="braceright" unicode="}" 
d="M355 353q0 -52 12 -74t52 -28q53 -7 53 -53t-53 -53q-40 -6 -52 -27.5t-12 -73.5v-67q0 -83 -35.5 -122t-124.5 -39q-52 0 -52 43q0 15 8.5 24t19 12t31.5 7q4 1 6 1q26 5 33.5 23t7.5 62v48q0 80 20.5 116t80.5 46q-60 10 -80.5 46.5t-20.5 116.5v48q0 44 -7 60.5
t-33 23.5q-6 1 -18 3.5t-18.5 4.5t-14.5 6.5t-11.5 12t-3.5 18.5q0 43 52 43q88 0 124 -39t36 -123v-66z" />
    <glyph glyph-name="asciitilde" unicode="~" 
d="M50 286q0 33 45 63.5t104 30.5q38 0 106.5 -21t97.5 -21t63.5 17.5t46.5 17.5q17 0 27.5 -11.5t10.5 -30.5q0 -34 -44.5 -64t-102.5 -30q-39 0 -107.5 21t-97.5 21t-64.5 -18t-45.5 -18q-18 0 -28.5 11.5t-10.5 31.5z" />
    <glyph glyph-name="exclamdown" unicode="&#xa1;" 
d="M366 55v-5q0 -28 -17 -44.5t-47 -16.5t-47.5 16.5t-17.5 44.5v5l19 317q1 15 13.5 26t32.5 11q19 0 31.5 -11t13.5 -26zM397 530q0 -35 -26 -58t-69 -23q-44 0 -70.5 22.5t-26.5 58.5t26.5 59t70.5 23q43 0 69 -23t26 -59z" />
    <glyph glyph-name="cent" unicode="&#xa2;" 
d="M428 489q10 34 44 34q25 0 34.5 -15.5t9.5 -48.5v-71q0 -52 -44 -52q-29 0 -50 36q-34 58 -115 58q-51 0 -83.5 -34t-32.5 -85q0 -53 33 -86t91 -33q39 0 72 14t56 28t36 14q17 0 27.5 -12.5t10.5 -31.5q0 -35 -47.5 -63.5t-131.5 -37.5l-9 -108q-3 -28 -41 -28
q-40 0 -40 27v2l8 108q-85 14 -135 71t-50 136q0 82 55.5 140.5t145.5 68.5l8 98q3 28 39 28q42 0 42 -27v-2l-8 -101q39 -8 75 -27z" />
    <glyph glyph-name="sterling" unicode="&#xa3;" 
d="M266 344h156q19 0 19 -28v-35q0 -22 -16 -22h-140q12 -48 12 -68q0 -30 -16 -75q32 -1 64 -6.5t34 -5.5q20 0 47.5 14.5t37.5 14.5q16 0 32 -20t16 -40q0 -30 -36.5 -55.5t-88.5 -25.5q-28 0 -77 11t-71 11q-28 0 -60 -14t-34 -14q-14 0 -27 21.5t-13 39.5q0 5 3.5 10
t8 8t14.5 9.5t16 10.5q20 14 27.5 29t7.5 43q0 37 -20 102h-63q-19 0 -19 28v35q0 22 17 22h42q-28 78 -28 126q0 78 50.5 120t143.5 42q75 0 119.5 -23t47.5 -66l3 -41v-5q0 -43 -54 -43q-8 0 -13.5 2t-10 8t-6 9t-5.5 13t-5 12q-20 44 -68 44q-35 0 -56 -19.5t-21 -51.5
q0 -20 30 -127z" />
    <glyph glyph-name="fraction" unicode="&#x2044;" 
d="M212 -6q-24 -52 -51 -52q-21 0 -39 13.5t-18 35.5q0 16 14 47l286 612q24 52 51 52q21 0 39 -13.5t18 -35.5q0 -15 -14 -46z" />
    <glyph glyph-name="yen" unicode="&#xa5;" 
d="M103 508h-8q-52 0 -52 54q0 29 14.5 41t45.5 12h112q28 0 40.5 -11.5t12.5 -41.5q0 -54 -46 -54h-2l89 -193l88 194h-2q-45 0 -45 53q0 29 13 41t41 12h94q31 0 46 -12t15 -41q0 -53 -51 -53h-8l-29 -63h51q37 0 37 -37t-37 -37h-88l-35 -68h123q37 0 37 -37t-37 -37
h-159v-121h68q32 0 47 -12.5t15 -41.5q0 -55 -62 -55h-253q-32 0 -47 12.5t-15 41.5t15 42t47 13h68v121h-167q-36 0 -36 37t36 37h122l-33 68h-89q-36 0 -36 37t36 37h51z" />
    <glyph glyph-name="florin" unicode="&#x192;" 
d="M336 33q-11 -90 -57.5 -131t-137.5 -41q-53 0 -77 14.5t-24 47.5q0 46 51 46q7 0 22 -1t24 -1q38 0 54 15.5t21 54.5l34 280h-73q-10 0 -18 9.5t-8 24.5q0 47 41 47h67l10 62q14 92 58 132t136 40q53 0 77.5 -14.5t24.5 -47.5q0 -46 -51 -46q-7 0 -22 1t-24 1
q-39 0 -54.5 -15.5t-20.5 -54.5l-7 -58h81q11 0 19 -9t8 -25q0 -47 -41 -47h-77z" />
    <glyph glyph-name="section" unicode="&#xa7;" 
d="M456 37q3 -21 3 -33q0 -53 -45 -84q-36 -25 -114 -25h-19h-151q-33 0 -33 27v102q0 37 42 37q18 0 29.5 -10.5t11.5 -26.5v-50h110q39 0 55.5 8t16.5 32q0 32 -52 66l-151 102q-95 64 -95 146q0 89 83 111q-2 14 -2 32q0 52 45 83q35 25 113 25h19h139q33 0 33 -27v-102
q0 -37 -41 -37q-19 0 -30.5 10.5t-11.5 26.5v50h-98q-39 0 -55.5 -8t-16.5 -32q0 -32 52 -66l151 -102q95 -64 95 -146q0 -44 -22 -73t-61 -36zM422 96q28 12 28 35q0 36 -68 81l-149 100q-41 27 -63 63q-23 -11 -23 -33q0 -36 67 -81l150 -101q44 -30 58 -64z" />
    <glyph glyph-name="currency" unicode="&#xa4;" 
d="M109 189l-50 51l89 89q-31 46 -31 103q0 58 31 104l-89 89l50 50l88 -90q45 32 104 32t103 -32l89 90l50 -50l-90 -89q31 -46 31 -104q0 -57 -31 -103l90 -89l-50 -51l-89 91q-46 -33 -103 -33t-104 33zM190 432q0 -47 32.5 -79.5t78.5 -32.5t78.5 33t32.5 79t-32.5 79
t-78.5 33t-78.5 -33t-32.5 -79z" />
    <glyph glyph-name="quotesingle" unicode="'" 
d="M286 338q-14 0 -18.5 6.5t-6.5 23.5l-15 181v6q0 24 23 24h64q23 0 23 -24v-6l-15 -181q-2 -17 -6.5 -23.5t-18.5 -6.5h-30z" />
    <glyph glyph-name="quotedblleft" unicode="&#x201c;" 
d="M235 350q-4 -13 -9 -17.5t-18 -4.5h-96q-14 0 -14 9q0 4 4 11l119 234q8 14 19 14q3 0 9 -2l30 -11q15 -5 15 -16q0 -4 -2 -10zM427 350q-4 -13 -9 -17.5t-18 -4.5h-96q-14 0 -14 9q0 6 3 11l119 234q8 14 19 14q3 0 9 -2l31 -11q14 -5 14 -16q0 -7 -1 -10z" />
    <glyph glyph-name="guillemotleft" unicode="&#xab;" 
d="M393 223l62 -132q3 -8 3 -18q0 -15 -12 -26t-28 -11q-22 0 -31 17l-77 150q-7 13 -7 22q0 11 7 24l77 145q9 16 31 16q16 0 28 -11t12 -26q0 -9 -3 -17zM233 223l61 -132q4 -10 4 -18q0 -15 -12 -26t-28 -11q-22 0 -31 17l-77 150q-7 13 -7 22q0 11 7 24l77 145
q9 16 31 16q16 0 28 -11t12 -26q0 -7 -4 -17z" />
    <glyph glyph-name="guilsinglleft" unicode="&#x2039;" 
d="M314 223l61 -132q4 -10 4 -18q0 -15 -12 -26t-28 -11q-22 0 -31 17l-77 150q-7 13 -7 22q0 11 7 24l77 145q9 16 31 16q16 0 28 -11t12 -26q0 -7 -4 -17z" />
    <glyph glyph-name="guilsinglright" unicode="&#x203a;" 
d="M287 223l-61 133q-4 10 -4 17q0 15 12.5 26t28.5 11q21 0 30 -16l78 -150q7 -13 7 -23q0 -11 -7 -24l-78 -144q-9 -17 -30 -17q-16 0 -28.5 11t-12.5 26q0 8 4 18z" />
    <glyph glyph-name="fi" unicode="&#xfb01;" 
d="M84 344h-8q-54 0 -54 54q0 53 54 53h8v15q0 173 192 173q92 0 92 -54q0 -46 -44 -46q-12 0 -26.5 0.5t-16.5 0.5q-41 0 -58.5 -21t-17.5 -68h18q32 0 47.5 -11.5t15.5 -41.5t-15.5 -42t-47.5 -12h-18v-237h18q32 0 47 -11.5t15 -41.5t-15 -42t-47 -12h-139q-32 0 -47 12
t-15 42q0 53 54 53h8v237zM391 577q0 60 10 77.5t47 17.5t47 -15.5t10 -63.5t-9.5 -61t-47.5 -13q-35 0 -46 10.5t-11 47.5zM395 344h-8q-53 0 -53 54q0 30 14.5 41.5t46.5 11.5h92q29 0 29 -21v-323h8q53 0 53 -53q0 -30 -14.5 -42t-46.5 -12h-121q-32 0 -46.5 12t-14.5 42
q0 53 53 53h8v237z" />
    <glyph glyph-name="fl" unicode="&#xfb02;" 
d="M84 344h-8q-54 0 -54 54q0 53 54 53h8v16q0 172 192 172h211q29 0 29 -21v-511h8q53 0 53 -53q0 -30 -14.5 -42t-46.5 -12h-121q-32 0 -46.5 12t-14.5 42q0 53 53 53h8v434h-54h-8q-78 0 -102.5 -14.5t-25.5 -75.5h18q32 0 47.5 -11.5t15.5 -41.5t-15.5 -42t-47.5 -12
h-18v-237h18q32 0 47 -11.5t15 -41.5t-15 -42t-47 -12h-139q-32 0 -47 12t-15 42q0 53 54 53h8v237z" />
    <glyph glyph-name="endash" unicode="&#x2013;" 
d="M602 272q23 0 23 -24v-42q0 -11 -7 -19t-16 -8h-602q-9 0 -15.5 7.5t-6.5 19.5v42q0 10 6.5 17t15.5 7h602z" />
    <glyph glyph-name="dagger" unicode="&#x2020;" 
d="M360 31q0 -45 -56 -45q-28 0 -43.5 13t-15.5 32v319h-94q-11 0 -20.5 14t-9.5 36q0 23 10 37t20 14h94v100q0 44 56 44q28 0 43.5 -12.5t15.5 -31.5v-100h91q11 0 20.5 -14t9.5 -36q0 -23 -10 -37t-20 -14h-91v-319z" />
    <glyph glyph-name="daggerdbl" unicode="&#x2021;" 
d="M360 231h94q11 0 20.5 -14t9.5 -36q0 -23 -10 -37.5t-20 -14.5h-94v-99q0 -45 -56 -45q-28 0 -43.5 13t-15.5 32v100h-91q-11 0 -20 13.5t-9 35.5q0 23 9.5 37.5t19.5 14.5h91v119h-94q-11 0 -20.5 14t-9.5 36q0 23 10 37t20 14h94v100q0 44 56 44q28 0 43.5 -12.5
t15.5 -31.5v-100h91q11 0 20.5 -14t9.5 -36q0 -23 -10 -37t-20 -14h-91v-119z" />
    <glyph glyph-name="periodcentered" unicode="&#xb7;" 
d="M202 308q0 41 29 70t70 29t70 -29t29 -70q0 -42 -29 -70.5t-70 -28.5q-42 0 -70.5 29t-28.5 70z" />
    <glyph glyph-name="paragraph" unicode="&#xb6;" 
d="M504 616q32 0 46.5 -12t14.5 -42q0 -54 -53 -54h-8v-477h8q53 0 53 -54q0 -30 -14.5 -41.5t-46.5 -11.5h-96q-37 0 -37 40q0 22 18 41v503h-56v-503q21 -13 21 -41q0 -23 -8 -31.5t-30 -8.5h-101q-32 0 -46.5 11.5t-14.5 41.5q0 54 53 54h8v226q-80 12 -124.5 59
t-44.5 117q0 88 75 135.5t221 47.5h162z" />
    <glyph glyph-name="bullet" unicode="&#x2022;" 
d="M223 334q0 33 23 56t55 23t55 -23.5t23 -55.5t-23 -55t-55 -23t-55 22.5t-23 55.5z" />
    <glyph glyph-name="quotesinglbase" unicode="&#x201a;" 
d="M378 109q14 0 14 -9q0 -4 -4 -11l-119 -234q-6 -13 -19 -13q-6 0 -9 1l-30 11q-14 5 -14 16q0 7 1 10l57 207q4 13 9 17.5t18 4.5h96z" />
    <glyph glyph-name="quotedblbase" unicode="&#x201e;" 
d="M161 87q4 13 9.5 17.5t18.5 4.5h96q14 0 14 -9q0 -4 -4 -11l-119 -234q-6 -13 -19 -13q-6 0 -9 1l-31 11q-14 5 -14 16q0 4 2 10zM353 87q4 13 9.5 17.5t18.5 4.5h95q14 0 14 -9q0 -6 -3 -11l-119 -234q-6 -13 -19 -13q-6 0 -9 1l-31 11q-14 5 -14 16q0 7 1 10z" />
    <glyph glyph-name="quotedblright" unicode="&#x201d;" 
d="M169 556q4 13 9.5 18t18.5 5h95q14 0 14 -9q0 -7 -3 -12l-119 -233q-8 -14 -20 -14q-5 0 -8 1l-31 11q-14 5 -14 16q0 7 1 10zM361 556q4 14 9 18.5t18 4.5h96q14 0 14 -9q0 -5 -4 -12l-119 -233q-8 -14 -20 -14q-5 0 -8 1l-30 11q-14 5 -14 16q0 7 1 10z" />
    <glyph glyph-name="guillemotright" unicode="&#xbb;" 
d="M367 223l-62 133q-4 10 -4 17q0 15 12.5 26t28.5 11q21 0 30 -16l78 -150q7 -13 7 -23q0 -11 -7 -24l-78 -144q-9 -17 -30 -17q-16 0 -28.5 11t-12.5 26q0 8 4 18zM206 223l-61 133q-4 10 -4 17q0 15 12.5 26t28.5 11q21 0 30 -16l78 -150q7 -13 7 -23q0 -11 -7 -24
l-78 -144q-9 -17 -30 -17q-16 0 -28.5 11t-12.5 26q0 8 4 18z" />
    <glyph glyph-name="ellipsis" unicode="&#x2026;" 
d="M229 60q0 30 21 51.5t51 21.5t51 -21.5t21 -51.5t-21 -51t-51 -21t-51 21t-21 51zM27 60q0 30 21.5 51.5t51.5 21.5t51 -21.5t21 -51.5t-21 -51t-51 -21t-51.5 21t-21.5 51zM429 60q0 30 21.5 51.5t51.5 21.5t51 -21.5t21 -51.5t-21 -51t-51 -21t-51.5 21t-21.5 51z" />
    <glyph glyph-name="perthousand" unicode="&#x2030;" 
d="M-44 499q0 57 40.5 95t103.5 38q62 0 102.5 -38t40.5 -95t-40 -95t-103 -38t-103.5 38t-40.5 95zM166 499q0 26 -18 43t-48 17t-48 -17t-18 -43t18 -42.5t48 -16.5t48 16.5t18 42.5zM-21 272l328 130q7 3 13 3q13 0 21.5 -9.5t8.5 -23.5q0 -19 -20 -27l-328 -131
q-7 -3 -13 -3q-13 0 -21.5 10t-8.5 25q0 18 20 26zM69 117q0 57 40.5 95t102.5 38q63 0 103.5 -38t40.5 -95t-40.5 -95t-103.5 -38t-103 38t-40 95zM278 117q0 26 -18 42.5t-48 16.5t-47.5 -16.5t-17.5 -42.5t17.5 -42.5t47.5 -16.5t48 16.5t18 42.5zM377 117q0 57 40.5 95
t103.5 38q62 0 102.5 -38t40.5 -95t-40 -95t-103 -38t-103.5 38t-40.5 95zM586 117q0 26 -17.5 42.5t-47.5 16.5t-48 -16.5t-18 -42.5t18 -42.5t48 -16.5t47.5 16.5t17.5 42.5z" />
    <glyph glyph-name="questiondown" unicode="&#xbf;" 
d="M251 534q0 34 26.5 56t69.5 22q44 0 69.5 -22t25.5 -56t-26 -55.5t-69 -21.5t-69.5 22t-26.5 55zM402 353q0 -34 -11.5 -53t-46.5 -38l-32 -16t-30 -15.5t-21.5 -15.5t-16.5 -23t-5 -31q0 -35 23.5 -56t64.5 -21t55 8t19 29q5 24 14.5 34.5t36.5 10.5q41 0 41 -47v-62
q0 -26 -54.5 -45t-133.5 -19q-89 0 -140 47t-51 126q0 63 46 109t134 68v38q0 20 14 31.5t39 11.5q26 0 40.5 -11.5t14.5 -30.5v-29z" />
    <glyph glyph-name="grave" unicode="`" 
d="M406 531l-17 -38l-255 91q-13 6 -13 20q0 2 2 8l20 42q7 15 23 15q3 0 7 -2z" />
    <glyph glyph-name="acute" unicode="&#xb4;" 
d="M196 531l232 136q4 2 8 2q16 0 23 -15l20 -42q2 -6 2 -8q0 -14 -13 -20l-256 -91z" />
    <glyph glyph-name="circumflex" unicode="&#x2c6;" 
d="M331 652l135 -107q6 -4 6 -13t-7 -16.5t-16 -7.5q-2 0 -8 2l-140 65l-140 -65q-6 -2 -8 -2q-9 0 -16 7.5t-7 16.5q0 8 6 13l135 107q12 9 30 9t30 -9z" />
    <glyph glyph-name="tilde" unicode="&#x2dc;" 
d="M350 613q30 -7 41 -7q22 0 41 17t27 17q20 0 20 -21q0 -27 -33 -54.5t-80 -27.5q-25 0 -59 8l-55 15q-22 6 -42 6q-22 0 -40.5 -16.5t-27.5 -16.5q-19 0 -19 20q0 27 32.5 54.5t80.5 27.5q30 0 58 -7z" />
    <glyph glyph-name="macron" unicode="&#xaf;" 
d="M471 566q0 -8 -4.5 -13.5t-10.5 -5.5h-310q-6 0 -10.5 5.5t-4.5 13.5v30q0 19 15 19h310q15 0 15 -19v-30z" />
    <glyph glyph-name="breve" unicode="&#x2d8;" 
d="M301 603q87 0 121 19q7 4 23 21t29 17q14 0 14 -19q0 -43 -51.5 -77.5t-135.5 -34.5t-135.5 34.5t-51.5 77.5q0 19 14 19q12 0 27.5 -16.5t24.5 -21.5q33 -19 121 -19z" />
    <glyph glyph-name="dotaccent" unicode="&#x2d9;" 
d="M235 590q0 26 20 45.5t46 19.5q27 0 46.5 -19t19.5 -46q0 -28 -19 -47.5t-47 -19.5t-47 19.5t-19 47.5z" />
    <glyph glyph-name="dieresis" unicode="&#xa8;" 
d="M118 582q0 24 19 43t44 19t42.5 -18.5t17.5 -43.5q0 -28 -17 -45t-43 -17t-44.5 18t-18.5 44zM360 582q0 24 19 43t44 19t43 -18.5t18 -43.5q0 -28 -17 -45t-44 -17q-26 0 -44.5 18t-18.5 44z" />
    <glyph glyph-name="ring" unicode="&#x2da;" 
d="M169 632q0 55 38.5 93.5t93.5 38.5t93.5 -38.5t38.5 -93.5t-38.5 -93.5t-93.5 -38.5t-93.5 38.5t-38.5 93.5zM238 633q0 -26 18.5 -44.5t44.5 -18.5t44 18.5t18 44.5q0 25 -18.5 43.5t-43.5 18.5q-26 0 -44.5 -18t-18.5 -44z" />
    <glyph glyph-name="cedilla" unicode="&#xb8;" 
d="M312 0v-65q34 4 35 4q40 0 65 -23.5t25 -60.5q0 -42 -31.5 -65t-88.5 -23q-50 0 -93.5 17t-43.5 38q0 18 22 18q6 0 38 -12.5t59 -12.5q45 0 45 41q0 37 -49 37q-5 0 -25 -3v110h42z" />
    <glyph glyph-name="hungarumlaut" unicode="&#x2dd;" 
d="M166 530l137 125q13 11 19 11q10 0 17 -9l27 -32q5 -7 5 -13q0 -10 -12 -17l-166 -92zM329 530l137 125q13 11 19 11q10 0 17 -9l27 -32q5 -7 5 -13q0 -10 -12 -17l-165 -92z" />
    <glyph glyph-name="ogonek" unicode="&#x2db;" 
d="M408 15q-80 -66 -80 -130q0 -50 41 -50q30 0 54 34l17 -10q-41 -87 -115 -87q-39 0 -61.5 20t-22.5 54q0 85 139 169h28z" />
    <glyph glyph-name="caron" unicode="&#x2c7;" 
d="M271 520l-135 106q-6 4 -6 13t7 16.5t16 7.5q2 0 8 -2l140 -64l140 64q6 2 8 2q9 0 16 -7.5t7 -16.5t-6 -13l-135 -106q-13 -10 -30 -10t-30 10z" />
    <glyph glyph-name="emdash" unicode="&#x2014;" 
d="M0 272h602q23 0 23 -24v-42q0 -11 -7 -19t-16 -8h-602q-22 0 -22 27v42q0 10 6.5 17t15.5 7z" />
    <glyph glyph-name="AE" unicode="&#xc6;" 
d="M521 104v58q0 32 10 46.5t35 14.5t34.5 -14.5t9.5 -46.5v-118q0 -26 -8 -35t-35 -9h-294h-4q-25 0 -36.5 2t-21 14.5t-9.5 37.5q0 55 52 55q5 0 19 -2v78h-114l-48 -167q-5 -18 -23 -18h-53h-4q-18 0 -27.5 1t-20 6t-14.5 16.5t-4 30.5q0 55 51 55q5 0 19 -2l111 364
q-7 -1 -19 -1q-51 0 -51 55q0 20 4.5 31.5t15.5 16t20.5 5.5t29.5 1h421q27 0 35 -9.5t8 -35.5v-109q0 -32 -9.5 -47t-34.5 -15t-35 15t-10 47v51h-146v-133h40v7q0 44 37 44q39 0 39 -51v-84q0 -26 -8.5 -38.5t-29.5 -12.5q-38 0 -38 45v7h-40v-156h146zM183 269h90v207
h-30z" />
    <glyph glyph-name="ordfeminine" unicode="&#xaa;" 
d="M462 492v-144h7q42 0 42 -43t-50 -43h-37q-19 0 -28 6.5t-16 27.5q-68 -44 -142 -44q-62 0 -98.5 31.5t-36.5 86.5q0 58 46.5 90.5t131.5 32.5q30 0 86 -9v8q0 71 -67 71q-26 0 -66 -19t-59 -19t-30 11.5t-11 28.5q0 30 46 49t126 19q86 0 121 -33.5t35 -107.5zM367 363
v60q-45 9 -65 9q-44 0 -68.5 -15t-24.5 -41q0 -45 61 -45q50 0 97 32zM130 206h340q19 0 19 -15v-29q0 -7 -5.5 -12.5t-13.5 -5.5h-340q-17 0 -17 18v29q0 15 17 15z" />
    <glyph glyph-name="Lslash" unicode="&#x141;" 
d="M81 0q-31 0 -45 12.5t-14 41.5t14 41t45 12h43v97l-30 -19q-13 -8 -23 -8q-15 0 -26.5 13t-11.5 27q0 16 22 30l69 45v179h-43q-31 0 -45 12.5t-14 41.5t14 41.5t45 12.5h209q60 0 60 -54q0 -29 -14.5 -41.5t-45.5 -12.5h-43v-116l103 65q13 8 24 8q15 0 26 -13t11 -28
q0 -5 -1 -8.5t-2 -6t-4 -5t-4 -3.5t-5.5 -4t-5.5 -3l-142 -90v-160h222v87q0 32 12 47t41 15t41 -15t12 -47v-150q0 -26 -10 -35t-41 -9h-443z" />
    <glyph glyph-name="Oslash" unicode="&#xd8;" 
d="M186 175l175 291q-32 16 -63 16q-60 0 -96 -50.5t-36 -141.5q0 -64 20 -115zM413 409l-176 -293q33 -19 62 -19q63 0 100 50.5t37 142.5q0 72 -23 119zM423 567l28 46q14 22 31 22q14 0 27.5 -11.5t13.5 -24.5q0 -9 -4 -16l-36 -58q93 -90 93 -235q0 -134 -77.5 -219.5
t-197.5 -85.5q-66 0 -124 29l-37 -58q-15 -23 -31 -23q-14 0 -28 11.5t-14 24.5q0 8 5 16l45 72q-92 95 -92 233q0 134 77.5 219.5t198.5 85.5q62 0 122 -28z" />
    <glyph glyph-name="OE" unicode="&#x152;" 
d="M273 476q-6 1 -18 1q-60 0 -92 -48t-32 -139q0 -89 32 -137.5t89 -48.5q7 0 21 2v370zM334 0h-25q-117 0 -170 29q-62 36 -97 104t-35 157t35.5 159t96.5 103q23 13 56 19t59 7t79 1h230q26 0 34 -9.5t8 -35.5v-109q0 -32 -10 -47t-34 -15t-34 15t-10 47v51h-143v-133h39
v8q0 43 37 43q38 0 38 -51v-84q0 -51 -38 -51t-38 42q0 1 0.5 4.5t0.5 5.5h-39v-156h143v58q0 32 10 46.5t34 14.5q25 0 34.5 -14.5t9.5 -46.5v-118q0 -26 -8 -35t-34 -9h-229z" />
    <glyph glyph-name="ordmasculine" unicode="&#xba;" 
d="M514 442q0 -82 -59 -135.5t-155 -53.5q-95 0 -154 53.5t-59 135.5t59 136t154 54t154.5 -54t59.5 -136zM300 335q46 0 75.5 30t29.5 77q0 46 -29.5 76.5t-75.5 30.5t-75 -30.5t-29 -76.5q0 -47 29 -77t75 -30zM130 206h340q19 0 19 -15v-29q0 -7 -5.5 -12.5t-13.5 -5.5
h-340q-17 0 -17 18v29q0 15 17 15z" />
    <glyph glyph-name="ae" unicode="&#xe6;" 
d="M376 273h111q-8 95 -56 95q-47 0 -55 -95zM263 125v72h-76q-68 0 -68 -54q0 -27 14.5 -42.5t41.5 -15.5q46 0 88 40zM317 403q45 60 121 60q72 0 117 -61t45 -157q0 -29 -10 -38.5t-37 -9.5h-177q1 -105 76 -105q25 0 46.5 12.5t37 25.5t25.5 13q14 0 26.5 -14.5
t12.5 -30.5q0 -38 -47 -74t-110 -36q-90 0 -135 74q-30 -35 -75.5 -54.5t-93.5 -19.5q-62 0 -98.5 38t-36.5 105q0 142 175 142h84v6q0 41 -19.5 65t-52.5 24q-21 0 -59 -17.5t-57 -17.5t-30 12t-11 31q0 37 43 62t110 25q81 0 130 -60z" />
    <glyph glyph-name="dotlessi" unicode="&#x131;" 
d="M341 451q28 0 28 -21v-323h105q32 0 47 -11.5t15 -41.5t-15 -42t-47 -12h-330q-32 0 -47 12t-15 42t15 41.5t47 11.5h105v237h-55q-32 0 -46.5 12t-14.5 42t14.5 41.5t46.5 11.5h147z" />
    <glyph glyph-name="lslash" unicode="&#x142;" 
d="M240 258l-95 -63q-13 -9 -23 -9q-12 0 -22.5 12t-10.5 24q0 13 21 27l130 87v195h-54q-32 0 -47 12t-15 42t15 42t47 12h146q29 0 29 -21v-216l95 62q14 10 23 10q12 0 22 -12t10 -24q0 -14 -20 -27l-130 -87v-217h105q32 0 46.5 -11.5t14.5 -41.5t-14.5 -42t-46.5 -12
h-331q-32 0 -46.5 12t-14.5 42t14.5 41.5t46.5 11.5h105v151z" />
    <glyph glyph-name="oslash" unicode="&#xf8;" 
d="M195 145l145 209q-20 6 -34 6q-61 0 -98.5 -37.5t-37.5 -96.5q0 -44 25 -81zM400 316l-149 -215q21 -9 49 -9q59 0 95 38t36 96q0 52 -31 90zM184 10l-49 -72q-9 -12 -24 -12q-14 0 -25.5 11.5t-11.5 29.5q0 3 3 8l46 68q-89 76 -89 182q0 103 73.5 170t193.5 67
q60 0 104 -17l39 59q9 12 23 12t25.5 -11.5t11.5 -29.5q0 -5 -3 -9l-33 -51q47 -31 73 -81.5t26 -108.5q0 -103 -73 -170t-193 -67q-67 0 -117 22z" />
    <glyph glyph-name="oe" unicode="&#x153;" 
d="M190 91q31 0 52 37t21 98t-20.5 97t-52.5 36t-52.5 -36t-20.5 -97t21 -98t52 -37zM376 273h111q-8 95 -56 95q-47 0 -55 -95zM308 62q-48 -74 -132 -74q-77 0 -125.5 65.5t-48.5 171.5t48.5 171.5t125.5 65.5q81 0 132 -73q46 73 130 73q72 0 117 -60.5t45 -156.5
q0 -29 -10 -38.5t-37 -9.5h-177q1 -106 76 -106q25 0 46.5 13t37 26t25.5 13q14 0 26.5 -14.5t12.5 -30.5q0 -38 -47 -74t-110 -36q-90 0 -135 74z" />
    <glyph glyph-name="germandbls" unicode="&#xdf;" 
d="M222 409v-388q0 -21 -28 -21h-120q-32 0 -47 12t-15 42t15 41.5t47 11.5h28v332q0 105 47 152.5t157 47.5q92 0 141.5 -38.5t49.5 -107.5q0 -87 -85 -116q68 -13 104.5 -61t36.5 -124q0 -97 -52.5 -150.5t-145.5 -53.5q-89 0 -89 58q0 46 55 46q3 0 9.5 -0.5t10.5 -0.5
q85 0 85 112q0 104 -83 121q-9 2 -24 4t-21.5 3.5t-14.5 6t-11 12t-3 19.5q0 20 10 28t37 13q28 5 41 18t13 39q0 74 -68 74q-50 0 -65 -30.5t-15 -101.5z" />
    <glyph glyph-name="Aacute" unicode="&#xc1;" 
d="M165 107h17q32 0 47 -11.5t15 -41.5t-15 -42t-47 -12h-126q-32 0 -47 12t-15 42q0 53 54 53h8l131 364h-40q-32 0 -46.5 12t-14.5 42q0 29 15 41.5t47 12.5h183q31 0 40.5 -9t20.5 -39l155 -424h8q54 0 54 -53q0 -30 -15 -42t-47 -12h-147q-32 0 -47 12t-15 42t15 41.5
t47 11.5h17l-20 57h-211zM220 265h142l-71 206zM171 663l232 136q4 2 8 2q16 0 23 -15l20 -42q2 -6 2 -8q0 -14 -13 -20l-256 -91z" />
    <glyph glyph-name="Acircumflex" unicode="&#xc2;" 
d="M165 107h17q32 0 47 -11.5t15 -41.5t-15 -42t-47 -12h-126q-32 0 -47 12t-15 42q0 53 54 53h8l131 364h-40q-32 0 -46.5 12t-14.5 42q0 29 15 41.5t47 12.5h183q31 0 40.5 -9t20.5 -39l155 -424h8q54 0 54 -53q0 -30 -15 -42t-47 -12h-147q-32 0 -47 12t-15 42t15 41.5
t47 11.5h17l-20 57h-211zM220 265h142l-71 206zM306 784l135 -107q6 -4 6 -13t-7 -16.5t-16 -7.5q-2 0 -8 2l-140 65l-140 -65q-6 -2 -8 -2q-9 0 -16 7.5t-7 16.5q0 8 6 13l135 107q12 9 30 9t30 -9z" />
    <glyph glyph-name="Adieresis" unicode="&#xc4;" 
d="M165 107h17q32 0 47 -11.5t15 -41.5t-15 -42t-47 -12h-126q-32 0 -47 12t-15 42q0 53 54 53h8l131 364h-40q-32 0 -46.5 12t-14.5 42q0 29 15 41.5t47 12.5h183q31 0 40.5 -9t20.5 -39l155 -424h8q54 0 54 -53q0 -30 -15 -42t-47 -12h-147q-32 0 -47 12t-15 42t15 41.5
t47 11.5h17l-20 57h-211zM220 265h142l-71 206zM93 714q0 24 19 43t44 19t42.5 -18.5t17.5 -43.5q0 -28 -17 -45t-43 -17t-44.5 18t-18.5 44zM335 714q0 24 19 43t44 19t43 -18.5t18 -43.5q0 -28 -17 -45t-44 -17q-26 0 -44.5 18t-18.5 44z" />
    <glyph glyph-name="Agrave" unicode="&#xc0;" 
d="M165 107h17q32 0 47 -11.5t15 -41.5t-15 -42t-47 -12h-126q-32 0 -47 12t-15 42q0 53 54 53h8l131 364h-40q-32 0 -46.5 12t-14.5 42q0 29 15 41.5t47 12.5h183q31 0 40.5 -9t20.5 -39l155 -424h8q54 0 54 -53q0 -30 -15 -42t-47 -12h-147q-32 0 -47 12t-15 42t15 41.5
t47 11.5h17l-20 57h-211zM220 265h142l-71 206zM381 663l-17 -38l-255 91q-13 6 -13 20q0 2 2 8l20 42q7 15 23 15q3 0 7 -2z" />
    <glyph glyph-name="Aring" unicode="&#xc5;" 
d="M220 265h142l-71 206zM165 107h17q32 0 47 -11.5t15 -41.5t-15 -42t-47 -12h-126q-32 0 -47 12t-15 42q0 53 54 53h8l131 364h-40q-32 0 -46.5 12t-14.5 42q0 29 15 41.5t47 12.5h183q31 0 40.5 -9t20.5 -39l155 -424h8q54 0 54 -53q0 -30 -15 -42t-47 -12h-147
q-32 0 -47 12t-15 42t15 41.5t47 11.5h17l-20 57h-211zM150 743q0 55 38.5 93.5t93.5 38.5t93.5 -38.5t38.5 -93.5t-38.5 -93.5t-93.5 -38.5t-93.5 38.5t-38.5 93.5zM219 744q0 -26 18.5 -44.5t44.5 -18.5t44 18.5t18 44.5t-18 44t-44 18t-44.5 -18t-18.5 -44z" />
    <glyph glyph-name="Atilde" unicode="&#xc3;" 
d="M165 107h17q32 0 47 -11.5t15 -41.5t-15 -42t-47 -12h-126q-32 0 -47 12t-15 42q0 53 54 53h8l131 364h-40q-32 0 -46.5 12t-14.5 42q0 29 15 41.5t47 12.5h183q31 0 40.5 -9t20.5 -39l155 -424h8q54 0 54 -53q0 -30 -15 -42t-47 -12h-147q-32 0 -47 12t-15 42t15 41.5
t47 11.5h17l-20 57h-211zM220 265h142l-71 206zM325 745q30 -7 41 -7q22 0 41 17t27 17q20 0 20 -21q0 -27 -33 -54.5t-80 -27.5q-25 0 -59 8l-55 15q-22 6 -42 6q-22 0 -40.5 -16.5t-27.5 -16.5q-19 0 -19 20q0 27 32.5 54.5t80.5 27.5q30 0 58 -7z" />
    <glyph glyph-name="Ccedilla" unicode="&#xc7;" 
d="M454 563q17 31 46 31q24 0 34 -12t10 -43l1 -127q0 -32 -10.5 -44.5t-40.5 -12.5q-22 0 -32.5 10.5t-17.5 35.5q-13 45 -39.5 66t-78.5 21q-75 0 -115 -50.5t-40 -147.5q0 -96 40.5 -147t115.5 -51q40 0 78 17t67 34t46 17q19 0 32 -16t13 -40q0 -41 -74.5 -80.5
t-171.5 -39.5q-128 0 -207 85t-79 221q0 130 79.5 217.5t203.5 87.5q67 0 140 -32zM323 0v-65q34 4 35 4q40 0 65 -23.5t25 -60.5q0 -42 -31.5 -65t-88.5 -23q-50 0 -93.5 17t-43.5 38q0 18 22 18q6 0 38 -12.5t59 -12.5q45 0 45 41q0 37 -49 37q-5 0 -25 -3v110h42z" />
    <glyph glyph-name="Eacute" unicode="&#xc9;" 
d="M495 579q30 0 40.5 -9.5t10.5 -35.5v-109q0 -32 -11.5 -47t-40.5 -15t-41 15t-12 47v51h-227v-125h85v6q0 55 50 55q51 0 51 -61v-101q0 -32 -11.5 -46.5t-38.5 -14.5q-50 0 -50 52v9h-86v-146h227v58q0 32 12 46.5t41 14.5t40.5 -14.5t11.5 -46.5v-118q0 -26 -10 -35
t-41 -9h-400q-31 0 -45.5 12.5t-14.5 41.5q0 53 52 53h8v364h-7q-53 0 -53 54t60 54h400zM210 663l232 136q4 2 8 2q16 0 23 -15l20 -42q2 -6 2 -8q0 -14 -13 -20l-256 -91z" />
    <glyph glyph-name="Ecircumflex" unicode="&#xca;" 
d="M495 579q30 0 40.5 -9.5t10.5 -35.5v-109q0 -32 -11.5 -47t-40.5 -15t-41 15t-12 47v51h-227v-125h85v6q0 55 50 55q51 0 51 -61v-101q0 -32 -11.5 -46.5t-38.5 -14.5q-50 0 -50 52v9h-86v-146h227v58q0 32 12 46.5t41 14.5t40.5 -14.5t11.5 -46.5v-118q0 -26 -10 -35
t-41 -9h-400q-31 0 -45.5 12.5t-14.5 41.5q0 53 52 53h8v364h-7q-53 0 -53 54t60 54h400zM345 784l135 -107q6 -4 6 -13t-7 -16.5t-16 -7.5q-2 0 -8 2l-140 65l-140 -65q-6 -2 -8 -2q-9 0 -16 7.5t-7 16.5q0 8 6 13l135 107q12 9 30 9t30 -9z" />
    <glyph glyph-name="Edieresis" unicode="&#xcb;" 
d="M495 579q30 0 40.5 -9.5t10.5 -35.5v-109q0 -32 -11.5 -47t-40.5 -15t-41 15t-12 47v51h-227v-125h85v6q0 55 50 55q51 0 51 -61v-101q0 -32 -11.5 -46.5t-38.5 -14.5q-50 0 -50 52v9h-86v-146h227v58q0 32 12 46.5t41 14.5t40.5 -14.5t11.5 -46.5v-118q0 -26 -10 -35
t-41 -9h-400q-31 0 -45.5 12.5t-14.5 41.5q0 53 52 53h8v364h-7q-53 0 -53 54t60 54h400zM132 714q0 24 19 43t44 19t42.5 -18.5t17.5 -43.5q0 -28 -17 -45t-43 -17t-44.5 18t-18.5 44zM374 714q0 24 19 43t44 19t43 -18.5t18 -43.5q0 -28 -17 -45t-44 -17q-26 0 -44.5 18
t-18.5 44z" />
    <glyph glyph-name="Egrave" unicode="&#xc8;" 
d="M495 579q30 0 40.5 -9.5t10.5 -35.5v-109q0 -32 -11.5 -47t-40.5 -15t-41 15t-12 47v51h-227v-125h85v6q0 55 50 55q51 0 51 -61v-101q0 -32 -11.5 -46.5t-38.5 -14.5q-50 0 -50 52v9h-86v-146h227v58q0 32 12 46.5t41 14.5t40.5 -14.5t11.5 -46.5v-118q0 -26 -10 -35
t-41 -9h-400q-31 0 -45.5 12.5t-14.5 41.5q0 53 52 53h8v364h-7q-53 0 -53 54t60 54h400zM420 663l-17 -38l-255 91q-13 6 -13 20q0 2 2 8l20 42q7 15 23 15q3 0 7 -2z" />
    <glyph glyph-name="Iacute" unicode="&#xcd;" 
d="M446 578q32 0 47 -11.5t15 -41.5t-15 -42t-47 -12h-82v-364h82q32 0 46.5 -11.5t14.5 -41.5q0 -54 -61 -54h-290q-32 0 -47 12t-15 42t15 41.5t47 11.5h82v364h-82q-32 0 -47 12t-15 42t15 41.5t47 11.5h290zM196 663l232 136q4 2 8 2q16 0 23 -15l20 -42q2 -6 2 -8
q0 -14 -13 -20l-256 -91z" />
    <glyph glyph-name="Icircumflex" unicode="&#xce;" 
d="M446 578q32 0 47 -11.5t15 -41.5t-15 -42t-47 -12h-82v-364h82q32 0 46.5 -11.5t14.5 -41.5q0 -54 -61 -54h-290q-32 0 -47 12t-15 42t15 41.5t47 11.5h82v364h-82q-32 0 -47 12t-15 42t15 41.5t47 11.5h290zM331 784l135 -107q6 -4 6 -13t-7 -16.5t-16 -7.5q-2 0 -8 2
l-140 65l-140 -65q-6 -2 -8 -2q-9 0 -16 7.5t-7 16.5q0 8 6 13l135 107q12 9 30 9t30 -9z" />
    <glyph glyph-name="Idieresis" unicode="&#xcf;" 
d="M446 578q32 0 47 -11.5t15 -41.5t-15 -42t-47 -12h-82v-364h82q32 0 46.5 -11.5t14.5 -41.5q0 -54 -61 -54h-290q-32 0 -47 12t-15 42t15 41.5t47 11.5h82v364h-82q-32 0 -47 12t-15 42t15 41.5t47 11.5h290zM118 714q0 24 19 43t44 19t42.5 -18.5t17.5 -43.5
q0 -28 -17 -45t-43 -17t-44.5 18t-18.5 44zM360 714q0 24 19 43t44 19t43 -18.5t18 -43.5q0 -28 -17 -45t-44 -17q-26 0 -44.5 18t-18.5 44z" />
    <glyph glyph-name="Igrave" unicode="&#xcc;" 
d="M446 578q32 0 47 -11.5t15 -41.5t-15 -42t-47 -12h-82v-364h82q32 0 46.5 -11.5t14.5 -41.5q0 -54 -61 -54h-290q-32 0 -47 12t-15 42t15 41.5t47 11.5h82v364h-82q-32 0 -47 12t-15 42t15 41.5t47 11.5h290zM406 663l-17 -38l-255 91q-13 6 -13 20q0 2 2 8l20 42
q7 15 23 15q3 0 7 -2z" />
    <glyph glyph-name="Ntilde" unicode="&#xd1;" 
d="M414 202v269h-27q-31 0 -45.5 12.5t-14.5 41.5t14.5 41.5t45.5 12.5h139q31 0 45.5 -12.5t14.5 -41.5q0 -54 -53 -54h-7v-443q0 -22 -4.5 -28.5t-22.5 -6.5h-49q-20 0 -30.5 4t-18.5 18l-203 357v-265h27q31 0 45.5 -12t14.5 -41t-14.5 -41.5t-45.5 -12.5h-139
q-31 0 -45.5 12.5t-14.5 41.5q0 53 52 53h8v364h-7q-53 0 -53 54t60 54h80h4q23 0 33.5 -6t24.5 -32zM363 745q30 -7 41 -7q22 0 41 17t27 17q20 0 20 -21q0 -27 -33 -54.5t-80 -27.5q-25 0 -59 8l-55 15q-22 6 -42 6q-22 0 -40.5 -16.5t-27.5 -16.5q-19 0 -19 20
q0 27 32.5 54.5t80.5 27.5q30 0 58 -7z" />
    <glyph glyph-name="Oacute" unicode="&#xd3;" 
d="M301 97q62 0 98.5 50.5t36.5 142.5t-36.5 142t-98.5 50t-98.5 -50t-36.5 -142q0 -91 37 -142t98 -51zM576 290q0 -134 -77.5 -219.5t-197.5 -85.5q-119 0 -197.5 86t-78.5 219q0 134 77.5 219.5t198.5 85.5q120 0 197.5 -86t77.5 -219zM196 663l232 136q4 2 8 2
q16 0 23 -15l20 -42q2 -6 2 -8q0 -14 -13 -20l-256 -91z" />
    <glyph glyph-name="Ocircumflex" unicode="&#xd4;" 
d="M301 97q62 0 98.5 50.5t36.5 142.5t-36.5 142t-98.5 50t-98.5 -50t-36.5 -142q0 -91 37 -142t98 -51zM576 290q0 -134 -77.5 -219.5t-197.5 -85.5q-119 0 -197.5 86t-78.5 219q0 134 77.5 219.5t198.5 85.5q120 0 197.5 -86t77.5 -219zM331 784l135 -107q6 -4 6 -13
t-7 -16.5t-16 -7.5q-2 0 -8 2l-140 65l-140 -65q-6 -2 -8 -2q-9 0 -16 7.5t-7 16.5q0 8 6 13l135 107q12 9 30 9t30 -9z" />
    <glyph glyph-name="Odieresis" unicode="&#xd6;" 
d="M301 97q62 0 98.5 50.5t36.5 142.5t-36.5 142t-98.5 50t-98.5 -50t-36.5 -142q0 -91 37 -142t98 -51zM576 290q0 -134 -77.5 -219.5t-197.5 -85.5q-119 0 -197.5 86t-78.5 219q0 134 77.5 219.5t198.5 85.5q120 0 197.5 -86t77.5 -219zM118 714q0 24 19 43t44 19
t42.5 -18.5t17.5 -43.5q0 -28 -17 -45t-43 -17t-44.5 18t-18.5 44zM360 714q0 24 19 43t44 19t43 -18.5t18 -43.5q0 -28 -17 -45t-44 -17q-26 0 -44.5 18t-18.5 44z" />
    <glyph glyph-name="Ograve" unicode="&#xd2;" 
d="M301 97q62 0 98.5 50.5t36.5 142.5t-36.5 142t-98.5 50t-98.5 -50t-36.5 -142q0 -91 37 -142t98 -51zM576 290q0 -134 -77.5 -219.5t-197.5 -85.5q-119 0 -197.5 86t-78.5 219q0 134 77.5 219.5t198.5 85.5q120 0 197.5 -86t77.5 -219zM406 663l-17 -38l-255 91
q-13 6 -13 20q0 2 2 8l20 42q7 15 23 15q3 0 7 -2z" />
    <glyph glyph-name="Otilde" unicode="&#xd5;" 
d="M301 97q62 0 98.5 50.5t36.5 142.5t-36.5 142t-98.5 50t-98.5 -50t-36.5 -142q0 -91 37 -142t98 -51zM576 290q0 -134 -77.5 -219.5t-197.5 -85.5q-119 0 -197.5 86t-78.5 219q0 134 77.5 219.5t198.5 85.5q120 0 197.5 -86t77.5 -219zM350 745q30 -7 41 -7q22 0 41 17
t27 17q20 0 20 -21q0 -27 -33 -54.5t-80 -27.5q-25 0 -59 8l-55 15q-22 6 -42 6q-22 0 -40.5 -16.5t-27.5 -16.5q-19 0 -19 20q0 27 32.5 54.5t80.5 27.5q30 0 58 -7z" />
    <glyph glyph-name="Scaron" unicode="&#x160;" 
d="M161 9q-14 -24 -46 -24q-30 0 -42.5 11.5t-13.5 41.5l-3 115v5q0 32 12 45t43 13q11 0 19 -2.5t14 -10t9 -12.5t9.5 -18.5t9.5 -19.5q38 -75 136 -75q45 0 70 18.5t25 52.5q0 13 -3 23t-11 17.5t-16 12.5t-25 10.5t-29.5 8.5t-38 9t-43.5 11q-88 23 -128 58.5t-40 106.5
q0 83 62.5 136t162.5 53q65 0 128 -27q8 17 18 22t32 5q24 0 32 -10.5t9 -41.5l2 -94v-5q0 -28 -11 -40t-39 -12q-10 0 -17.5 2t-12 4t-9 8t-6.5 9t-6 11.5t-5 11.5q-31 61 -102 61q-45 0 -71.5 -20.5t-26.5 -51.5t27.5 -44t98.5 -27q20 -4 31 -6q91 -19 134.5 -61.5
t43.5 -116.5q0 -90 -61 -138.5t-175 -48.5q-83 0 -147 24zM271 652l-135 106q-6 4 -6 13t7 16.5t16 7.5q2 0 8 -2l140 -64l140 64q6 2 8 2q9 0 16 -7.5t7 -16.5t-6 -13l-135 -106q-13 -10 -30 -10t-30 10z" />
    <glyph glyph-name="Uacute" unicode="&#xda;" 
d="M74 471h-8q-54 0 -54 54q0 29 15 41.5t47 12.5h126q32 0 47 -12.5t15 -41.5q0 -54 -54 -54h-8v-255q0 -66 23 -95.5t80 -29.5q56 0 79.5 29.5t23.5 95.5v255h-8q-53 0 -53 54q0 29 14.5 41.5t46.5 12.5h122q32 0 46.5 -12.5t14.5 -41.5q0 -54 -53 -54h-8v-253
q0 -121 -52 -177t-172 -56q-124 0 -177 55t-53 178v253zM196 663l232 136q4 2 8 2q16 0 23 -15l20 -42q2 -6 2 -8q0 -14 -13 -20l-256 -91z" />
    <glyph glyph-name="Ucircumflex" unicode="&#xdb;" 
d="M74 471h-8q-54 0 -54 54q0 29 15 41.5t47 12.5h126q32 0 47 -12.5t15 -41.5q0 -54 -54 -54h-8v-255q0 -66 23 -95.5t80 -29.5q56 0 79.5 29.5t23.5 95.5v255h-8q-53 0 -53 54q0 29 14.5 41.5t46.5 12.5h122q32 0 46.5 -12.5t14.5 -41.5q0 -54 -53 -54h-8v-253
q0 -121 -52 -177t-172 -56q-124 0 -177 55t-53 178v253zM331 784l135 -107q6 -4 6 -13t-7 -16.5t-16 -7.5q-2 0 -8 2l-140 65l-140 -65q-6 -2 -8 -2q-9 0 -16 7.5t-7 16.5q0 8 6 13l135 107q12 9 30 9t30 -9z" />
    <glyph glyph-name="Udieresis" unicode="&#xdc;" 
d="M74 471h-8q-54 0 -54 54q0 29 15 41.5t47 12.5h126q32 0 47 -12.5t15 -41.5q0 -54 -54 -54h-8v-255q0 -66 23 -95.5t80 -29.5q56 0 79.5 29.5t23.5 95.5v255h-8q-53 0 -53 54q0 29 14.5 41.5t46.5 12.5h122q32 0 46.5 -12.5t14.5 -41.5q0 -54 -53 -54h-8v-253
q0 -121 -52 -177t-172 -56q-124 0 -177 55t-53 178v253zM118 714q0 24 19 43t44 19t42.5 -18.5t17.5 -43.5q0 -28 -17 -45t-43 -17t-44.5 18t-18.5 44zM360 714q0 24 19 43t44 19t43 -18.5t18 -43.5q0 -28 -17 -45t-44 -17q-26 0 -44.5 18t-18.5 44z" />
    <glyph glyph-name="Ugrave" unicode="&#xd9;" 
d="M74 471h-8q-54 0 -54 54q0 29 15 41.5t47 12.5h126q32 0 47 -12.5t15 -41.5q0 -54 -54 -54h-8v-255q0 -66 23 -95.5t80 -29.5q56 0 79.5 29.5t23.5 95.5v255h-8q-53 0 -53 54q0 29 14.5 41.5t46.5 12.5h122q32 0 46.5 -12.5t14.5 -41.5q0 -54 -53 -54h-8v-253
q0 -121 -52 -177t-172 -56q-124 0 -177 55t-53 178v253zM406 663l-17 -38l-255 91q-13 6 -13 20q0 2 2 8l20 42q7 15 23 15q3 0 7 -2z" />
    <glyph glyph-name="Ydieresis" unicode="&#x178;" 
d="M99 471h-8q-52 0 -52 54q0 30 14.5 42t45.5 12h128q28 0 41 -12t13 -42q0 -54 -47 -54h-5l76 -159l73 159h-2q-45 0 -45 54q0 30 12.5 42t40.5 12h111q32 0 46 -12t14 -42q0 -54 -52 -54h-8l-131 -244v-120h64q32 0 46.5 -11.5t14.5 -41.5q0 -54 -62 -54h-253
q-32 0 -46.5 12t-14.5 42t14.5 41.5t46.5 11.5h64v106zM118 714q0 24 19 43t44 19t42.5 -18.5t17.5 -43.5q0 -28 -17 -45t-43 -17t-44.5 18t-18.5 44zM360 714q0 24 19 43t44 19t43 -18.5t18 -43.5q0 -28 -17 -45t-44 -17q-26 0 -44.5 18t-18.5 44z" />
    <glyph glyph-name="Zcaron" unicode="&#x17d;" 
d="M194 472l-3 -69q-2 -34 -14 -48t-42 -14q-52 0 -52 56v6l5 116q2 40 10.5 50t47.5 10h311q26 0 40 -13t14 -34q0 -26 -13 -44l-261 -380h164v79q0 62 56 62q52 0 52 -56v-6l-6 -126q-1 -22 -2 -30.5t-6.5 -17.5t-16.5 -11t-32 -2h-323q-25 0 -39.5 13t-14.5 34
q0 23 13 43l263 382h-151zM271 652l-135 106q-6 4 -6 13t7 16.5t16 7.5q2 0 8 -2l140 -64l140 64q6 2 8 2q9 0 16 -7.5t7 -16.5t-6 -13l-135 -106q-13 -10 -30 -10t-30 10z" />
    <glyph glyph-name="aacute" unicode="&#xe1;" 
d="M500 288v-181h8q54 0 54 -54q0 -29 -15 -41t-47 -12h-46q-24 0 -36 9t-20 34q-82 -55 -178 -55q-79 0 -123.5 39t-44.5 107q0 73 58 113.5t163 40.5q53 0 109 -10v9q0 90 -84 90q-33 0 -83 -24t-71 -24q-26 0 -39.5 13.5t-13.5 35.5q0 39 57.5 62.5t157.5 23.5
q107 0 150.5 -41.5t43.5 -134.5zM382 126v75q-49 11 -82 11q-116 0 -116 -72q0 -25 20 -39.5t56 -14.5q66 0 122 40zM185 531l232 136q4 2 8 2q16 0 23 -15l20 -42q2 -6 2 -8q0 -14 -13 -20l-256 -91z" />
    <glyph glyph-name="acircumflex" unicode="&#xe2;" 
d="M500 288v-181h8q54 0 54 -54q0 -29 -15 -41t-47 -12h-46q-24 0 -36 9t-20 34q-82 -55 -178 -55q-79 0 -123.5 39t-44.5 107q0 73 58 113.5t163 40.5q53 0 109 -10v9q0 90 -84 90q-33 0 -83 -24t-71 -24q-26 0 -39.5 13.5t-13.5 35.5q0 39 57.5 62.5t157.5 23.5
q107 0 150.5 -41.5t43.5 -134.5zM382 126v75q-49 11 -82 11q-116 0 -116 -72q0 -25 20 -39.5t56 -14.5q66 0 122 40zM320 652l135 -107q6 -4 6 -13t-7 -16.5t-16 -7.5q-2 0 -8 2l-140 65l-140 -65q-6 -2 -8 -2q-9 0 -16 7.5t-7 16.5q0 8 6 13l135 107q12 9 30 9t30 -9z" />
    <glyph glyph-name="adieresis" unicode="&#xe4;" 
d="M500 288v-181h8q54 0 54 -54q0 -29 -15 -41t-47 -12h-46q-24 0 -36 9t-20 34q-82 -55 -178 -55q-79 0 -123.5 39t-44.5 107q0 73 58 113.5t163 40.5q53 0 109 -10v9q0 90 -84 90q-33 0 -83 -24t-71 -24q-26 0 -39.5 13.5t-13.5 35.5q0 39 57.5 62.5t157.5 23.5
q107 0 150.5 -41.5t43.5 -134.5zM382 126v75q-49 11 -82 11q-116 0 -116 -72q0 -25 20 -39.5t56 -14.5q66 0 122 40zM107 582q0 24 19 43t44 19t42.5 -18.5t17.5 -43.5q0 -28 -17 -45t-43 -17t-44.5 18t-18.5 44zM349 582q0 24 19 43t44 19t43 -18.5t18 -43.5q0 -28 -17 -45
t-44 -17q-26 0 -44.5 18t-18.5 44z" />
    <glyph glyph-name="agrave" unicode="&#xe0;" 
d="M500 288v-181h8q54 0 54 -54q0 -29 -15 -41t-47 -12h-46q-24 0 -36 9t-20 34q-82 -55 -178 -55q-79 0 -123.5 39t-44.5 107q0 73 58 113.5t163 40.5q53 0 109 -10v9q0 90 -84 90q-33 0 -83 -24t-71 -24q-26 0 -39.5 13.5t-13.5 35.5q0 39 57.5 62.5t157.5 23.5
q107 0 150.5 -41.5t43.5 -134.5zM382 126v75q-49 11 -82 11q-116 0 -116 -72q0 -25 20 -39.5t56 -14.5q66 0 122 40zM395 531l-17 -38l-255 91q-13 6 -13 20q0 2 2 8l20 42q7 15 23 15q3 0 7 -2z" />
    <glyph glyph-name="aring" unicode="&#xe5;" 
d="M500 288v-181h8q54 0 54 -54q0 -29 -15 -41t-47 -12h-46q-24 0 -36 9t-20 34q-82 -55 -178 -55q-79 0 -123.5 39t-44.5 107q0 73 58 113.5t163 40.5q53 0 109 -10v9q0 90 -84 90q-33 0 -83 -24t-71 -24q-26 0 -39.5 13.5t-13.5 35.5q0 39 57.5 62.5t157.5 23.5
q107 0 150.5 -41.5t43.5 -134.5zM382 126v75q-49 11 -82 11q-116 0 -116 -72q0 -25 20 -39.5t56 -14.5q66 0 122 40zM167 632q0 55 38.5 93.5t93.5 38.5t93.5 -38.5t38.5 -93.5t-38.5 -93.5t-93.5 -38.5t-93.5 38.5t-38.5 93.5zM237 633q0 -26 18 -44.5t44 -18.5t44 18.5
t18 44.5q0 25 -18.5 43.5t-43.5 18.5q-26 0 -44 -18t-18 -44z" />
    <glyph glyph-name="atilde" unicode="&#xe3;" 
d="M500 288v-181h8q54 0 54 -54q0 -29 -15 -41t-47 -12h-46q-24 0 -36 9t-20 34q-82 -55 -178 -55q-79 0 -123.5 39t-44.5 107q0 73 58 113.5t163 40.5q53 0 109 -10v9q0 90 -84 90q-33 0 -83 -24t-71 -24q-26 0 -39.5 13.5t-13.5 35.5q0 39 57.5 62.5t157.5 23.5
q107 0 150.5 -41.5t43.5 -134.5zM382 126v75q-49 11 -82 11q-116 0 -116 -72q0 -25 20 -39.5t56 -14.5q66 0 122 40zM339 613q30 -7 41 -7q22 0 41 17t27 17q20 0 20 -21q0 -27 -33 -54.5t-80 -27.5q-25 0 -59 8l-55 15q-22 6 -42 6q-22 0 -40.5 -16.5t-27.5 -16.5
q-19 0 -19 20q0 27 32.5 54.5t80.5 27.5q30 0 58 -7z" />
    <glyph glyph-name="ccedilla" unicode="&#xe7;" 
d="M446 425q14 39 50 39q27 0 37.5 -17t10.5 -55v-80q0 -58 -49 -58q-32 0 -56 40q-38 65 -129 65q-57 0 -93.5 -38t-36.5 -95q0 -60 37.5 -97.5t101.5 -37.5q43 0 80.5 16t63 32t40.5 16q18 0 30.5 -14t12.5 -35q0 -45 -69 -81.5t-167 -36.5q-120 0 -193 67t-73 170
q0 101 73 169.5t185 68.5q76 0 144 -38zM312 0v-65q34 4 35 4q40 0 65 -23.5t25 -60.5q0 -42 -31.5 -65t-88.5 -23q-50 0 -93.5 17t-43.5 38q0 18 22 18q6 0 38 -12.5t59 -12.5q45 0 45 41q0 37 -49 37q-5 0 -25 -3v110h42z" />
    <glyph glyph-name="eacute" unicode="&#xe9;" 
d="M168 197q25 -108 146 -108q46 0 85 14.5t64.5 29.5t38.5 15q20 0 32 -13t12 -35q0 -44 -66.5 -78t-169.5 -34q-119 0 -192.5 67t-73.5 170t73 170t193 67q108 0 176 -63.5t68 -151.5q0 -31 -15.5 -40.5t-55.5 -9.5h-315zM168 273h263q-8 46 -42.5 70.5t-89.5 24.5
q-106 0 -131 -95zM206 531l232 136q4 2 8 2q16 0 23 -15l20 -42q2 -6 2 -8q0 -14 -13 -20l-256 -91z" />
    <glyph glyph-name="ecircumflex" unicode="&#xea;" 
d="M168 197q25 -108 146 -108q46 0 85 14.5t64.5 29.5t38.5 15q20 0 32 -13t12 -35q0 -44 -66.5 -78t-169.5 -34q-119 0 -192.5 67t-73.5 170t73 170t193 67q108 0 176 -63.5t68 -151.5q0 -31 -15.5 -40.5t-55.5 -9.5h-315zM168 273h263q-8 46 -42.5 70.5t-89.5 24.5
q-106 0 -131 -95zM341 652l135 -107q6 -4 6 -13t-7 -16.5t-16 -7.5q-2 0 -8 2l-140 65l-140 -65q-6 -2 -8 -2q-9 0 -16 7.5t-7 16.5q0 8 6 13l135 107q12 9 30 9t30 -9z" />
    <glyph glyph-name="edieresis" unicode="&#xeb;" 
d="M168 197q25 -108 146 -108q46 0 85 14.5t64.5 29.5t38.5 15q20 0 32 -13t12 -35q0 -44 -66.5 -78t-169.5 -34q-119 0 -192.5 67t-73.5 170t73 170t193 67q108 0 176 -63.5t68 -151.5q0 -31 -15.5 -40.5t-55.5 -9.5h-315zM168 273h263q-8 46 -42.5 70.5t-89.5 24.5
q-106 0 -131 -95zM128 582q0 24 19 43t44 19t42.5 -18.5t17.5 -43.5q0 -28 -17 -45t-43 -17t-44.5 18t-18.5 44zM370 582q0 24 19 43t44 19t43 -18.5t18 -43.5q0 -28 -17 -45t-44 -17q-26 0 -44.5 18t-18.5 44z" />
    <glyph glyph-name="egrave" unicode="&#xe8;" 
d="M168 197q25 -108 146 -108q46 0 85 14.5t64.5 29.5t38.5 15q20 0 32 -13t12 -35q0 -44 -66.5 -78t-169.5 -34q-119 0 -192.5 67t-73.5 170t73 170t193 67q108 0 176 -63.5t68 -151.5q0 -31 -15.5 -40.5t-55.5 -9.5h-315zM168 273h263q-8 46 -42.5 70.5t-89.5 24.5
q-106 0 -131 -95zM416 531l-17 -38l-255 91q-13 6 -13 20q0 2 2 8l20 42q7 15 23 15q3 0 7 -2z" />
    <glyph glyph-name="iacute" unicode="&#xed;" 
d="M341 451q28 0 28 -21v-323h105q32 0 47 -11.5t15 -41.5t-15 -42t-47 -12h-330q-32 0 -47 12t-15 42t15 41.5t47 11.5h105v237h-55q-32 0 -46.5 12t-14.5 42t14.5 41.5t46.5 11.5h147zM196 531l232 136q4 2 8 2q16 0 23 -15l20 -42q2 -6 2 -8q0 -14 -13 -20l-256 -91z" />
    <glyph glyph-name="icircumflex" unicode="&#xee;" 
d="M341 451q28 0 28 -21v-323h105q32 0 47 -11.5t15 -41.5t-15 -42t-47 -12h-330q-32 0 -47 12t-15 42t15 41.5t47 11.5h105v237h-55q-32 0 -46.5 12t-14.5 42t14.5 41.5t46.5 11.5h147zM331 652l135 -107q6 -4 6 -13t-7 -16.5t-16 -7.5q-2 0 -8 2l-140 65l-140 -65
q-6 -2 -8 -2q-9 0 -16 7.5t-7 16.5q0 8 6 13l135 107q12 9 30 9t30 -9z" />
    <glyph glyph-name="idieresis" unicode="&#xef;" 
d="M341 451q28 0 28 -21v-323h105q32 0 47 -11.5t15 -41.5t-15 -42t-47 -12h-330q-32 0 -47 12t-15 42t15 41.5t47 11.5h105v237h-55q-32 0 -46.5 12t-14.5 42t14.5 41.5t46.5 11.5h147zM118 582q0 24 19 43t44 19t42.5 -18.5t17.5 -43.5q0 -28 -17 -45t-43 -17t-44.5 18
t-18.5 44zM360 582q0 24 19 43t44 19t43 -18.5t18 -43.5q0 -28 -17 -45t-44 -17q-26 0 -44.5 18t-18.5 44z" />
    <glyph glyph-name="igrave" unicode="&#xec;" 
d="M341 451q28 0 28 -21v-323h105q32 0 47 -11.5t15 -41.5t-15 -42t-47 -12h-330q-32 0 -47 12t-15 42t15 41.5t47 11.5h105v237h-55q-32 0 -46.5 12t-14.5 42t14.5 41.5t46.5 11.5h147zM406 531l-17 -38l-255 91q-13 6 -13 20q0 2 2 8l20 42q7 15 23 15q3 0 7 -2z" />
    <glyph glyph-name="ntilde" unicode="&#xf1;" 
d="M506 108h6q55 0 55 -54q0 -29 -14.5 -41.5t-46.5 -12.5h-120q-32 0 -47 12.5t-15 41.5q0 54 56 54h6v141q0 56 -15.5 82t-55.5 26t-66 -29t-26 -79v-141h6q55 0 55 -54q0 -29 -14.5 -41.5t-46.5 -12.5h-121q-32 0 -46.5 12.5t-14.5 41.5q0 54 55 54h6v236h-8
q-53 0 -53 53q0 30 14.5 42t46.5 12h83q28 0 28 -21v-38q47 71 138 71q155 0 155 -192v-163zM350 613q30 -7 41 -7q22 0 41 17t27 17q20 0 20 -21q0 -27 -33 -54.5t-80 -27.5q-25 0 -59 8l-55 15q-22 6 -42 6q-22 0 -40.5 -16.5t-27.5 -16.5q-19 0 -19 20q0 27 32.5 54.5
t80.5 27.5q30 0 58 -7z" />
    <glyph glyph-name="oacute" unicode="&#xf3;" 
d="M567 225q0 -103 -73 -170t-193 -67t-193.5 67t-73.5 170t73.5 170t193.5 67t193 -67t73 -170zM301 91q57 0 93.5 38.5t36.5 96.5t-36 95.5t-94 37.5t-94.5 -37.5t-36.5 -95.5q0 -59 37 -97t94 -38zM196 531l232 136q4 2 8 2q16 0 23 -15l20 -42q2 -6 2 -8q0 -14 -13 -20
l-256 -91z" />
    <glyph glyph-name="ocircumflex" unicode="&#xf4;" 
d="M567 225q0 -103 -73 -170t-193 -67t-193.5 67t-73.5 170t73.5 170t193.5 67t193 -67t73 -170zM301 91q57 0 93.5 38.5t36.5 96.5t-36 95.5t-94 37.5t-94.5 -37.5t-36.5 -95.5q0 -59 37 -97t94 -38zM331 652l135 -107q6 -4 6 -13t-7 -16.5t-16 -7.5q-2 0 -8 2l-140 65
l-140 -65q-6 -2 -8 -2q-9 0 -16 7.5t-7 16.5q0 8 6 13l135 107q12 9 30 9t30 -9z" />
    <glyph glyph-name="odieresis" unicode="&#xf6;" 
d="M567 225q0 -103 -73 -170t-193 -67t-193.5 67t-73.5 170t73.5 170t193.5 67t193 -67t73 -170zM301 91q57 0 93.5 38.5t36.5 96.5t-36 95.5t-94 37.5t-94.5 -37.5t-36.5 -95.5q0 -59 37 -97t94 -38zM118 582q0 24 19 43t44 19t42.5 -18.5t17.5 -43.5q0 -28 -17 -45
t-43 -17t-44.5 18t-18.5 44zM360 582q0 24 19 43t44 19t43 -18.5t18 -43.5q0 -28 -17 -45t-44 -17q-26 0 -44.5 18t-18.5 44z" />
    <glyph glyph-name="ograve" unicode="&#xf2;" 
d="M567 225q0 -103 -73 -170t-193 -67t-193.5 67t-73.5 170t73.5 170t193.5 67t193 -67t73 -170zM301 91q57 0 93.5 38.5t36.5 96.5t-36 95.5t-94 37.5t-94.5 -37.5t-36.5 -95.5q0 -59 37 -97t94 -38zM406 531l-17 -38l-255 91q-13 6 -13 20q0 2 2 8l20 42q7 15 23 15
q3 0 7 -2z" />
    <glyph glyph-name="otilde" unicode="&#xf5;" 
d="M567 225q0 -103 -73 -170t-193 -67t-193.5 67t-73.5 170t73.5 170t193.5 67t193 -67t73 -170zM301 91q57 0 93.5 38.5t36.5 96.5t-36 95.5t-94 37.5t-94.5 -37.5t-36.5 -95.5q0 -59 37 -97t94 -38zM350 613q30 -7 41 -7q22 0 41 17t27 17q20 0 20 -21q0 -27 -33 -54.5
t-80 -27.5q-25 0 -59 8l-55 15q-22 6 -42 6q-22 0 -40.5 -16.5t-27.5 -16.5q-19 0 -19 20q0 27 32.5 54.5t80.5 27.5q30 0 58 -7z" />
    <glyph glyph-name="scaron" unicode="&#x161;" 
d="M172 6q-28 -20 -53 -20q-23 0 -31 12.5t-8 40.5v66q0 32 11 45.5t37 13.5q19 0 29 -7t19 -21.5t17 -21.5q49 -43 128 -43q37 0 57 14t20 35q0 28 -23 37.5t-94 18.5q-22 3 -35 5q-168 24 -168 138q0 69 49.5 106.5t142.5 37.5q65 0 134 -21q20 24 48 24q40 0 40 -50v-60
q0 -44 -42 -44q-19 0 -42.5 17.5t-54 35t-68.5 17.5q-39 0 -59.5 -12.5t-20.5 -34.5q0 -9 2 -15.5t8 -11t12 -7t19 -5t23 -4t29.5 -4t34.5 -4.5q102 -15 148 -45t46 -98q0 -72 -54 -112.5t-156 -40.5q-80 0 -145 18zM271 520l-135 106q-6 4 -6 13t7 16.5t16 7.5q2 0 8 -2
l140 -64l140 64q6 2 8 2q9 0 16 -7.5t7 -16.5t-6 -13l-135 -106q-13 -10 -30 -10t-30 10z" />
    <glyph glyph-name="uacute" unicode="&#xfa;" 
d="M498 107h8q53 0 53 -53q0 -30 -14.5 -42t-46.5 -12h-82q-29 0 -29 22v37q-46 -70 -137 -70q-156 0 -156 192v163h-8q-53 0 -53 54q0 30 15 41.5t47 11.5h92q27 0 27 -21v-227q0 -56 16 -82.5t56 -26.5t66 29.5t26 79.5v141h-8q-54 0 -54 54q0 30 15 41.5t47 11.5h92
q28 0 28 -21v-323zM166 531l232 136q4 2 8 2q16 0 23 -15l20 -42q2 -6 2 -8q0 -14 -13 -20l-256 -91z" />
    <glyph glyph-name="ucircumflex" unicode="&#xfb;" 
d="M498 107h8q53 0 53 -53q0 -30 -14.5 -42t-46.5 -12h-82q-29 0 -29 22v37q-46 -70 -137 -70q-156 0 -156 192v163h-8q-53 0 -53 54q0 30 15 41.5t47 11.5h92q27 0 27 -21v-227q0 -56 16 -82.5t56 -26.5t66 29.5t26 79.5v141h-8q-54 0 -54 54q0 30 15 41.5t47 11.5h92
q28 0 28 -21v-323zM301 652l135 -107q6 -4 6 -13t-7 -16.5t-16 -7.5q-2 0 -8 2l-140 65l-140 -65q-6 -2 -8 -2q-9 0 -16 7.5t-7 16.5q0 8 6 13l135 107q12 9 30 9t30 -9z" />
    <glyph glyph-name="udieresis" unicode="&#xfc;" 
d="M498 107h8q53 0 53 -53q0 -30 -14.5 -42t-46.5 -12h-82q-29 0 -29 22v37q-46 -70 -137 -70q-156 0 -156 192v163h-8q-53 0 -53 54q0 30 15 41.5t47 11.5h92q27 0 27 -21v-227q0 -56 16 -82.5t56 -26.5t66 29.5t26 79.5v141h-8q-54 0 -54 54q0 30 15 41.5t47 11.5h92
q28 0 28 -21v-323zM88 582q0 24 19 43t44 19t42.5 -18.5t17.5 -43.5q0 -28 -17 -45t-43 -17t-44.5 18t-18.5 44zM330 582q0 24 19 43t44 19t43 -18.5t18 -43.5q0 -28 -17 -45t-44 -17q-26 0 -44.5 18t-18.5 44z" />
    <glyph glyph-name="ugrave" unicode="&#xf9;" 
d="M498 107h8q53 0 53 -53q0 -30 -14.5 -42t-46.5 -12h-82q-29 0 -29 22v37q-46 -70 -137 -70q-156 0 -156 192v163h-8q-53 0 -53 54q0 30 15 41.5t47 11.5h92q27 0 27 -21v-227q0 -56 16 -82.5t56 -26.5t66 29.5t26 79.5v141h-8q-54 0 -54 54q0 30 15 41.5t47 11.5h92
q28 0 28 -21v-323zM376 531l-17 -38l-255 91q-13 6 -13 20q0 2 2 8l20 42q7 15 23 15q3 0 7 -2z" />
    <glyph glyph-name="ydieresis" unicode="&#xff;" 
d="M510 451q32 0 47 -11.5t15 -41.5q0 -54 -54 -54h-8l-201 -431h22q32 0 47 -12t15 -42t-15 -42t-47 -12h-214q-32 0 -47 12t-15 42t15 42t47 12h76l46 98l-148 333h-8q-54 0 -54 54q0 30 15 41.5t47 11.5h124q32 0 47 -11.5t15 -41.5q0 -54 -54 -54h-8l88 -208l92 208h-8
q-54 0 -54 54q0 30 15 41.5t47 11.5h115zM118 582q0 24 19 43t44 19t42.5 -18.5t17.5 -43.5q0 -28 -17 -45t-43 -17t-44.5 18t-18.5 44zM360 582q0 24 19 43t44 19t43 -18.5t18 -43.5q0 -28 -17 -45t-44 -17q-26 0 -44.5 18t-18.5 44z" />
    <glyph glyph-name="zcaron" unicode="&#x17e;" 
d="M240 98h159l3 34q2 33 12 47t36 14q29 0 40 -14.5t11 -46.5v-72q0 -40 -10.5 -50t-46.5 -10h-303q-59 0 -59 49q0 28 24 54l237 250h-150v-23q0 -62 -49 -62q-29 0 -39.5 14.5t-10.5 47.5v62q0 40 10 49.5t46 9.5h288q59 0 59 -49q0 -29 -25 -55zM271 520l-135 106
q-6 4 -6 13t7 16.5t16 7.5q2 0 8 -2l140 -64l140 64q6 2 8 2q9 0 16 -7.5t7 -16.5t-6 -13l-135 -106q-13 -10 -30 -10t-30 10z" />
    <glyph glyph-name="trademark" unicode="&#x2122;" 
d="M275 489v-3q0 -26 -25 -26q-15 0 -20.5 6t-6.5 23l-2 45h-34v-149h32q29 0 29 -28t-29 -28h-130q-29 0 -29 28t29 28h32v149h-34l-1 -45q-1 -29 -27 -29t-26 26v3l2 73q1 12 2 17t6 7.5t17 2.5h189q12 0 16.5 -2.5t5.5 -7t2 -17.5zM311 329q-29 0 -29 28t25 28l6 149
q-24 0 -24 28q0 12 6 19.5t13 7.5h51q20 0 29 -23l36 -105l35 105q8 23 30 23h41q29 0 29 -27q0 -13 -7 -20.5t-18 -7.5l7 -149h2q22 0 22 -28t-29 -28h-49q-33 0 -33 28t30 28h3l-3 126l-32 -99q-7 -21 -28 -21t-28 21l-32 99l-3 -126h4q25 0 25 -28t-29 -28h-50z" />
    <glyph glyph-name="copyright" unicode="&#xa9;" 
d="M1 332q0 120 88 210q87 89 212 89q122 0 211 -87q41 -41 64.5 -97.5t23.5 -114.5q0 -121 -89 -212q-87 -87 -211 -87q-121 0 -210 87t-89 212zM52 332q0 -103 74 -177q76 -74 174 -74q103 0 175 74q74 76 74 177q0 104 -74 178q-73 73 -174 73q-104 0 -176 -74
q-73 -75 -73 -177zM378 487q10 14 26 14q25 0 25 -32v-68q0 -18 -6 -25t-22 -7q-22 0 -29 26q-8 26 -22.5 37.5t-43.5 11.5q-41 0 -63.5 -29t-22.5 -83t22.5 -83t64.5 -29q28 0 63 19.5t44 19.5q11 0 18 -9.5t7 -22.5q0 -23 -41 -45.5t-96 -22.5q-71 0 -116 48t-45 125
q0 75 45 124t114 49q38 0 78 -18z" />
    <glyph glyph-name="logicalnot" unicode="&#xac;" 
d="M465 359h-378q-24 0 -38.5 13.5t-14.5 35.5t15 36t38 14h437q19 0 30.5 -9.5t11.5 -24.5v-214q0 -24 -14 -38.5t-38 -14.5q-49 0 -49 53v149z" />
    <glyph glyph-name="registered" unicode="&#xae;" 
d="M1 332q0 120 88 210q87 89 212 89q122 0 211 -87q41 -41 64.5 -97.5t23.5 -114.5q0 -121 -89 -212q-87 -87 -211 -87q-121 0 -210 87t-89 212zM52 332q0 -103 74 -177q76 -74 174 -74q103 0 175 74q74 76 74 177q0 104 -74 178q-73 73 -174 73q-104 0 -176 -74
q-73 -75 -73 -177zM367 326q4 -2 15 -18l44 -69h7q32 0 32 -29q0 -16 -7.5 -23t-25.5 -7h-33q-13 0 -18.5 3t-11.5 13l-64 102q-7 11 -19 11h-25v-70h3q31 0 31 -29q0 -30 -35 -30h-68q-34 0 -34 30q0 29 29 29h5v198h-5q-29 0 -29 30q0 29 34 29h122q115 0 115 -87
q0 -59 -62 -83zM258 439v-76h36q31 0 45 8.5t14 29.5q0 38 -50 38h-45z" />
    <glyph glyph-name="minus" unicode="&#x2212;" 
d="M90 257q-24 0 -39 14t-15 37t15 37t39 14h422q24 0 39 -14t15 -37t-15 -37t-39 -14h-422z" />
    <glyph glyph-name="Eth" unicode="&#xd0;" 
d="M221 108q10 -1 28 -1q92 0 135.5 45t43.5 139q0 183 -178 183q-19 0 -29 -1v-145h68q40 0 40 -38q0 -36 -40 -36h-68v-146zM95 0q-32 0 -47 12t-15 42q0 53 54 53h8v147h-15q-40 0 -40 38q0 15 8.5 25.5t16.5 10.5h15h15v143h-8q-54 0 -54 54q0 29 15 41.5t47 12.5h92h29
q85 0 137 -7t93 -31q58 -36 90 -100.5t32 -150.5q0 -90 -36 -157.5t-102 -102.5q-55 -30 -188 -30h-55h-92z" />
    <glyph glyph-name="Thorn" unicode="&#xde;" 
d="M248 351v-124h61q50 0 73.5 14.5t23.5 47.5t-23.5 47.5t-73.5 14.5h-61zM128 488h-9q-50 0 -50 46q0 20 12 32.5t28 12.5h19h153h21q16 0 27.5 -12.5t11.5 -32.5q0 -46 -60 -46h-33v-45h73q101 0 152.5 -38.5t51.5 -111.5q0 -76 -51.5 -116.5t-152.5 -40.5h-73v-45h49h19
q16 0 28.5 -13t12.5 -33q0 -26 -14.5 -35.5t-45.5 -9.5h-169h-19q-16 0 -28 12.5t-12 32.5q0 46 50 46h9v397z" />
    <glyph glyph-name="Yacute" unicode="&#xdd;" 
d="M99 471h-8q-52 0 -52 54q0 30 14.5 42t45.5 12h128q28 0 41 -12t13 -42q0 -54 -47 -54h-5l76 -159l73 159h-2q-45 0 -45 54q0 30 12.5 42t40.5 12h111q32 0 46 -12t14 -42q0 -54 -52 -54h-8l-131 -244v-120h64q32 0 46.5 -11.5t14.5 -41.5q0 -54 -62 -54h-253
q-32 0 -46.5 12t-14.5 42t14.5 41.5t46.5 11.5h64v106zM196 663l232 136q4 2 8 2q16 0 23 -15l20 -42q2 -6 2 -8q0 -14 -13 -20l-256 -91z" />
    <glyph glyph-name="brokenbar" unicode="&#xa6;" 
d="M253 329v370h95v-370h-95zM253 -172v371h95v-371h-95z" />
    <glyph glyph-name="degree" unicode="&#xb0;" 
d="M144 507q0 65 45.5 111t111.5 46t111.5 -46t45.5 -111q0 -66 -45.5 -111.5t-111.5 -45.5t-111.5 45.5t-45.5 111.5zM218 507q0 -36 24 -60.5t59 -24.5t59 25t24 60t-24 60t-59 25t-59 -24.5t-24 -60.5z" />
    <glyph glyph-name="divide" unicode="&#xf7;" 
d="M301 86q-29 0 -48.5 20t-19.5 48q0 29 20 49t48 20q29 0 48.5 -20t19.5 -49t-19.5 -48.5t-48.5 -19.5zM82 358h437q45 0 45 -50q0 -23 -12 -36.5t-33 -13.5h-437q-21 0 -33 13.5t-12 36.5q0 50 45 50zM301 393q-29 0 -48.5 19.5t-19.5 48.5t20 49t48 20q29 0 48.5 -20
t19.5 -49t-19.5 -48.5t-48.5 -19.5z" />
    <glyph glyph-name="eth" unicode="&#xf0;" 
d="M301 91q57 0 93.5 38.5t36.5 96.5t-36 95.5t-94 37.5t-94.5 -37.5t-36.5 -95.5t37 -96.5t94 -38.5zM354 448q-24 37 -65 73l-96 -42q-16 -7 -26 -7q-9 0 -16 10t-7 21q0 17 25 27l72 30q-22 16 -45 29.5t-31.5 19.5t-8.5 11q0 19 50 19q11 0 25.5 -4.5t23 -9t31.5 -17
t32 -17.5l83 37q16 7 26 7q9 0 16 -10t7 -21q0 -15 -25 -26l-53 -24q190 -153 190 -329q0 -103 -71 -170t-190 -67q-120 0 -193.5 67t-73.5 170q0 99 71 165t185 66q30 0 64 -8z" />
    <glyph glyph-name="mu" unicode="&#x3bc;" 
d="M477 99h20q18 0 30 -12.5t12 -32.5q0 -26 -16.5 -40t-46.5 -14h-66q-52 0 -52 45q0 10 1 22q-51 -77 -122 -77q-42 0 -68 30l-32 -158q-12 -57 -59 -57q-53 0 -53 49q0 10 3 22l105 477h-17q-18 0 -30.5 12.5t-12.5 32.5q0 26 17 40.5t47 14.5h65q53 0 53 -47
q0 -4 -2 -22l-50 -219q-5 -20 -5 -37q0 -43 52 -43q108 0 144 155l35 154q7 31 19.5 45t41.5 14q51 0 51 -50q0 -9 -3 -23z" />
    <glyph glyph-name="multiply" unicode="&#xd7;" 
d="M302 387l115 115q17 17 36 17q22 0 36.5 -13.5t14.5 -33.5q0 -23 -17 -40l-115 -115l119 -119q17 -17 17 -38t-14.5 -35.5t-34.5 -14.5q-23 0 -39 16l-120 120l-114 -115q-17 -17 -40 -17q-19 0 -33.5 15t-14.5 34q0 20 18 38l114 115l-120 120q-17 17 -17 39
q0 19 15.5 34.5t34.5 15.5q21 0 39 -18z" />
    <glyph glyph-name="onehalf" unicode="&#xbd;" 
d="M415 -17h117q18 0 28.5 -9.5t10.5 -24.5t-10.5 -25t-26.5 -10h-173q-35 0 -35 42q0 6 1.5 12.5t3.5 11.5t7 11.5t8 10t11 11t12 10.5t14.5 12t14.5 13q34 29 46 40.5t24 29t12 33.5q0 20 -11.5 32t-30.5 12q-16 0 -44.5 -14.5t-40.5 -14.5q-28 0 -28 33q0 25 39.5 46.5
t87.5 21.5q51 0 83 -29.5t32 -75.5q0 -67 -86 -130zM186 397h19q34 0 46.5 -6.5t12.5 -27.5q0 -35 -34 -35h-173q-34 0 -34 35q0 22 12 28t46 6h24v211l-28 -2h-4q-18 0 -28.5 9.5t-10.5 23.5q0 35 39 36l76 5h4q18 0 25.5 -8t7.5 -28v-247zM492 419q8 4 17 4
q11 0 18.5 -7.5t7.5 -18.5q0 -17 -18 -27l-419 -212q-7 -4 -16 -4q-11 0 -18.5 8t-7.5 19q0 16 18 26z" />
    <glyph glyph-name="onequarter" unicode="&#xbc;" 
d="M437 40v149l-116 -149h116zM186 397h19q34 0 46.5 -6.5t12.5 -27.5q0 -35 -34 -35h-173q-34 0 -34 35q0 22 12 28t46 6h24v211l-28 -2h-4q-18 0 -28.5 9.5t-10.5 23.5q0 35 39 36l76 5h4q18 0 25.5 -8t7.5 -28v-247zM492 419q8 4 17 4q11 0 18.5 -7.5t7.5 -18.5
q0 -17 -18 -27l-419 -212q-7 -4 -16 -4q-11 0 -18.5 8t-7.5 19q0 16 18 26zM509 40h37q16 0 20 -6t4 -25t-4.5 -27t-19.5 -8h-37v-39q0 -28 -39 -28q-21 0 -30.5 6t-9.5 22v39h-150q-31 0 -31 40q0 41 18 62l138 170q13 16 21 16q12 0 18 -1l49 -8q16 -3 16 -31v-182z" />
    <glyph glyph-name="onesuperior" unicode="&#xb9;" 
d="M347 316h19q36 0 49 -7t13 -30q0 -38 -36 -38h-180q-36 0 -36 38q0 23 13 30t48 7h20v230l-24 -2h-6q-18 0 -28.5 10t-10.5 25q0 37 41 40l79 5h7q19 0 25.5 -8.5t6.5 -30.5v-269z" />
    <glyph glyph-name="plusminus" unicode="&#xb1;" 
d="M115 30q-24 0 -39 14t-15 36q0 23 15 37t39 14h372q24 0 39 -14t15 -36q0 -23 -15 -37t-39 -14h-372zM351 218q0 -24 -14 -39t-37 -15q-22 0 -36 15t-14 39v122h-135q-24 0 -39 14t-15 37t15 37t39 14h135v123q0 24 14 39t36 15q23 0 37 -15t14 -39v-123h136q24 0 39 -14
t15 -37t-15 -37t-39 -14h-136v-122z" />
    <glyph glyph-name="thorn" unicode="&#xfe;" 
d="M210 232q0 -56 31.5 -91.5t79.5 -35.5t79.5 36t31.5 91q0 56 -31.5 91.5t-79.5 35.5t-79.5 -35.5t-31.5 -91.5zM270 -87q32 0 46.5 -12t14.5 -42t-14.5 -41.5t-46.5 -11.5h-207q-33 0 -47 11.5t-14 41.5t14.5 42t46.5 12h29v618h-8q-53 0 -53 54q0 30 14.5 42t46.5 12h79
q29 0 29 -21v-222q50 67 140 67q97 0 161.5 -64.5t64.5 -160.5q0 -102 -64 -168.5t-161 -66.5q-81 0 -133 43v-133h62z" />
    <glyph glyph-name="threequarters" unicode="&#xbe;" 
d="M239 519q68 -30 68 -89q0 -47 -39.5 -78t-105.5 -31q-57 0 -90.5 14t-33.5 37q0 36 35 36q12 0 39.5 -10.5t45.5 -10.5q27 0 44.5 14.5t17.5 36.5q0 19 -14 33t-35 15q-14 1 -20.5 3t-12 8t-5.5 18q0 14 8 19.5t27 9.5q21 5 29.5 13.5t8.5 28.5q0 36 -37 36
q-19 0 -47.5 -13.5t-36.5 -13.5q-13 0 -22 8.5t-9 22.5q0 24 36 43t87 19t83.5 -27.5t32.5 -64.5q0 -52 -54 -77zM509 40h37q16 0 20 -6t4 -25t-4.5 -27t-19.5 -8h-37v-39q0 -28 -39 -28q-21 0 -30.5 6t-9.5 22v39h-150q-31 0 -31 40q0 41 18 62l138 170q13 16 21 16
q12 0 18 -1l49 -8q16 -3 16 -31v-182zM437 40v149l-116 -149h116zM492 419q8 4 17 4q11 0 18.5 -7.5t7.5 -18.5q0 -17 -18 -27l-419 -212q-7 -4 -16 -4q-11 0 -18.5 8t-7.5 19q0 16 18 26z" />
    <glyph glyph-name="threesuperior" unicode="&#xb3;" 
d="M375 445q77 -36 77 -100q0 -52 -47.5 -87t-126.5 -35q-67 0 -109 21.5t-42 51.5q0 14 10.5 23.5t26.5 9.5q10 0 46.5 -15.5t69.5 -15.5q34 0 56 15.5t22 36.5q0 44 -63 50q-46 5 -54 12q-9 7 -9 25q0 16 10 26t20 10q35 0 56 12t21 32q0 19 -15 30.5t-40 11.5
q-23 0 -55 -17.5t-45 -17.5q-14 0 -22.5 8t-8.5 19q0 30 41.5 55.5t98.5 25.5q60 0 98.5 -29.5t38.5 -71.5q0 -47 -55 -86z" />
    <glyph glyph-name="twosuperior" unicode="&#xb2;" 
d="M243 313h138l3 18q7 38 40 38q18 0 29 -12t11 -31q0 -6 -1 -10l-7 -47q-4 -28 -50 -28h-222q-38 0 -38 46q0 10 2 18.5t8 17t10.5 14t17 15t18 13.5t23.5 15.5t25 16.5q46 31 67.5 54.5t21.5 50.5q0 22 -15 36t-39 14q-23 0 -53 -16.5t-38 -16.5q-15 0 -26 10.5t-11 25.5
q0 30 45 53.5t99 23.5q59 0 95.5 -35t36.5 -88q0 -51 -42.5 -91.5t-147.5 -104.5z" />
    <glyph glyph-name="yacute" unicode="&#xfd;" 
d="M510 451q32 0 47 -11.5t15 -41.5q0 -54 -54 -54h-8l-201 -431h22q32 0 47 -12t15 -42t-15 -42t-47 -12h-214q-32 0 -47 12t-15 42t15 42t47 12h76l46 98l-148 333h-8q-54 0 -54 54q0 30 15 41.5t47 11.5h124q32 0 47 -11.5t15 -41.5q0 -54 -54 -54h-8l88 -208l92 208h-8
q-54 0 -54 54q0 30 15 41.5t47 11.5h115zM196 531l232 136q4 2 8 2q16 0 23 -15l20 -42q2 -6 2 -8q0 -14 -13 -20l-256 -91z" />
  </font>
</defs>
</svg>
